{"glyphs":{"0":{"ha":768,"x_min":72,"x_max":694,"o":"m 72 488 q 149 865 72 746 q 383 985 225 985 q 559 932 490 985 q 661 768 628 879 q 694 482 694 657 q 661 198 694 307 q 559 38 628 89 q 383 -14 490 -14 q 209 38 278 -14 q 106 201 140 90 q 72 488 72 313 m 218 263 q 278 135 238 175 q 383 94 319 94 q 490 134 449 94 q 549 256 531 174 q 568 464 568 339 q 568 482 568 472 q 549 708 568 621 q 490 835 531 794 q 383 875 449 875 q 278 835 319 875 q 218 710 238 796 q 199 488 199 625 q 218 263 199 349 z "},"1":{"ha":768,"x_min":113,"x_max":478,"o":"m 478 0 l 354 0 l 354 833 l 113 710 l 113 828 l 374 969 l 478 969 l 478 0 z "},"2":{"ha":768,"x_min":85,"x_max":671,"o":"m 85 0 l 85 83 l 336 376 q 446 514 407 458 q 500 615 485 569 q 515 714 515 661 q 471 837 515 799 q 332 875 426 875 q 227 865 281 875 q 106 836 174 856 l 106 943 q 226 974 168 964 q 347 985 283 985 q 567 922 489 985 q 644 726 644 858 q 627 609 644 664 q 567 490 610 554 q 444 333 524 425 l 247 103 l 671 103 l 671 0 l 85 0 z "},"3":{"ha":768,"x_min":89,"x_max":665,"o":"m 89 124 q 213 98 156 106 q 331 90 269 90 q 488 135 439 90 q 538 274 538 181 q 487 410 538 367 q 331 454 436 454 l 213 454 l 213 554 l 326 554 q 471 597 425 554 q 517 724 517 639 q 473 842 517 806 q 326 878 429 878 q 220 870 274 878 q 101 843 167 863 l 101 950 q 226 977 172 969 q 342 985 279 985 q 568 925 492 985 q 644 738 644 865 q 569 553 644 615 q 493 511 538 526 q 589 463 551 494 q 665 268 665 397 q 583 56 665 126 q 346 -14 501 -14 q 214 -6 274 -14 q 89 17 154 1 l 89 124 z "},"4":{"ha":768,"x_min":46,"x_max":749,"o":"m 224 640 q 450 969 322 807 l 610 969 l 610 299 l 749 299 l 749 197 l 610 197 l 610 0 l 490 0 l 490 197 l 46 197 l 46 290 q 224 640 124 474 m 169 299 l 490 299 l 490 857 q 321 600 396 729 q 169 299 238 456 z "},"5":{"ha":768,"x_min":111,"x_max":675,"o":"m 111 19 l 111 125 q 230 98 175 107 q 340 89 285 89 q 498 138 449 89 q 547 296 547 186 q 498 442 547 396 q 335 488 449 488 q 236 482 283 488 q 139 469 189 476 l 139 969 l 640 969 l 640 867 l 253 867 l 253 581 q 278 585 265 582 q 367 589 318 589 q 599 520 524 589 q 675 299 675 451 q 593 60 675 135 q 358 -14 511 -14 q 231 -6 294 -14 q 111 19 168 3 z "},"6":{"ha":768,"x_min":68,"x_max":708,"o":"m 97 500 q 185 683 125 589 q 343 886 246 778 l 419 969 l 568 969 l 467 860 q 349 726 399 786 q 267 613 299 665 q 233 547 247 579 q 244 554 239 550 q 403 600 311 600 q 565 567 496 600 q 671 468 633 535 q 708 300 708 401 q 708 293 708 297 q 624 68 707 150 q 393 -14 542 -14 q 156 65 243 -14 q 68 315 68 144 q 97 500 68 411 m 243 140 q 392 88 293 88 q 533 140 483 88 q 582 292 582 192 q 532 443 582 392 q 392 494 482 494 q 192 292 192 494 q 243 140 192 192 z "},"7":{"ha":768,"x_min":79,"x_max":672,"o":"m 79 969 l 672 969 l 672 874 q 527 588 590 726 q 426 316 464 450 q 376 47 388 182 l 374 0 l 243 0 l 249 57 q 302 324 263 190 q 411 607 342 458 q 544 867 467 728 l 79 867 l 79 969 z "},"8":{"ha":768,"x_min":64,"x_max":703,"o":"m 64 274 q 149 472 64 404 q 210 508 175 493 q 164 538 183 521 q 86 726 86 601 q 163 917 86 850 q 383 985 240 985 q 603 917 526 985 q 681 726 681 850 q 604 538 681 601 q 558 508 583 521 q 621 472 593 493 q 703 274 703 404 q 622 58 703 131 q 383 -14 542 -14 q 145 58 226 -14 q 64 274 64 131 m 190 274 q 240 133 190 179 q 383 86 289 86 q 528 133 478 86 q 578 274 578 179 q 529 413 578 368 q 383 458 481 458 q 240 413 289 458 q 190 274 190 368 m 254 597 q 383 556 297 556 q 513 597 469 556 q 557 726 557 639 q 513 843 557 804 q 383 882 469 882 q 254 843 299 882 q 210 726 210 804 q 254 597 210 639 z "},"9":{"ha":768,"x_min":57,"x_max":697,"o":"m 142 903 q 374 985 224 985 q 610 904 524 985 q 697 654 697 824 q 668 473 697 561 q 579 292 639 385 q 425 90 519 200 l 347 0 l 197 0 l 297 117 q 412 251 363 192 q 496 364 461 311 q 528 421 514 392 q 522 417 525 418 q 363 371 454 371 q 201 403 269 371 q 94 503 132 436 q 57 676 57 571 q 142 903 60 821 m 233 526 q 374 475 283 475 q 523 526 472 475 q 574 678 574 578 q 523 829 574 778 q 374 881 472 881 q 232 829 282 881 q 182 678 182 778 q 233 526 182 578 z "},"E":{"ha":1014,"x_min":158,"x_max":856,"o":"m 158 0 l 158 957 l 856 957 l 856 0 l 158 0 m 265 86 l 750 86 l 750 868 l 265 868 l 265 86 z "},"ɐ":{"ha":1014,"x_min":158,"x_max":856,"o":"m 158 0 l 158 957 l 856 957 l 856 0 l 158 0 m 265 86 l 750 86 l 750 868 l 265 868 l 265 86 z "},"ɑ":{"ha":1014,"x_min":158,"x_max":856,"o":"m 158 0 l 158 957 l 856 957 l 856 0 l 158 0 m 265 86 l 750 86 l 750 868 l 265 868 l 265 86 z "},"ɒ":{"ha":1014,"x_min":158,"x_max":856,"o":"m 158 0 l 158 957 l 856 957 l 856 0 l 158 0 m 265 86 l 750 86 l 750 868 l 265 868 l 265 86 z "},"ɕ":{"ha":1014,"x_min":158,"x_max":856,"o":"m 158 0 l 158 957 l 856 957 l 856 0 l 158 0 m 265 86 l 750 86 l 750 868 l 265 868 l 265 86 z "},"҇":{"ha":1014,"x_min":158,"x_max":856,"o":"m 158 0 l 158 957 l 856 957 l 856 0 l 158 0 m 265 86 l 750 86 l 750 868 l 265 868 l 265 86 z "},"―":{"ha":1014,"x_min":158,"x_max":856,"o":"m 158 0 l 158 957 l 856 957 l 856 0 l 158 0 m 265 86 l 750 86 l 750 868 l 265 868 l 265 86 z "},"‖":{"ha":1014,"x_min":158,"x_max":856,"o":"m 158 0 l 158 957 l 856 957 l 856 0 l 158 0 m 265 86 l 750 86 l 750 868 l 265 868 l 265 86 z "},"‗":{"ha":1014,"x_min":158,"x_max":856,"o":"m 158 0 l 158 957 l 856 957 l 856 0 l 158 0 m 265 86 l 750 86 l 750 868 l 265 868 l 265 86 z "},"₶":{"ha":1014,"x_min":158,"x_max":856,"o":"m 158 0 l 158 957 l 856 957 l 856 0 l 158 0 m 265 86 l 750 86 l 750 868 l 265 868 l 265 86 z "},"₷":{"ha":1014,"x_min":158,"x_max":856,"o":"m 158 0 l 158 957 l 856 957 l 856 0 l 158 0 m 265 86 l 750 86 l 750 868 l 265 868 l 265 86 z "},"₻":{"ha":1014,"x_min":158,"x_max":856,"o":"m 158 0 l 158 957 l 856 957 l 856 0 l 158 0 m 265 86 l 750 86 l 750 868 l 265 868 l 265 86 z "},"⅒":{"ha":1014,"x_min":158,"x_max":856,"o":"m 158 0 l 158 957 l 856 957 l 856 0 l 158 0 m 265 86 l 750 86 l 750 868 l 265 868 l 265 86 z "},"\r":{"ha":0,"x_min":0,"x_max":0,"o":""}," ":{"ha":329,"x_min":0,"x_max":0,"o":""}," ":{"ha":329,"x_min":0,"x_max":0,"o":""},"‌":{"ha":0,"x_min":0,"x_max":0,"o":""},"‍":{"ha":0,"x_min":0,"x_max":0,"o":""},"A":{"ha":896,"x_min":64,"x_max":833,"o":"m 64 0 q 118 217 86 99 q 191 463 150 335 q 278 719 232 590 q 376 969 325 849 l 521 969 q 619 719 572 849 q 706 463 665 590 q 778 217 746 335 q 833 0 811 99 l 704 0 q 657 206 686 92 q 644 249 650 226 l 247 249 q 236 206 242 226 q 188 0 207 92 l 64 0 m 276 353 l 615 353 q 590 442 603 396 q 511 689 553 565 q 446 872 479 785 q 382 689 414 785 q 303 442 340 565 q 276 353 289 396 z "},"F":{"ha":788,"x_min":154,"x_max":706,"o":"m 154 969 l 706 969 l 706 867 l 279 867 l 279 528 l 676 528 l 676 421 l 279 421 l 279 0 l 154 0 l 154 969 z "},"I":{"ha":433,"x_min":154,"x_max":279,"o":"m 279 0 l 154 0 l 154 969 l 279 969 l 279 0 z "},"J":{"ha":543,"x_min":44,"x_max":392,"o":"m 44 103 q 175 90 115 90 q 246 108 224 90 q 268 176 268 125 l 268 969 l 392 969 l 392 171 q 338 26 392 65 q 186 -14 285 -14 q 110 -10 147 -14 q 44 0 72 -6 l 44 103 z "},"O":{"ha":979,"x_min":106,"x_max":874,"o":"m 106 486 q 132 717 106 622 q 208 872 158 813 q 330 958 258 931 q 490 985 401 985 q 650 958 579 985 q 771 872 721 931 q 847 718 821 814 q 874 485 874 622 q 847 253 874 349 q 771 99 821 158 q 650 13 721 40 q 490 -14 579 -14 q 330 13 401 -14 q 208 99 258 40 q 132 253 158 157 q 106 486 106 349 m 261 260 q 346 133 289 172 q 490 93 403 93 q 635 133 578 93 q 719 259 692 172 q 746 485 746 346 q 719 711 746 625 q 635 837 692 797 q 490 876 578 876 q 346 837 403 876 q 261 711 289 797 q 233 486 233 625 q 261 260 233 346 z "},"Q":{"ha":979,"x_min":106,"x_max":874,"o":"m 106 486 q 132 717 106 622 q 208 872 158 813 q 330 958 258 931 q 490 985 401 985 q 650 958 579 985 q 771 872 721 931 q 847 718 821 814 q 874 485 874 622 q 847 253 874 349 q 771 99 821 158 q 650 14 721 40 q 611 1 632 6 l 753 -199 l 610 -199 l 486 -14 q 331 14 400 -14 q 208 99 258 40 q 132 253 158 157 q 106 486 106 349 m 261 260 q 346 133 289 172 q 490 93 403 93 q 635 133 578 93 q 719 259 692 172 q 746 485 746 346 q 719 711 746 625 q 635 837 692 797 q 490 876 578 876 q 346 837 403 876 q 261 711 289 797 q 233 486 233 625 q 261 260 233 346 z "},"U":{"ha":969,"x_min":140,"x_max":829,"o":"m 264 969 l 264 318 q 290 189 264 239 q 366 116 317 139 q 483 93 415 93 q 603 116 553 93 q 679 189 653 139 q 706 318 706 239 l 706 969 l 829 969 l 829 314 q 786 128 829 200 q 666 21 743 56 q 483 -14 589 -14 q 303 21 381 -14 q 183 128 225 56 q 140 314 140 200 l 140 969 l 264 969 z "},"W":{"ha":1304,"x_min":63,"x_max":1242,"o":"m 63 969 l 188 969 l 382 131 l 590 969 l 717 969 l 925 136 l 1118 969 l 1242 969 l 1010 0 l 846 0 l 654 781 l 463 0 l 296 0 l 63 969 z "},"Z":{"ha":772,"x_min":65,"x_max":710,"o":"m 710 0 l 65 0 l 65 92 l 554 867 l 76 867 l 76 969 l 700 969 l 700 878 l 213 104 l 710 104 l 710 0 z "},"Æ":{"ha":1306,"x_min":44,"x_max":1206,"o":"m 44 0 q 190 320 111 160 q 362 642 268 481 q 565 969 456 804 l 1203 969 l 1203 867 l 760 867 l 760 553 l 1171 553 l 1171 449 l 760 449 l 760 104 l 1206 104 l 1206 0 l 640 0 l 640 250 l 279 250 q 169 0 219 124 l 44 0 m 640 353 l 640 867 l 619 867 q 468 614 539 740 q 328 353 393 482 l 640 353 z "},"Œ":{"ha":1335,"x_min":106,"x_max":1235,"o":"m 106 488 q 136 715 106 622 q 224 863 167 807 q 358 944 281 919 q 529 969 436 969 l 1229 969 l 1229 867 l 788 867 l 788 551 l 1197 551 l 1197 449 l 788 449 l 788 104 l 1235 104 l 1235 0 l 529 0 q 355 26 433 0 q 221 110 276 53 q 135 260 165 167 q 106 488 106 354 m 271 263 q 373 141 307 178 q 526 104 439 104 l 667 104 l 667 867 l 526 867 q 373 831 439 867 q 270 713 307 796 q 233 488 233 631 q 271 263 233 346 z "},"Ð":{"ha":983,"x_min":63,"x_max":878,"o":"m 63 451 l 63 550 l 188 550 l 188 969 l 472 969 q 638 943 564 969 q 767 860 713 917 q 849 710 821 803 q 878 483 878 617 q 848 256 878 349 q 764 106 818 163 q 635 25 710 50 q 472 0 561 0 l 188 0 l 188 451 l 63 451 m 313 104 l 475 104 q 617 140 556 104 q 715 258 679 175 q 750 483 750 342 q 715 710 750 626 q 617 830 679 793 q 475 867 556 867 l 313 867 l 313 550 l 514 550 l 514 451 l 313 451 l 313 104 z "},"Ŋ":{"ha":1013,"x_min":154,"x_max":858,"o":"m 154 0 l 154 969 l 303 969 l 744 193 l 744 969 l 858 969 l 858 -112 q 808 -260 858 -219 q 663 -300 757 -300 q 587 -296 625 -300 q 521 -286 549 -292 l 521 -186 q 589 -195 557 -192 q 651 -199 621 -199 q 722 -181 700 -199 q 744 -112 744 -164 l 744 -14 l 269 814 l 269 0 l 154 0 z "},"Þ":{"ha":872,"x_min":154,"x_max":793,"o":"m 279 969 l 279 804 l 475 804 q 638 773 567 804 q 751 675 710 742 q 793 501 793 608 q 751 329 793 396 q 638 231 710 263 q 475 199 567 199 l 279 199 l 279 0 l 154 0 l 154 969 l 279 969 m 468 303 q 610 353 553 303 q 667 501 667 403 q 610 651 667 600 q 468 701 553 701 l 279 701 l 279 303 l 468 303 z "},"ẞ":{"ha":946,"x_min":146,"x_max":863,"o":"m 231 913 q 481 985 314 985 q 658 953 583 985 q 781 878 733 921 l 781 794 l 582 554 l 585 554 q 795 485 728 554 q 863 274 863 417 q 795 59 863 132 q 592 -14 728 -14 q 526 -10 563 -14 q 446 0 490 -7 l 446 110 q 520 96 486 100 q 581 92 554 92 q 702 135 667 92 q 738 274 738 179 q 696 411 738 367 q 563 456 654 456 l 446 456 l 446 549 l 678 818 q 604 858 643 843 q 481 878 550 878 q 353 859 399 878 q 288 798 307 840 q 269 685 269 756 l 269 0 l 146 0 l 146 690 q 231 913 146 839 z "},"Ĳ":{"ha":974,"x_min":154,"x_max":822,"o":"m 279 0 l 154 0 l 154 969 l 279 969 l 279 0 m 475 103 q 606 90 546 90 q 676 108 654 90 q 699 176 699 125 l 699 969 l 822 969 l 822 171 q 769 26 822 65 q 617 -14 715 -14 q 540 -10 578 -14 q 475 0 503 -6 l 475 103 z "},"f":{"ha":496,"x_min":26,"x_max":467,"o":"m 26 714 l 144 714 l 144 821 q 195 964 144 915 q 344 1013 246 1013 q 415 1008 383 1013 q 467 997 446 1003 l 467 903 q 414 914 443 910 q 357 918 385 918 q 285 893 304 918 q 267 814 267 868 l 267 714 l 467 714 l 467 614 l 267 614 l 267 0 l 144 0 l 144 614 l 26 614 l 26 714 z "},"j":{"ha":365,"x_min":-10,"x_max":260,"o":"m -10 -289 l -10 -185 q 26 -192 8 -189 q 58 -194 43 -194 q 106 -181 90 -194 q 122 -129 122 -167 l 122 714 l 243 714 l 243 -137 q 199 -262 243 -225 q 75 -300 156 -300 q 28 -297 50 -300 q -10 -289 6 -294 m 107 910 q 125 967 107 950 q 182 985 143 985 q 243 967 226 985 q 260 910 260 950 q 243 853 260 871 q 182 836 226 836 q 125 853 143 836 q 107 910 107 871 z "},"q":{"ha":794,"x_min":81,"x_max":674,"o":"m 115 576 q 217 693 150 658 q 382 728 285 728 q 531 710 460 728 q 674 660 603 692 l 674 -286 l 553 -286 l 553 69 q 456 13 503 32 q 332 -14 392 -14 q 200 19 257 -14 q 112 131 143 51 q 81 353 81 211 q 115 576 81 494 m 247 149 q 365 90 289 90 q 465 114 410 90 q 553 161 506 131 l 553 594 q 490 615 521 607 q 382 626 440 626 q 281 601 319 626 q 224 517 242 576 q 206 353 206 457 q 247 149 206 207 z "},"w":{"ha":1076,"x_min":44,"x_max":1032,"o":"m 44 714 l 164 714 l 315 115 l 482 714 l 596 714 l 761 119 l 914 714 l 1032 714 l 840 0 l 689 0 l 538 554 l 386 0 l 236 0 l 44 714 z "},"z":{"ha":625,"x_min":61,"x_max":574,"o":"m 72 614 l 72 714 l 563 714 l 563 625 l 200 99 l 574 99 l 574 0 l 61 0 l 61 88 l 424 614 l 72 614 z "},"æ":{"ha":1157,"x_min":76,"x_max":1076,"o":"m 76 188 q 135 353 76 300 q 306 406 194 406 l 504 406 l 504 492 q 471 590 504 558 q 363 622 438 622 q 238 611 299 622 q 122 583 178 600 l 122 690 q 248 717 185 707 q 364 728 311 728 q 536 678 478 728 q 578 615 564 653 q 594 638 585 626 q 810 728 667 728 q 1008 653 940 728 q 1076 422 1076 578 q 1075 375 1076 401 q 1071 328 1074 349 l 624 328 q 646 200 628 250 q 716 114 668 140 q 840 88 764 88 q 941 95 893 88 q 1039 117 989 103 l 1039 11 q 943 -7 994 0 q 840 -14 892 -14 q 658 25 729 -14 q 568 117 600 56 q 439 25 503 53 q 278 -14 353 -14 q 175 6 221 -14 q 103 71 129 26 q 76 188 76 115 m 192 197 q 222 106 192 129 q 297 82 253 82 q 410 111 350 82 q 504 176 457 133 l 504 315 l 331 315 q 226 289 261 315 q 192 197 192 263 m 957 418 l 957 429 q 917 583 957 536 q 801 629 878 629 q 665 567 707 629 q 625 418 633 517 l 957 418 z "},"œ":{"ha":1219,"x_min":83,"x_max":1139,"o":"m 158 636 q 383 728 233 728 q 599 636 528 728 q 625 590 614 615 q 656 636 639 615 q 872 728 728 728 q 1071 652 1003 728 q 1139 422 1139 576 q 1137 375 1139 401 q 1132 328 1135 349 l 685 328 q 707 200 689 250 q 777 114 729 140 q 901 88 825 88 q 1002 95 954 88 q 1100 117 1050 103 l 1100 11 q 1004 -7 1054 0 q 901 -14 954 -14 q 719 25 790 -14 q 625 122 658 57 q 599 78 614 99 q 383 -14 528 -14 q 158 78 233 -14 q 83 358 83 169 q 158 636 83 544 m 208 358 q 251 151 208 215 q 385 88 293 88 q 520 150 478 88 q 563 356 563 213 q 520 563 563 500 q 385 626 478 626 q 251 563 293 626 q 208 358 208 500 m 686 418 l 1019 418 l 1019 429 q 979 583 1019 536 q 864 629 939 629 q 726 567 768 629 q 686 418 694 517 z "},"ð":{"ha":768,"x_min":78,"x_max":685,"o":"m 157 510 q 372 589 236 589 q 519 551 460 589 q 481 621 503 586 q 403 736 447 675 q 382 764 393 750 l 207 679 l 207 779 l 328 838 q 303 872 315 854 l 210 997 l 349 997 l 421 901 q 431 888 426 894 l 611 975 l 611 875 l 483 814 q 536 736 511 774 q 618 591 585 660 q 668 454 651 522 q 685 314 685 386 q 603 68 685 150 q 378 -14 522 -14 q 156 65 235 -14 q 78 286 78 144 q 157 510 78 431 m 199 288 q 244 138 199 188 q 378 88 290 88 q 517 138 469 88 q 565 288 565 189 q 518 439 565 388 q 376 490 471 490 q 244 439 290 490 q 199 288 199 388 z "},"ŋ":{"ha":810,"x_min":122,"x_max":690,"o":"m 122 714 l 240 714 l 240 639 q 349 699 294 675 q 489 728 419 728 q 639 676 588 728 q 690 514 690 625 l 690 -137 q 647 -262 690 -225 q 519 -300 603 -300 q 476 -297 499 -300 q 436 -289 453 -294 l 436 -187 q 507 -194 474 -194 q 554 -181 539 -194 q 569 -129 569 -167 l 569 499 q 539 588 569 560 q 450 617 508 617 q 336 596 394 617 q 243 554 292 579 l 243 0 l 122 0 l 122 714 z "},"þ":{"ha":794,"x_min":122,"x_max":713,"o":"m 122 997 l 243 997 l 243 642 q 340 700 293 679 q 465 728 404 728 q 596 694 540 728 q 682 581 651 661 q 713 360 713 501 q 678 138 713 219 q 577 21 643 56 q 415 -14 511 -14 q 271 6 339 -14 q 243 13 257 8 l 243 -286 l 122 -286 l 122 997 m 243 550 l 243 122 q 310 100 278 108 q 413 86 357 86 q 515 111 476 86 q 572 197 554 136 q 590 360 590 257 q 549 564 590 506 q 431 622 507 622 q 329 599 383 622 q 243 550 289 581 z "},"ß":{"ha":817,"x_min":121,"x_max":742,"o":"m 121 0 l 121 740 q 190 944 121 876 q 400 1013 260 1013 q 608 946 538 1013 q 679 738 679 879 q 615 551 679 614 q 572 519 596 533 q 679 464 640 504 q 742 267 742 397 q 674 56 742 126 q 469 -14 606 -14 q 415 -11 444 -14 q 344 -3 385 -8 l 344 100 q 403 90 378 93 q 451 86 429 86 q 581 131 543 86 q 619 272 619 176 q 581 410 619 367 q 463 453 543 453 l 344 453 l 344 553 l 401 553 q 518 597 481 553 q 556 733 556 640 q 522 871 556 829 q 400 913 489 913 q 276 871 310 913 q 243 733 243 829 l 243 0 l 121 0 z "},"ĳ":{"ha":714,"x_min":107,"x_max":608,"o":"m 122 714 l 244 714 l 244 0 l 122 0 l 122 714 m 126 968 q 183 985 144 985 q 243 967 226 985 q 260 910 260 950 q 243 853 260 871 q 183 836 226 836 q 126 853 144 836 q 107 910 107 871 q 126 968 107 950 m 339 -289 l 339 -185 q 374 -192 357 -189 q 407 -194 392 -194 q 455 -181 439 -194 q 471 -129 471 -167 l 471 714 l 592 714 l 592 -137 q 548 -262 592 -225 q 424 -300 504 -300 q 376 -297 399 -300 q 339 -289 354 -294 m 456 910 q 474 967 456 950 q 531 985 492 985 q 592 967 575 985 q 608 910 608 950 q 592 853 608 871 q 531 836 575 836 q 474 853 492 836 q 456 910 456 871 z "},"ı":{"ha":367,"x_min":122,"x_max":244,"o":"m 244 714 l 244 0 l 122 0 l 122 714 l 244 714 z "},"ȷ":{"ha":365,"x_min":-10,"x_max":243,"o":"m -10 -187 q 60 -194 25 -194 q 107 -181 92 -194 q 122 -129 122 -167 l 122 714 l 243 714 l 243 -137 q 200 -262 243 -225 q 74 -300 157 -300 q 29 -297 53 -300 q -10 -289 6 -294 l -10 -187 z "},"ſ":{"ha":394,"x_min":26,"x_max":465,"o":"m 26 714 l 144 714 l 144 821 q 195 964 144 915 q 343 1013 246 1013 q 414 1008 383 1013 q 465 997 444 1003 l 465 903 q 413 914 442 910 q 357 918 385 918 q 285 893 304 918 q 267 814 267 868 l 267 0 l 144 0 l 144 614 l 26 614 l 26 714 z "},"`":{"ha":763,"x_min":183,"x_max":435,"o":"m 319 1007 l 435 813 l 326 813 l 183 1007 l 319 1007 z "},"´":{"ha":763,"x_min":325,"x_max":578,"o":"m 440 1007 l 578 1007 l 435 813 l 325 813 l 440 1007 z "},"¨":{"ha":763,"x_min":182,"x_max":582,"o":"m 458 961 q 511 978 474 978 q 565 961 549 978 q 582 908 582 944 q 565 859 582 875 q 511 843 549 843 q 458 859 474 843 q 442 908 442 875 q 458 961 442 944 m 197 961 q 250 978 213 978 q 303 961 286 978 q 319 908 319 944 q 303 859 319 875 q 250 843 286 843 q 197 859 213 843 q 182 908 182 875 q 197 961 182 944 z "},"˙":{"ha":763,"x_min":304,"x_max":457,"o":"m 322 968 q 381 986 340 986 q 439 969 421 986 q 457 911 457 951 q 439 855 457 872 q 381 838 421 838 q 322 854 340 838 q 304 910 304 871 q 322 968 304 950 z "},"ˆ":{"ha":763,"x_min":194,"x_max":568,"o":"m 194 813 l 318 1007 l 446 1007 l 568 813 l 464 813 l 379 929 l 296 813 l 194 813 z "},"ˇ":{"ha":763,"x_min":194,"x_max":568,"o":"m 194 1007 l 300 1007 l 383 890 l 467 1007 l 568 1007 l 446 813 l 318 813 l 194 1007 z "},"˘":{"ha":764,"x_min":188,"x_max":575,"o":"m 283 1007 q 308 928 283 953 q 382 903 332 903 q 454 927 431 903 q 478 997 478 951 q 478 1007 478 1001 l 575 1007 q 524 863 575 913 q 382 813 474 813 q 240 863 292 813 q 188 1007 188 913 l 283 1007 z "},"¯":{"ha":763,"x_min":182,"x_max":581,"o":"m 581 938 l 581 851 l 182 851 l 182 938 l 581 938 z "},"˚":{"ha":763,"x_min":229,"x_max":532,"o":"m 269 1026 q 382 1061 310 1061 q 494 1026 456 1061 q 532 924 532 992 q 494 822 532 858 q 382 785 456 785 q 269 822 310 785 q 229 925 229 858 q 269 1026 229 990 m 331 874 q 382 858 347 858 q 449 924 449 858 q 433 973 449 957 q 382 989 418 989 q 313 925 313 989 q 331 874 313 889 z "},"˜":{"ha":763,"x_min":171,"x_max":592,"o":"m 204 953 q 292 996 236 996 q 340 986 317 996 q 386 961 364 976 l 407 947 q 435 930 422 938 q 460 922 447 922 q 488 937 476 922 q 500 981 500 951 l 592 981 q 560 870 592 913 q 472 828 528 828 q 424 837 447 828 q 378 861 401 846 l 354 876 q 328 893 340 886 q 304 900 317 900 q 276 885 288 900 q 264 840 264 871 l 171 840 q 204 953 171 910 z "},"˝":{"ha":763,"x_min":235,"x_max":632,"o":"m 510 1007 l 632 1007 l 524 813 l 428 813 l 510 1007 m 235 813 l 317 1007 l 438 1007 l 329 813 l 235 813 z "},"¸":{"ha":763,"x_min":196,"x_max":493,"o":"m 254 -211 q 308 -215 283 -215 q 368 -200 350 -215 q 386 -158 386 -185 q 372 -109 386 -132 q 338 -60 358 -86 l 292 0 l 361 56 l 431 -35 q 476 -105 458 -69 q 493 -176 493 -140 q 447 -267 493 -235 q 322 -300 401 -300 q 256 -295 289 -300 q 196 -282 224 -290 l 196 -196 q 254 -211 224 -206 z "},"˛":{"ha":763,"x_min":236,"x_max":518,"o":"m 236 -182 q 256 -112 236 -146 q 314 -40 275 -78 l 436 76 l 469 3 l 403 -65 q 358 -119 371 -96 q 346 -161 346 -142 q 360 -194 346 -183 q 408 -206 375 -206 q 456 -201 428 -206 q 518 -186 485 -196 l 518 -282 q 458 -294 492 -289 q 389 -300 425 -300 q 276 -270 317 -300 q 236 -182 236 -240 z "},"":{"ha":763,"x_min":285,"x_max":432,"o":"m 304 -210 q 315 -100 311 -153 l 432 -100 q 405 -217 421 -160 q 368 -326 389 -275 l 285 -326 q 304 -210 296 -265 z "},"":{"ha":763,"x_min":129,"x_max":525,"o":"m 251 1007 l 332 813 l 238 813 l 129 1007 l 251 1007 m 326 1007 l 446 1007 l 525 813 l 432 813 l 326 1007 z "},"·":{"ha":763,"x_min":301,"x_max":460,"o":"m 321 550 q 381 568 339 568 q 442 550 425 568 q 460 489 460 532 q 442 433 460 450 q 381 415 425 415 q 320 433 339 415 q 301 489 301 450 q 321 550 301 532 z "},"ˉ":{"ha":763,"x_min":182,"x_max":581,"o":"m 581 936 l 581 850 l 182 850 l 182 936 l 581 936 z "},"":{"ha":763,"x_min":182,"x_max":581,"o":"m 322 1007 l 439 1192 l 575 1192 l 432 1007 l 322 1007 m 440 889 q 456 941 440 925 q 510 957 471 957 q 563 941 546 957 q 581 889 581 925 q 563 839 581 854 q 510 824 546 824 q 456 839 471 824 q 440 889 440 854 m 199 942 q 249 957 214 957 q 303 941 286 957 q 319 889 319 925 q 303 839 319 854 q 249 824 286 824 q 198 839 214 824 q 182 889 182 854 q 199 942 182 925 z "},"":{"ha":763,"x_min":179,"x_max":581,"o":"m 179 1192 l 315 1192 l 433 1007 l 322 1007 l 179 1192 m 440 889 q 457 941 440 925 q 511 957 474 957 q 564 941 547 957 q 581 889 581 925 q 564 839 581 854 q 511 824 547 824 q 457 839 474 824 q 440 889 440 854 m 199 942 q 249 957 214 957 q 303 941 286 957 q 319 889 319 925 q 303 839 319 854 q 249 824 286 824 q 198 839 214 824 q 182 889 182 854 q 199 942 182 925 z "},"̀":{"ha":0,"x_min":-203,"x_max":47,"o":"m -67 1007 l 47 813 l -60 813 l -203 1007 l -67 1007 z "},"́":{"ha":0,"x_min":-51,"x_max":201,"o":"m 63 1007 l 201 1007 l 56 813 l -51 813 l 63 1007 z "},"̂":{"ha":0,"x_min":-186,"x_max":186,"o":"m -186 813 l -64 1007 l 64 1007 l 186 813 l 81 813 l -3 929 l -83 813 l -186 813 z "},"̃":{"ha":0,"x_min":-212,"x_max":208,"o":"m -179 953 q -90 996 -146 996 q -43 986 -67 996 q 3 961 -19 976 l 24 947 q 51 930 39 938 q 76 922 64 922 q 105 937 93 922 q 117 981 117 951 l 208 981 q 176 870 208 913 q 89 828 144 828 q 41 837 64 828 q -6 861 18 846 l -29 876 q -55 893 -43 886 q -79 900 -67 900 q -107 885 -96 900 q -118 840 -118 871 l -212 840 q -179 953 -212 910 z "},"̄":{"ha":0,"x_min":-197,"x_max":199,"o":"m 199 936 l 199 850 l -197 850 l -197 936 l 199 936 z "},"̅":{"ha":0,"x_min":-272,"x_max":274,"o":"m 274 936 l 274 850 l -272 850 l -272 936 l 274 936 z "},"̆":{"ha":0,"x_min":-192,"x_max":192,"o":"m -97 1007 q -73 928 -97 953 q 0 903 -49 903 q 72 927 49 903 q 94 996 94 951 q 94 1007 94 1001 l 192 1007 q 141 863 192 913 q 0 813 90 813 q -142 863 -92 813 q -192 1007 -192 913 l -97 1007 z "},"̇":{"ha":0,"x_min":-75,"x_max":76,"o":"m -57 968 q 0 985 -39 985 q 58 967 40 985 q 76 910 76 950 q 58 853 76 871 q 0 836 40 836 q -57 853 -39 836 q -75 910 -75 871 q -57 968 -75 950 z "},"̈":{"ha":0,"x_min":-199,"x_max":199,"o":"m 75 960 q 129 976 92 976 q 182 960 165 976 q 199 908 199 944 q 182 858 199 874 q 129 843 165 843 q 74 858 92 843 q 57 907 57 874 q 75 960 57 943 m -183 960 q -129 976 -168 976 q -76 960 -93 976 q -60 908 -60 944 q -76 858 -60 874 q -129 843 -93 843 q -183 858 -168 843 q -199 907 -199 874 q -183 960 -199 943 z "},"̉":{"ha":0,"x_min":-122,"x_max":143,"o":"m -61 1050 q 7 1058 -28 1058 q 108 1031 72 1058 q 143 961 143 1004 q 126 906 143 926 q 88 872 110 885 q 50 849 67 860 q 33 822 33 838 l 33 810 l -51 810 l -51 829 q -37 877 -51 861 q -4 903 -22 893 q 28 922 14 913 q 43 949 43 932 q -8 979 43 979 q -65 971 -36 979 q -122 950 -94 963 l -122 1032 q -61 1050 -94 1042 z "},"̊":{"ha":0,"x_min":-151,"x_max":149,"o":"m -112 1025 q 0 1060 -72 1060 q 109 1026 69 1060 q 149 922 149 992 q 109 820 149 857 q 0 783 69 783 q -112 820 -72 783 q -151 924 -151 857 q -112 1025 -151 989 m -50 874 q 0 857 -35 857 q 65 922 65 857 q 0 989 65 989 q -65 924 -65 989 q -50 874 -65 889 z "},"̋":{"ha":0,"x_min":-199,"x_max":196,"o":"m -199 813 l -118 1007 l 3 1007 l -104 813 l -199 813 m 74 1007 l 196 1007 l 88 813 l -3 813 l 74 1007 z "},"̌":{"ha":0,"x_min":-186,"x_max":186,"o":"m -186 1007 l -81 1007 l 1 890 l 83 1007 l 186 1007 l 64 813 l -64 813 l -186 1007 z "},"̍":{"ha":0,"x_min":-47,"x_max":47,"o":"m 47 1007 l 47 768 l -47 768 l -47 1007 l 47 1007 z "},"̎":{"ha":0,"x_min":-146,"x_max":144,"o":"m 144 1007 l 144 768 l 46 768 l 46 1007 l 144 1007 m -50 1007 l -50 768 l -146 768 l -146 1007 l -50 1007 z "},"̏":{"ha":0,"x_min":-197,"x_max":197,"o":"m -74 1007 l 4 813 l -89 813 l -197 1007 l -74 1007 m -3 1007 l 115 1007 l 197 813 l 104 813 l -3 1007 z "},"̐":{"ha":0,"x_min":-192,"x_max":192,"o":"m -97 996 q -73 920 -97 944 q 0 896 -49 896 q 72 919 49 896 q 94 986 94 942 q 94 996 94 990 l 192 996 q 141 855 192 903 q 0 807 90 807 q -142 855 -92 807 q -192 996 -192 903 l -97 996 m -54 1156 q 0 1172 -35 1172 q 56 1156 39 1172 q 72 1100 72 1139 q 56 1047 72 1064 q 0 1031 39 1031 q -53 1047 -35 1031 q -72 1100 -72 1064 q -54 1156 -72 1139 z "},"̑":{"ha":0,"x_min":-192,"x_max":192,"o":"m -192 814 q -142 959 -192 910 q 0 1008 -92 1008 q 141 959 90 1008 q 192 814 192 910 l 94 814 q 71 893 94 868 q 0 918 47 918 q -71 892 -47 918 q -97 814 -94 867 l -192 814 z "},"̒":{"ha":0,"x_min":-72,"x_max":64,"o":"m -72 803 q -50 910 -64 857 q -17 1007 -36 963 l 64 1007 q 50 903 54 954 q 44 803 46 851 l -72 803 z "},"̓":{"ha":0,"x_min":-72,"x_max":64,"o":"m -60 908 q -54 1007 -56 958 l 64 1007 q 41 901 54 953 q 10 803 28 849 l -72 803 q -60 908 -64 857 z "},"̔":{"ha":0,"x_min":-71,"x_max":68,"o":"m 47 1007 q 53 908 50 958 q 68 803 57 857 l -14 803 q -49 901 -35 849 q -71 1007 -62 953 l 47 1007 z "},"̕":{"ha":0,"x_min":-72,"x_max":64,"o":"m -60 908 q -54 1007 -56 958 l 64 1007 q 41 901 54 953 q 10 803 28 849 l -72 803 q -60 908 -64 857 z "},"̖":{"ha":0,"x_min":-125,"x_max":124,"o":"m 8 -100 l 124 -294 l 15 -294 l -125 -100 l 8 -100 z "},"̗":{"ha":0,"x_min":-125,"x_max":125,"o":"m -10 -100 l 125 -100 l -17 -294 l -125 -294 l -10 -100 z "},"̘":{"ha":0,"x_min":-122,"x_max":121,"o":"m -122 -258 l -122 -178 l 35 -178 l 35 -100 l 121 -100 l 121 -337 l 35 -337 l 35 -258 l -122 -258 z "},"̙":{"ha":0,"x_min":-122,"x_max":121,"o":"m -122 -337 l -122 -100 l -35 -100 l -35 -178 l 121 -178 l 121 -258 l -35 -258 l -35 -337 l -122 -337 z "},"̚":{"ha":0,"x_min":-272,"x_max":274,"o":"m 274 1068 l 274 793 l 183 793 l 183 989 l -272 989 l -272 1068 l 274 1068 z "},"̛":{"ha":0,"x_min":158,"x_max":451,"o":"m 208 714 q 315 744 290 714 q 340 835 340 775 l 340 869 l 451 869 l 451 835 q 401 681 451 738 q 250 624 351 624 l 158 624 l 158 714 l 208 714 z "},"̜":{"ha":0,"x_min":-75,"x_max":75,"o":"m -36 -119 q 75 -83 4 -83 l 75 -156 q 23 -172 39 -156 q 7 -219 7 -187 q 23 -270 7 -254 q 75 -286 39 -286 l 75 -360 q -35 -323 4 -360 q -75 -219 -75 -286 q -36 -119 -75 -154 z "},"̝":{"ha":0,"x_min":-119,"x_max":121,"o":"m -119 -260 l -40 -260 l -40 -97 l 44 -97 l 44 -260 l 121 -260 l 121 -340 l -119 -340 l -119 -260 z "},"̞":{"ha":0,"x_min":-119,"x_max":121,"o":"m -119 -97 l 121 -97 l 121 -176 l 44 -176 l 44 -340 l -40 -340 l -40 -176 l -119 -176 l -119 -97 z "},"̟":{"ha":0,"x_min":-119,"x_max":121,"o":"m -119 -178 l -40 -178 l -40 -97 l 44 -97 l 44 -178 l 121 -178 l 121 -257 l 44 -257 l 44 -340 l -40 -340 l -40 -257 l -119 -257 l -119 -178 z "},"̠":{"ha":0,"x_min":-197,"x_max":199,"o":"m 199 -97 l 199 -176 l -197 -176 l -197 -97 l 199 -97 z "},"̡":{"ha":0,"x_min":-154,"x_max":138,"o":"m -97 -210 q -43 -215 -68 -215 q 14 -200 -3 -215 q 31 -160 31 -185 q 17 -111 31 -133 q -17 -64 4 -89 l -71 3 l -10 58 l 72 -36 q 120 -106 103 -71 q 138 -178 138 -142 q 94 -268 138 -236 q -28 -300 50 -300 q -95 -294 -62 -300 q -154 -279 -128 -289 l -154 -194 q -97 -210 -126 -204 z "},"̢":{"ha":0,"x_min":-137,"x_max":143,"o":"m -137 -182 q -119 -112 -137 -146 q -60 -40 -100 -79 l 61 76 l 94 3 l 28 -64 q -17 -119 -4 -96 q -29 -161 -29 -142 q 32 -206 -29 -206 q 81 -200 51 -206 q 143 -183 110 -194 l 143 -279 q 83 -294 115 -287 q 14 -300 50 -300 q -98 -270 -58 -300 q -137 -182 -137 -240 z "},"̣":{"ha":0,"x_min":-76,"x_max":76,"o":"m -58 -131 q 0 -112 -39 -112 q 58 -131 40 -112 q 76 -189 76 -149 q 58 -245 76 -228 q 0 -262 40 -262 q -58 -245 -39 -262 q -76 -189 -76 -228 q -58 -131 -76 -149 z "},"̤":{"ha":0,"x_min":-199,"x_max":199,"o":"m 75 -132 q 129 -115 92 -115 q 182 -131 165 -115 q 199 -183 199 -147 q 182 -233 199 -217 q 129 -249 165 -249 q 74 -233 92 -249 q 57 -183 57 -217 q 75 -132 57 -147 m -183 -132 q -129 -115 -168 -115 q -76 -131 -93 -115 q -60 -183 -60 -147 q -76 -233 -60 -217 q -129 -249 -93 -249 q -183 -233 -168 -249 q -199 -183 -199 -217 q -183 -132 -199 -147 z "},"̥":{"ha":0,"x_min":-151,"x_max":149,"o":"m -112 -119 q 0 -83 -72 -83 q 109 -118 69 -83 q 149 -221 149 -153 q 109 -323 149 -286 q 0 -360 69 -360 q -112 -323 -72 -360 q -151 -219 -151 -286 q -112 -119 -151 -154 m -65 -219 q -65 -225 -65 -222 q -50 -271 -65 -256 q 0 -286 -35 -286 q 51 -268 35 -286 q 65 -226 65 -254 q 65 -221 65 -224 q 65 -215 65 -218 q 51 -174 65 -187 q 0 -156 35 -156 q -53 -174 -36 -156 q -65 -214 -65 -187 q -65 -219 -65 -217 z "},"̦":{"ha":0,"x_min":-68,"x_max":65,"o":"m -56 -199 q -50 -100 -51 -147 l 65 -100 q 44 -206 58 -154 q 13 -303 31 -257 l -68 -303 q -56 -199 -60 -250 z "},"̧":{"ha":0,"x_min":-154,"x_max":131,"o":"m -92 -201 q -42 -206 -62 -206 q 7 -194 -8 -206 q 22 -160 22 -182 q 10 -117 22 -140 q -36 -60 -3 -93 l -94 0 l -53 74 l 56 -39 q 112 -110 93 -76 q 131 -181 131 -143 q 90 -269 131 -239 q -24 -300 50 -300 q -93 -294 -60 -300 q -154 -279 -126 -287 l -154 -183 q -92 -201 -121 -196 z "},"̨":{"ha":0,"x_min":-143,"x_max":138,"o":"m -143 -182 q -124 -112 -143 -146 q -65 -40 -106 -79 l 56 76 l 89 3 l 22 -64 q -22 -119 -10 -96 q -35 -161 -35 -142 q -20 -194 -35 -183 q 26 -206 -6 -206 q 76 -200 47 -206 q 138 -183 104 -194 l 138 -279 q 76 -294 110 -287 q 7 -300 43 -300 q -104 -270 -65 -300 q -143 -182 -143 -240 z "},"̩":{"ha":0,"x_min":-50,"x_max":49,"o":"m 49 -99 l 49 -337 l -50 -337 l -50 -99 l 49 -99 z "},"̪":{"ha":0,"x_min":-197,"x_max":199,"o":"m -197 -97 l 199 -97 l 199 -336 l 108 -336 l 108 -176 l -111 -176 l -111 -336 l -197 -336 l -197 -97 z "},"̫":{"ha":0,"x_min":-337,"x_max":336,"o":"m -337 -119 l -242 -119 q -217 -199 -242 -175 q -144 -224 -193 -224 q -47 -119 -47 -224 l 46 -119 q 69 -199 46 -175 q 143 -224 93 -224 q 239 -119 239 -224 l 336 -119 q 286 -265 336 -217 q 143 -314 236 -314 q 14 -265 58 -314 q 0 -247 6 -257 q -14 -265 -7 -257 q -146 -314 -60 -314 q -286 -265 -235 -314 q -337 -119 -337 -217 z "},"̬":{"ha":0,"x_min":-186,"x_max":186,"o":"m -186 -119 l -81 -119 l 1 -236 l 83 -119 l 186 -119 l 64 -314 l -64 -314 l -186 -119 z "},"̭":{"ha":0,"x_min":-186,"x_max":186,"o":"m -186 -314 l -64 -119 l 64 -119 l 186 -314 l 81 -314 l -3 -197 l -83 -314 l -186 -314 z "},"̮":{"ha":0,"x_min":-192,"x_max":192,"o":"m -97 -119 q -73 -199 -97 -175 q 0 -224 -49 -224 q 94 -119 94 -224 l 192 -119 q 141 -265 192 -217 q 0 -314 90 -314 q -142 -265 -92 -314 q -192 -119 -192 -217 l -97 -119 z "},"̯":{"ha":0,"x_min":-192,"x_max":192,"o":"m -192 -314 q -142 -169 -192 -218 q 0 -119 -92 -119 q 141 -169 90 -119 q 192 -314 192 -218 l 94 -314 q 71 -235 94 -258 q 0 -211 47 -211 q -72 -235 -47 -211 q -97 -314 -97 -260 l -192 -314 z "},"̰":{"ha":0,"x_min":-211,"x_max":210,"o":"m -179 -150 q -90 -107 -146 -107 q -42 -117 -65 -107 q 4 -142 -18 -126 l 25 -156 q 53 -173 40 -165 q 78 -181 65 -181 q 106 -166 94 -181 q 118 -121 118 -151 l 210 -121 q 178 -232 210 -189 q 90 -275 146 -275 q 42 -266 65 -275 q -4 -242 19 -257 l -28 -225 q -53 -209 -42 -217 q -78 -201 -65 -201 q -106 -217 -94 -201 q -118 -262 -118 -232 l -211 -262 q -179 -150 -211 -193 z "},"̱":{"ha":0,"x_min":-197,"x_max":199,"o":"m 199 -158 l 199 -244 l -197 -244 l -197 -158 l 199 -158 z "},"̲":{"ha":0,"x_min":-272,"x_max":274,"o":"m 274 -158 l 274 -244 l -272 -244 l -272 -158 l 274 -158 z "},"̳":{"ha":0,"x_min":-272,"x_max":274,"o":"m 274 -253 l 274 -336 l -272 -336 l -272 -253 l 274 -253 m -272 -154 l -272 -71 l 274 -71 l 274 -154 l -272 -154 z "},"̴":{"ha":0,"x_min":-211,"x_max":210,"o":"m -179 403 q -90 446 -146 446 q -42 436 -65 446 q 4 411 -18 426 l 25 397 q 53 380 40 388 q 78 372 65 372 q 106 387 94 372 q 118 432 118 401 l 210 432 q 178 321 210 364 q 90 278 146 278 q 42 287 65 278 q -4 311 19 296 l -28 328 q -53 344 -42 336 q -78 351 -65 351 q -106 336 -94 351 q -118 290 -118 321 l -211 290 q -179 403 -211 360 z "},"̵":{"ha":0,"x_min":-197,"x_max":199,"o":"m 199 461 l 199 413 l -197 413 l -197 461 l 199 461 z "},"̶":{"ha":0,"x_min":-272,"x_max":274,"o":"m 274 461 l 274 413 l -272 413 l -272 461 l 274 461 z "},"̷":{"ha":0,"x_min":-265,"x_max":265,"o":"m 226 729 l 265 703 l -225 -14 l -265 10 l 226 729 z "},"̸":{"ha":0,"x_min":-300,"x_max":301,"o":"m 260 969 l 301 946 l -260 -14 l -300 8 l 260 969 z "},"̹":{"ha":0,"x_min":-75,"x_max":75,"o":"m -75 -286 q -22 -270 -37 -286 q -6 -222 -6 -254 q -22 -172 -6 -187 q -75 -156 -37 -156 l -75 -83 q 35 -119 -4 -83 q 75 -222 75 -156 q 35 -324 75 -287 q -75 -360 -4 -360 l -75 -286 z "},"̺":{"ha":0,"x_min":-197,"x_max":199,"o":"m -108 -97 l -108 -257 l 111 -257 l 111 -97 l 199 -97 l 199 -336 l -197 -336 l -197 -97 l -108 -97 z "},"̻":{"ha":0,"x_min":-131,"x_max":131,"o":"m -131 -336 l -131 -97 l 131 -97 l 131 -336 l -131 -336 m -46 -264 l 50 -264 l 50 -171 l -46 -171 l -46 -264 z "},"̼":{"ha":0,"x_min":-335,"x_max":338,"o":"m -278 -139 q -142 -97 -231 -97 q -12 -146 -57 -97 q 1 -165 -4 -156 q 17 -146 8 -156 q 146 -97 61 -97 q 279 -138 232 -97 q 338 -261 326 -179 l 242 -261 q 210 -204 232 -221 q 146 -187 188 -187 q 72 -212 97 -187 q 47 -286 47 -237 l 47 -319 l -43 -319 l -43 -286 q -67 -212 -43 -237 q -142 -187 -92 -187 q -206 -205 -185 -187 q -237 -261 -228 -222 l -335 -261 q -278 -139 -324 -179 z "},"̽":{"ha":0,"x_min":-122,"x_max":126,"o":"m -54 911 l -121 976 l -62 1033 l 3 968 l 69 1035 l 126 978 l 60 911 l 126 844 l 69 789 l 3 854 l -65 788 l -122 844 l -54 911 z "},"̾":{"ha":0,"x_min":-117,"x_max":74,"o":"m -76 1217 q 38 1251 -35 1251 l 38 1181 q -17 1167 3 1181 q -36 1129 -36 1153 q -19 1079 -36 1101 q 19 1034 -3 1057 q 57 981 40 1011 q 74 910 74 951 q 34 818 74 853 q -79 783 -6 783 l -79 856 q -23 869 -40 856 q -6 907 -6 883 q -22 957 -6 935 q -61 1002 -39 979 q -100 1053 -83 1025 q -117 1124 -117 1082 q -76 1217 -117 1182 z "},"̿":{"ha":0,"x_min":-272,"x_max":274,"o":"m 274 888 l 274 804 l -272 804 l -272 888 l 274 888 m -272 986 l -272 1069 l 274 1069 l 274 986 l -272 986 z "},"̀":{"ha":0,"x_min":-203,"x_max":47,"o":"m -67 1007 l 47 813 l -60 813 l -203 1007 l -67 1007 z "},"́":{"ha":0,"x_min":-51,"x_max":201,"o":"m 63 1007 l 201 1007 l 56 813 l -51 813 l 63 1007 z "},"͂":{"ha":0,"x_min":-212,"x_max":208,"o":"m -179 953 q -90 996 -146 996 q -43 986 -67 996 q 3 961 -19 976 l 24 947 q 51 930 39 938 q 76 922 64 922 q 105 937 93 922 q 117 981 117 951 l 208 981 q 176 870 208 913 q 89 828 144 828 q 41 837 64 828 q -6 861 18 846 l -29 876 q -55 893 -43 886 q -79 900 -67 900 q -107 885 -96 900 q -118 840 -118 871 l -212 840 q -179 953 -212 910 z "},"̓":{"ha":0,"x_min":-43,"x_max":89,"o":"m -31 913 q -26 1007 -28 961 l 89 1007 q 69 906 83 956 q 38 813 54 856 l -43 813 q -31 913 -33 863 z "},"̈́":{"ha":0,"x_min":-199,"x_max":200,"o":"m -60 1007 l 57 1192 l 193 1192 l 49 1007 l -60 1007 m 60 889 q 76 941 60 925 q 129 957 92 957 q 183 941 167 957 q 200 889 200 925 q 183 839 200 854 q 129 824 167 824 q 76 839 92 824 q 60 889 60 854 m -182 942 q -129 957 -165 957 q -76 941 -93 957 q -60 889 -60 925 q -76 839 -60 854 q -129 824 -93 824 q -182 839 -165 824 q -199 889 -199 854 q -182 942 -199 925 z "},"ͅ":{"ha":0,"x_min":-60,"x_max":57,"o":"m 57 -340 l -60 -340 l -46 -97 l 46 -97 l 57 -340 z "},"͆":{"ha":0,"x_min":-197,"x_max":199,"o":"m -197 1007 l 199 1007 l 199 767 l 108 767 l 108 928 l -111 928 l -111 767 l -197 767 l -197 1007 z "},"͇":{"ha":0,"x_min":-272,"x_max":274,"o":"m 274 -253 l 274 -336 l -272 -336 l -272 -253 l 274 -253 m -272 -154 l -272 -71 l 274 -71 l 274 -154 l -272 -154 z "},"͈":{"ha":0,"x_min":-146,"x_max":144,"o":"m 144 -97 l 144 -335 l 46 -335 l 46 -97 l 144 -97 m -50 -97 l -50 -335 l -146 -335 l -146 -97 l -50 -97 z "},"͉":{"ha":0,"x_min":-119,"x_max":121,"o":"m 121 -97 l 121 -340 l 33 -340 l 33 -176 l -119 -176 l -119 -97 l 121 -97 z "},"͊":{"ha":0,"x_min":-212,"x_max":208,"o":"m -179 953 q -90 996 -146 996 q -43 986 -67 996 q -1 964 -22 978 l 46 1074 l 88 1056 l 38 938 q 51 931 44 933 q 76 922 64 922 q 105 937 93 922 q 117 981 117 951 l 208 981 q 176 870 208 913 q 89 828 144 828 q 42 838 64 828 q 3 856 22 844 l -44 742 l -89 760 l -36 882 q -54 893 -46 888 q -79 900 -67 900 q -107 885 -96 900 q -118 840 -118 871 l -212 840 q -179 953 -212 910 z "},"͋":{"ha":0,"x_min":-212,"x_max":208,"o":"m -212 840 q -179 953 -212 910 q -90 996 -146 996 q -43 986 -67 996 q 3 961 -19 976 l 24 947 q 51 930 39 938 q 76 922 64 922 q 105 937 93 922 q 117 981 117 951 l 208 981 q 176 870 208 913 q 89 828 144 828 q 41 837 64 828 q -6 861 18 846 l -29 876 q -55 893 -43 886 q -79 900 -67 900 q -107 885 -96 900 q -118 840 -118 871 l -212 840 m -15 1061 q 3 1115 -15 1099 q 58 1132 21 1132 q 114 1115 97 1132 q 131 1061 131 1099 q 114 1008 131 1025 q 58 992 97 992 q 3 1008 21 992 q -15 1061 -15 1025 m -135 760 q -117 815 -135 799 q -61 831 -99 831 q -5 815 -21 831 q 11 760 11 799 q -5 708 11 725 q -61 692 -21 692 q -117 708 -99 692 q -135 760 -135 725 z "},"͌":{"ha":0,"x_min":-212,"x_max":208,"o":"m -212 744 q -179 857 -212 814 q -90 900 -146 900 q -43 890 -67 900 q 3 865 -19 881 l 24 851 q 51 834 39 842 q 76 826 64 826 q 105 841 93 826 q 117 886 117 856 l 208 886 q 176 775 208 818 q 89 732 144 732 q 41 741 64 732 q -6 765 18 750 l -29 782 q -55 798 -43 790 q -79 806 -67 806 q -107 790 -96 806 q -118 744 -118 775 l -212 744 m -212 936 q -179 1048 -212 1006 q -90 1090 -146 1090 q -43 1081 -67 1090 q 3 1056 -19 1071 l 24 1042 q 51 1025 39 1032 q 76 1018 64 1018 q 105 1033 93 1018 q 117 1076 117 1047 l 208 1076 q 176 965 208 1008 q 89 922 144 922 q 41 931 64 922 q -6 956 18 940 l -29 972 q -55 989 -43 982 q -79 996 -67 996 q -107 981 -96 996 q -118 936 -118 967 l -212 936 z "},"͍":{"ha":0,"x_min":-179,"x_max":183,"o":"m -179 -217 l -89 -121 l -89 -176 l 93 -176 l 93 -121 l 183 -217 l 93 -311 l 93 -257 l -89 -257 l -89 -311 l -179 -217 z "},"͎":{"ha":0,"x_min":-93,"x_max":97,"o":"m -93 -185 l 0 -97 l 97 -185 l 44 -185 l 44 -340 l -40 -340 l -40 -185 l -93 -185 z "},"͏":{"ha":0,"x_min":0,"x_max":0,"o":""},"͐":{"ha":0,"x_min":-94,"x_max":99,"o":"m 99 949 l 99 878 l -94 756 l -94 836 l 22 913 l -94 989 l -94 1071 l 99 949 z "},"͑":{"ha":0,"x_min":-75,"x_max":75,"o":"m -36 1025 q 75 1060 4 1060 l 75 989 q 23 972 39 989 q 7 924 7 956 q 23 873 7 889 q 75 857 39 857 l 75 783 q -35 820 4 783 q -75 924 -75 857 q -36 1025 -75 989 z "},"͒":{"ha":0,"x_min":-192,"x_max":192,"o":"m -142 1135 q 0 1182 -92 1182 q 141 1134 90 1182 q 192 992 192 1086 l 94 992 q 71 1069 94 1044 q 0 1093 47 1093 q -97 992 -97 1093 l -192 992 q -142 1135 -192 1086 m -56 942 q 0 958 -37 958 q 54 942 36 958 q 72 889 72 925 q 54 834 72 851 q 0 817 36 817 q -55 834 -37 817 q -72 889 -72 851 q -56 942 -72 925 z "},"͓":{"ha":0,"x_min":-122,"x_max":126,"o":"m -54 -217 l -121 -151 l -62 -94 l 3 -160 l 69 -94 l 126 -150 l 60 -217 l 126 -283 l 69 -339 l 3 -274 l -65 -340 l -122 -285 l -54 -217 z "},"͔":{"ha":0,"x_min":-96,"x_max":100,"o":"m -96 -250 l -96 -179 l 100 -57 l 100 -136 l -19 -212 l 100 -290 l 100 -372 l -96 -250 z "},"͕":{"ha":0,"x_min":-97,"x_max":99,"o":"m 99 -179 l 99 -250 l -97 -372 l -97 -293 l 19 -217 l -97 -140 l -97 -57 l 99 -179 z "},"͖":{"ha":0,"x_min":-265,"x_max":265,"o":"m -265 -140 l -265 -57 l -68 -179 l -68 -250 l -265 -372 l -265 -293 l -146 -217 l -265 -140 m 69 -117 l 142 -117 l 265 -311 l 185 -311 l 107 -193 l 28 -311 l -51 -311 l 69 -117 z "},"͗":{"ha":0,"x_min":-75,"x_max":75,"o":"m -75 857 q -22 873 -37 857 q -6 922 -6 889 q -22 973 -6 957 q -75 989 -37 989 l -75 1060 q 35 1024 -4 1060 q 75 922 75 988 q 35 819 75 856 q -75 783 -4 783 l -75 857 z "},"͘":{"ha":0,"x_min":-75,"x_max":76,"o":"m -57 968 q 0 985 -39 985 q 58 967 40 985 q 76 910 76 950 q 58 853 76 871 q 0 836 40 836 q -57 853 -39 836 q -75 910 -75 871 q -57 968 -75 950 z "},"͙":{"ha":0,"x_min":-135,"x_max":132,"o":"m -40 -92 l 39 -92 l 22 -185 l 107 -139 l 132 -218 l 39 -231 l 108 -296 l 42 -344 l 0 -257 l -42 -346 l -107 -296 l -40 -231 l -135 -219 l -107 -140 l -24 -185 l -40 -92 z "},"͚":{"ha":0,"x_min":-258,"x_max":258,"o":"m -221 -119 q -114 -83 -182 -83 q -10 -118 -43 -83 q 1 -132 -4 -124 q 11 -118 6 -125 q 113 -83 44 -83 q 220 -119 182 -83 q 258 -221 258 -154 q 220 -323 258 -286 q 113 -360 182 -360 q 11 -322 44 -360 q 1 -310 6 -317 q -10 -322 -4 -317 q -114 -360 -43 -360 q -220 -323 -182 -360 q -258 -219 -258 -286 q -221 -119 -258 -154 m 56 -271 q 107 -286 72 -286 q 176 -221 176 -286 q 107 -156 176 -156 q 39 -219 39 -156 q 56 -271 39 -254 m -176 -219 q -159 -270 -176 -254 q -107 -286 -142 -286 q -40 -221 -40 -286 q -107 -156 -40 -156 q -159 -171 -142 -156 q -176 -219 -176 -186 z "},"͛":{"ha":0,"x_min":-165,"x_max":165,"o":"m 165 1007 l 165 926 l 119 801 l 31 801 l 76 926 l -165 926 l -165 1007 l -121 1132 l -33 1132 l -78 1007 l 165 1007 z "},"͜":{"ha":0,"x_min":-618,"x_max":618,"o":"m -507 -74 q -460 -190 -490 -137 q -376 -281 -431 -243 q -231 -338 -322 -318 q -1 -358 -140 -358 q 228 -338 138 -358 q 376 -281 319 -318 q 463 -191 432 -243 q 510 -74 493 -139 l 618 -74 q 561 -230 601 -160 q 449 -351 521 -300 q 266 -428 376 -401 q -1 -456 156 -456 q -272 -428 -161 -456 q -453 -349 -383 -400 q -562 -228 -524 -299 q -618 -74 -601 -158 l -507 -74 z "},"͝":{"ha":0,"x_min":-618,"x_max":618,"o":"m -507 1104 q -460 988 -490 1040 q -376 897 -431 935 q -231 838 -322 858 q -1 818 -140 818 q 228 838 138 818 q 376 896 319 858 q 463 986 432 933 q 510 1104 493 1039 l 618 1104 q 561 947 601 1017 q 449 826 521 876 q 266 748 376 775 q -1 721 156 721 q -272 749 -161 721 q -453 828 -383 776 q -562 949 -524 879 q -618 1104 -601 1019 l -507 1104 z "},"͞":{"ha":0,"x_min":-564,"x_max":564,"o":"m 564 936 l 564 850 l -564 850 l -564 936 l 564 936 z "},"͟":{"ha":0,"x_min":-564,"x_max":564,"o":"m 564 -179 l 564 -265 l -564 -265 l -564 -179 l 564 -179 z "},"͠":{"ha":0,"x_min":-618,"x_max":619,"o":"m -574 935 q -472 1036 -537 1000 q -308 1072 -407 1072 q -162 1049 -228 1072 q -40 991 -97 1025 q 74 922 18 957 q 189 864 129 888 q 318 840 249 840 q 420 863 382 840 q 478 929 458 886 q 507 1033 497 972 l 619 1033 q 573 879 608 944 q 473 778 538 814 q 308 742 408 742 q 165 765 229 742 q 42 823 100 789 q -71 892 -15 857 q -187 950 -126 926 q -318 974 -247 974 q -420 951 -382 974 q -478 885 -458 928 q -507 781 -497 842 l -618 781 q -574 935 -608 869 z "},"͡":{"ha":0,"x_min":-618,"x_max":618,"o":"m -618 721 q -562 876 -601 806 q -453 997 -524 946 q -272 1076 -383 1049 q -1 1104 -161 1104 q 266 1077 156 1104 q 449 999 376 1050 q 561 878 521 949 q 618 721 601 808 l 510 721 q 463 838 493 786 q 376 928 432 890 q 228 985 319 965 q -1 1006 138 1006 q -231 985 -140 1006 q -376 928 -322 965 q -460 838 -431 890 q -507 721 -490 786 l -618 721 z "},"͢":{"ha":0,"x_min":-581,"x_max":579,"o":"m -581 -265 l -581 -179 l 492 -179 l 492 -128 l 579 -224 l 492 -319 l 492 -265 l -581 -265 z "},"ͣ":{"ha":0,"x_min":-140,"x_max":140,"o":"m -140 918 q -110 1001 -140 975 q -25 1028 -81 1028 l 68 1028 l 68 1065 q 53 1113 68 1097 q 0 1128 38 1128 q -56 1123 -26 1128 q -115 1110 -86 1118 l -115 1171 q -50 1185 -83 1179 q 8 1190 -17 1190 q 108 1165 75 1190 q 140 1078 140 1139 l 140 821 l 69 821 l 69 864 q 33 836 51 846 q -42 814 -3 814 q -112 840 -85 814 q -140 918 -140 865 m -56 882 q -17 869 -42 869 q 31 885 4 869 q 68 913 49 894 l 68 976 l -8 976 q -54 965 -39 976 q -69 925 -69 953 q -56 882 -69 894 z "},"ͤ":{"ha":0,"x_min":-147,"x_max":147,"o":"m -108 1143 q 6 1190 -68 1190 q 111 1152 75 1190 q 147 1033 147 1114 q 147 1010 147 1024 q 143 985 146 996 l -71 985 q -47 903 -68 926 q 28 874 -25 874 q 78 878 56 874 q 128 889 101 882 l 128 828 q 80 818 106 822 q 24 814 54 814 q -106 859 -64 814 q -147 1004 -147 904 q -108 1143 -147 1096 m -69 1036 l 75 1036 l 75 1039 q 57 1112 75 1090 q 4 1133 39 1133 q -53 1104 -35 1133 q -69 1036 -67 1081 z "},"ͥ":{"ha":0,"x_min":-43,"x_max":42,"o":"m -36 1182 l 35 1182 l 35 821 l -36 821 l -36 1182 m -43 1279 q 0 1322 -43 1322 q 42 1279 42 1322 q 0 1239 42 1239 q -43 1279 -43 1239 z "},"ͦ":{"ha":0,"x_min":-154,"x_max":154,"o":"m -154 1004 q 0 1190 -154 1190 q 154 1003 154 1190 q 0 814 154 814 q -154 1004 -154 814 m -76 1004 q -58 904 -76 935 q 0 874 -40 874 q 58 904 40 874 q 76 1003 76 935 q 58 1101 76 1071 q 0 1131 40 1131 q -58 1101 -40 1131 q -76 1004 -76 1072 z "},"ͧ":{"ha":0,"x_min":-142,"x_max":143,"o":"m -142 919 l -142 1182 l -68 1182 l -68 935 q -17 879 -68 879 q 33 889 7 879 q 68 904 50 894 l 68 1182 l 143 1182 l 143 821 l 72 821 l 72 858 q 22 831 47 842 q -50 814 -14 814 q -117 840 -93 814 q -142 919 -142 867 z "},"ͨ":{"ha":0,"x_min":-122,"x_max":124,"o":"m -83 1146 q 32 1190 -44 1190 q 80 1186 57 1190 q 121 1175 103 1182 l 121 1113 q 77 1125 99 1121 q 35 1129 56 1129 q -28 1101 -7 1129 q -49 1004 -49 1074 q -26 903 -49 932 q 43 874 -4 874 q 82 877 61 874 q 124 888 103 881 l 124 826 q 78 817 101 821 q 35 814 56 814 q -85 861 -47 814 q -122 1004 -122 908 q -83 1146 -122 1100 z "},"ͩ":{"ha":0,"x_min":-153,"x_max":150,"o":"m -153 1000 q -111 1148 -153 1106 q -1 1190 -69 1190 q 71 1181 35 1190 l 76 1178 l 76 1321 l 150 1321 l 150 821 l 79 821 l 79 857 q 33 829 56 840 q -28 814 1 814 q -118 854 -83 814 q -153 1000 -153 894 m -57 904 q -3 875 -37 875 q 42 888 15 875 q 76 906 57 894 l 76 1117 q 50 1125 63 1122 q 0 1131 26 1131 q -58 1102 -39 1131 q -76 1000 -76 1074 q -57 904 -76 932 z "},"ͪ":{"ha":0,"x_min":-146,"x_max":144,"o":"m -146 1321 l -71 1321 l -71 1147 q -22 1175 -47 1164 q 49 1190 13 1190 q 119 1164 94 1190 q 144 1082 144 1138 l 144 821 l 69 821 l 69 1068 q 19 1124 69 1124 q -32 1114 -4 1124 q -71 1097 -50 1107 l -71 821 l -146 821 l -146 1321 z "},"ͫ":{"ha":0,"x_min":-249,"x_max":247,"o":"m -249 1182 l -178 1182 l -178 1144 q -129 1175 -153 1163 q -57 1190 -96 1190 q 13 1164 -12 1190 q 25 1144 19 1156 q 82 1175 51 1163 q 153 1190 117 1190 q 222 1164 197 1190 q 247 1082 247 1138 l 247 821 l 174 821 l 174 1068 q 122 1124 174 1124 q 72 1114 97 1124 q 36 1097 56 1107 l 36 821 l -36 821 l -36 1068 q -87 1124 -36 1124 q -136 1114 -110 1124 q -175 1097 -154 1107 l -175 821 l -249 821 l -249 1182 z "},"ͬ":{"ha":0,"x_min":-96,"x_max":97,"o":"m -26 1182 l -26 1138 q 19 1174 -1 1161 q 78 1190 47 1190 q 88 1190 82 1190 q 97 1188 94 1189 l 97 1121 q 22 1113 50 1121 q -21 1092 1 1107 l -21 821 l -96 821 l -96 1182 l -26 1182 z "},"ͭ":{"ha":0,"x_min":-118,"x_max":118,"o":"m -60 1182 l -46 1274 l 13 1274 l 13 1182 l 118 1182 l 118 1125 l 13 1125 l 13 924 q 23 885 13 896 q 56 875 33 875 q 88 877 72 875 q 117 883 103 879 l 117 822 q 78 816 97 818 q 42 814 58 814 q -35 836 -10 814 q -61 915 -61 858 l -61 1125 l -118 1125 l -118 1182 l -60 1182 z "},"ͮ":{"ha":0,"x_min":-160,"x_max":160,"o":"m -85 1182 l 1 893 l 88 1182 l 160 1182 l 43 821 l -44 821 l -160 1182 l -85 1182 z "},"ͯ":{"ha":0,"x_min":-154,"x_max":154,"o":"m -154 821 l -40 1007 l -147 1182 l -65 1182 l 1 1058 l 69 1182 l 146 1182 l 40 1007 l 154 821 l 74 821 l -1 953 l -75 821 l -154 821 z "},"À":{"ha":896,"x_min":64,"x_max":833,"o":"m 64 0 q 118 217 86 99 q 191 463 150 335 q 278 719 232 590 q 376 969 325 849 l 521 969 q 619 719 572 849 q 706 463 665 590 q 778 217 746 335 q 833 0 811 99 l 704 0 q 657 206 686 92 q 644 249 650 226 l 247 249 q 236 206 242 226 q 188 0 207 92 l 64 0 m 276 353 l 615 353 q 590 442 603 396 q 511 689 553 565 q 446 872 479 785 q 382 689 414 785 q 303 442 340 565 q 276 353 289 396 m 388 1238 l 503 1043 l 394 1043 l 251 1238 l 388 1238 z "},"Á":{"ha":896,"x_min":64,"x_max":833,"o":"m 64 0 q 118 217 86 99 q 191 463 150 335 q 278 719 232 590 q 376 969 325 849 l 521 969 q 619 719 572 849 q 706 463 665 590 q 778 217 746 335 q 833 0 811 99 l 704 0 q 657 206 686 92 q 644 249 650 226 l 247 249 q 236 206 242 226 q 188 0 207 92 l 64 0 m 276 353 l 615 353 q 590 442 603 396 q 511 689 553 565 q 446 872 479 785 q 382 689 414 785 q 303 442 340 565 q 276 353 289 396 m 513 1238 l 650 1238 l 507 1043 l 397 1043 l 513 1238 z "},"Â":{"ha":896,"x_min":64,"x_max":833,"o":"m 64 0 q 118 217 86 99 q 191 463 150 335 q 278 719 232 590 q 376 969 325 849 l 521 969 q 619 719 572 849 q 706 463 665 590 q 778 217 746 335 q 833 0 811 99 l 704 0 q 657 206 686 92 q 644 249 650 226 l 247 249 q 236 206 242 226 q 188 0 207 92 l 64 0 m 276 353 l 615 353 q 590 442 603 396 q 511 689 553 565 q 446 872 479 785 q 382 689 414 785 q 303 442 340 565 q 276 353 289 396 m 263 1043 l 386 1238 l 514 1238 l 636 1043 l 532 1043 l 447 1160 l 364 1043 l 263 1043 z "},"Ã":{"ha":896,"x_min":64,"x_max":833,"o":"m 64 0 q 118 217 86 99 q 191 463 150 335 q 278 719 232 590 q 376 969 325 849 l 521 969 q 619 719 572 849 q 706 463 665 590 q 778 217 746 335 q 833 0 811 99 l 704 0 q 657 206 686 92 q 644 249 650 226 l 247 249 q 236 206 242 226 q 188 0 207 92 l 64 0 m 276 353 l 615 353 q 590 442 603 396 q 511 689 553 565 q 446 872 479 785 q 382 689 414 785 q 303 442 340 565 q 276 353 289 396 m 272 1183 q 360 1226 304 1226 q 408 1217 385 1226 q 454 1192 432 1207 l 475 1178 q 503 1160 490 1168 q 528 1153 515 1153 q 556 1167 544 1153 q 568 1211 568 1182 l 660 1211 q 628 1101 660 1143 q 540 1058 596 1058 q 492 1067 515 1058 q 446 1092 469 1076 l 422 1107 q 397 1124 408 1117 q 372 1131 385 1131 q 344 1116 356 1131 q 332 1071 332 1101 l 239 1071 q 272 1183 239 1140 z "},"Ä":{"ha":896,"x_min":64,"x_max":833,"o":"m 64 0 q 118 217 86 99 q 191 463 150 335 q 278 719 232 590 q 376 969 325 849 l 521 969 q 619 719 572 849 q 706 463 665 590 q 778 217 746 335 q 833 0 811 99 l 704 0 q 657 206 686 92 q 644 249 650 226 l 247 249 q 236 206 242 226 q 188 0 207 92 l 64 0 m 276 353 l 615 353 q 590 442 603 396 q 511 689 553 565 q 446 872 479 785 q 382 689 414 785 q 303 442 340 565 q 276 353 289 396 m 521 1192 q 574 1208 536 1208 q 628 1192 611 1208 q 644 1139 644 1175 q 628 1090 644 1106 q 574 1074 611 1074 q 520 1090 536 1074 q 504 1139 504 1106 q 521 1192 504 1175 m 260 1192 q 313 1208 275 1208 q 365 1192 349 1208 q 382 1139 382 1175 q 365 1090 382 1106 q 313 1074 349 1074 q 260 1090 275 1074 q 244 1139 244 1106 q 260 1192 244 1175 z "},"Å":{"ha":896,"x_min":64,"x_max":833,"o":"m 64 0 q 118 217 86 99 q 191 463 150 335 q 279 719 232 590 q 356 919 315 822 q 336 935 344 926 q 296 1038 296 971 q 336 1138 296 1103 q 449 1174 376 1174 q 560 1139 522 1174 q 599 1036 599 1104 q 561 935 599 971 q 542 919 551 926 q 619 719 582 822 q 706 463 665 590 q 778 217 746 335 q 833 0 811 99 l 704 0 q 657 206 686 92 q 644 249 650 226 l 247 249 q 236 206 242 226 q 188 0 207 92 l 64 0 m 276 353 l 615 353 q 590 442 603 396 q 511 689 553 565 q 446 872 479 785 q 382 689 414 785 q 303 442 340 565 q 276 353 289 396 m 379 1038 q 397 986 379 1001 q 449 971 414 971 q 515 1036 515 971 q 500 1085 515 1069 q 449 1101 485 1101 q 379 1038 379 1101 z "},"Ā":{"ha":896,"x_min":64,"x_max":833,"o":"m 64 0 q 118 217 86 99 q 191 463 150 335 q 278 719 232 590 q 376 969 325 849 l 521 969 q 619 719 572 849 q 706 463 665 590 q 778 217 746 335 q 833 0 811 99 l 704 0 q 657 206 686 92 q 644 249 650 226 l 247 249 q 236 206 242 226 q 188 0 207 92 l 64 0 m 276 353 l 615 353 q 590 442 603 396 q 511 689 553 565 q 446 872 479 785 q 382 689 414 785 q 303 442 340 565 q 276 353 289 396 m 646 1168 l 646 1082 l 247 1082 l 247 1168 l 646 1168 z "},"Ă":{"ha":896,"x_min":64,"x_max":833,"o":"m 64 0 q 118 217 86 99 q 191 463 150 335 q 278 719 232 590 q 376 969 325 849 l 521 969 q 619 719 572 849 q 706 463 665 590 q 778 217 746 335 q 833 0 811 99 l 704 0 q 657 206 686 92 q 644 249 650 226 l 247 249 q 236 206 242 226 q 188 0 207 92 l 64 0 m 276 353 l 615 353 q 590 442 603 396 q 511 689 553 565 q 446 872 479 785 q 382 689 414 785 q 303 442 340 565 q 276 353 289 396 m 350 1238 q 374 1158 350 1183 q 449 1133 399 1133 q 521 1158 497 1133 q 544 1228 544 1182 q 544 1238 544 1232 l 642 1238 q 591 1093 642 1143 q 449 1043 540 1043 q 306 1093 358 1043 q 254 1238 254 1143 l 350 1238 z "},"Ą":{"ha":896,"x_min":64,"x_max":833,"o":"m 64 0 q 118 217 86 99 q 191 463 150 335 q 278 719 232 590 q 376 969 325 849 l 521 969 q 619 719 572 849 q 706 463 665 590 q 778 217 746 335 q 833 0 811 99 l 832 0 l 746 -68 q 685 -125 700 -103 q 669 -165 669 -147 q 681 -193 669 -182 q 725 -204 693 -204 q 769 -200 742 -204 q 832 -186 797 -196 l 832 -282 q 769 -294 803 -289 q 703 -300 736 -300 q 594 -269 628 -300 q 560 -186 560 -237 q 580 -116 560 -150 q 653 -42 600 -82 l 707 0 l 704 0 q 657 206 686 92 q 644 249 650 226 l 247 249 q 236 206 242 226 q 188 0 207 92 l 64 0 m 276 353 l 615 353 q 590 442 603 396 q 511 689 553 565 q 446 872 479 785 q 382 689 414 785 q 303 442 340 565 q 276 353 289 396 z "},"Ǎ":{"ha":896,"x_min":64,"x_max":833,"o":"m 64 0 q 118 217 86 99 q 191 463 150 335 q 278 719 232 590 q 376 969 325 849 l 521 969 q 619 719 572 849 q 706 463 665 590 q 778 217 746 335 q 833 0 811 99 l 704 0 q 657 206 686 92 q 644 249 650 226 l 247 249 q 236 206 242 226 q 188 0 207 92 l 64 0 m 276 353 l 615 353 q 590 442 603 396 q 511 689 553 565 q 446 872 479 785 q 382 689 414 785 q 303 442 340 565 q 276 353 289 396 m 263 1238 l 368 1238 l 451 1121 l 535 1238 l 636 1238 l 514 1043 l 386 1043 l 263 1238 z "},"Ǟ":{"ha":896,"x_min":64,"x_max":833,"o":"m 64 0 q 118 217 86 99 q 191 463 150 335 q 278 719 232 590 q 376 969 325 849 l 521 969 q 619 719 572 849 q 706 463 665 590 q 778 217 746 335 q 833 0 811 99 l 704 0 q 657 206 686 92 q 644 249 650 226 l 247 249 q 236 206 242 226 q 188 0 207 92 l 64 0 m 276 353 l 615 353 q 590 442 603 396 q 511 689 553 565 q 446 872 479 785 q 382 689 414 785 q 303 442 340 565 q 276 353 289 396 z "},"Ǡ":{"ha":896,"x_min":64,"x_max":833,"o":"m 64 0 q 118 217 86 99 q 191 463 150 335 q 278 719 232 590 q 376 969 325 849 l 521 969 q 619 719 572 849 q 706 463 665 590 q 778 217 746 335 q 833 0 811 99 l 704 0 q 657 206 686 92 q 644 249 650 226 l 247 249 q 236 206 242 226 q 188 0 207 92 l 64 0 m 276 353 l 615 353 q 590 442 603 396 q 511 689 553 565 q 446 872 479 785 q 382 689 414 785 q 303 442 340 565 q 276 353 289 396 m 250 1336 l 649 1336 l 649 1250 l 250 1250 l 250 1336 m 392 1171 q 449 1188 410 1188 q 507 1170 489 1188 q 525 1113 525 1153 q 507 1056 525 1074 q 449 1039 489 1039 q 391 1056 410 1039 q 372 1113 372 1074 q 392 1171 372 1153 z "},"Ǻ":{"ha":896,"x_min":64,"x_max":833,"o":"m 118 217 q 191 463 150 335 q 279 719 232 590 q 354 918 315 821 q 338 932 344 924 q 297 1035 297 968 q 338 1136 297 1100 q 415 1168 367 1161 l 504 1321 l 642 1321 l 510 1164 q 560 1138 539 1154 q 600 1033 600 1103 q 560 932 600 968 q 542 918 551 924 q 619 719 582 821 q 706 463 665 590 q 778 217 746 335 q 833 0 811 99 l 704 0 q 657 206 686 92 q 644 249 650 226 l 247 249 q 236 206 242 226 q 188 0 207 92 l 64 0 q 118 217 86 99 m 615 353 q 590 442 603 396 q 511 689 553 565 q 446 872 479 785 q 382 689 414 785 q 303 442 340 565 q 276 353 289 396 l 615 353 m 388 1035 q 403 985 388 1000 q 450 969 418 969 q 513 1033 513 969 q 450 1096 513 1096 q 388 1035 388 1096 z "},"Ȁ":{"ha":896,"x_min":64,"x_max":833,"o":"m 64 0 q 118 217 86 99 q 191 463 150 335 q 278 719 232 590 q 376 969 325 849 l 521 969 q 619 719 572 849 q 706 463 665 590 q 778 217 746 335 q 833 0 811 99 l 704 0 q 657 206 686 92 q 644 249 650 226 l 247 249 q 236 206 242 226 q 188 0 207 92 l 64 0 m 276 353 l 615 353 q 590 442 603 396 q 511 689 553 565 q 446 872 479 785 q 382 689 414 785 q 303 442 340 565 q 276 353 289 396 m 319 1238 l 400 1043 l 306 1043 l 197 1238 l 319 1238 m 394 1238 l 514 1238 l 593 1043 l 500 1043 l 394 1238 z "},"Ȃ":{"ha":896,"x_min":64,"x_max":833,"o":"m 64 0 q 118 217 86 99 q 191 463 150 335 q 278 719 232 590 q 376 969 325 849 l 521 969 q 619 719 572 849 q 706 463 665 590 q 778 217 746 335 q 833 0 811 99 l 704 0 q 657 206 686 92 q 644 249 650 226 l 247 249 q 236 206 242 226 q 188 0 207 92 l 64 0 m 276 353 l 615 353 q 590 442 603 396 q 511 689 553 565 q 446 872 479 785 q 382 689 414 785 q 303 442 340 565 q 276 353 289 396 m 253 1044 q 305 1190 253 1140 q 450 1239 357 1239 q 591 1190 540 1239 q 642 1044 642 1140 l 544 1044 q 520 1124 544 1099 q 450 1149 496 1149 q 375 1123 400 1149 q 350 1044 350 1097 l 253 1044 z "},"Ȧ":{"ha":896,"x_min":64,"x_max":833,"o":"m 64 0 q 118 217 86 99 q 191 463 150 335 q 278 719 232 590 q 376 969 325 849 l 521 969 q 619 719 572 849 q 706 463 665 590 q 778 217 746 335 q 833 0 811 99 l 704 0 q 657 206 686 92 q 644 249 650 226 l 247 249 q 236 206 242 226 q 188 0 207 92 l 64 0 m 276 353 l 615 353 q 590 442 603 396 q 511 689 553 565 q 446 872 479 785 q 382 689 414 785 q 303 442 340 565 q 276 353 289 396 m 388 1199 q 446 1217 406 1217 q 504 1199 486 1217 q 522 1142 522 1182 q 504 1085 522 1103 q 446 1068 486 1068 q 388 1085 406 1068 q 369 1140 369 1101 q 388 1199 369 1181 z "},"Ⱥ":{"ha":896,"x_min":63,"x_max":832,"o":"m 118 217 q 191 463 150 335 q 278 719 232 590 q 376 969 325 849 l 521 969 q 539 928 529 949 l 593 1135 l 681 1135 l 590 794 q 619 719 606 757 q 706 463 665 590 q 778 217 746 335 q 832 0 810 99 l 710 0 q 663 204 692 92 q 650 250 657 226 l 447 250 l 335 -176 l 247 -176 l 360 250 l 242 250 q 229 204 235 226 q 182 0 200 92 l 63 0 q 118 217 85 99 m 385 346 l 493 758 q 447 886 471 825 q 375 688 410 792 q 296 440 332 564 q 268 346 281 392 l 385 346 m 624 346 q 597 440 611 392 q 543 613 571 526 l 472 346 l 624 346 z "},"Ḁ":{"ha":896,"x_min":64,"x_max":833,"o":"m 64 0 q 118 217 86 99 q 191 463 150 335 q 278 719 232 590 q 376 969 325 849 l 521 969 q 619 719 572 849 q 706 463 665 590 q 778 217 746 335 q 833 0 811 99 l 704 0 q 657 206 686 92 q 644 249 650 226 l 247 249 q 236 206 242 226 q 188 0 207 92 l 64 0 m 276 353 l 615 353 q 590 442 603 396 q 511 689 553 565 q 446 872 479 785 q 382 689 414 785 q 303 442 340 565 q 276 353 289 396 m 338 -119 q 450 -83 378 -83 q 560 -118 519 -83 q 600 -221 600 -153 q 560 -323 600 -286 q 450 -360 519 -360 q 338 -323 378 -360 q 297 -219 297 -286 q 338 -119 297 -154 m 399 -271 q 450 -286 415 -286 q 517 -221 517 -286 q 501 -172 517 -189 q 450 -156 486 -156 q 381 -219 381 -156 q 399 -271 381 -254 z "},"Ạ":{"ha":896,"x_min":64,"x_max":833,"o":"m 64 0 q 118 217 86 99 q 191 463 150 335 q 278 719 232 590 q 376 969 325 849 l 521 969 q 619 719 572 849 q 706 463 665 590 q 778 217 746 335 q 833 0 811 99 l 704 0 q 657 206 686 92 q 644 249 650 226 l 247 249 q 236 206 242 226 q 188 0 207 92 l 64 0 m 276 353 l 615 353 q 590 442 603 396 q 511 689 553 565 q 446 872 479 785 q 382 689 414 785 q 303 442 340 565 q 276 353 289 396 m 390 -131 q 449 -112 408 -112 q 509 -131 492 -112 q 526 -189 526 -149 q 509 -245 526 -228 q 449 -262 492 -262 q 390 -245 408 -262 q 372 -189 372 -228 q 390 -131 372 -149 z "},"Ả":{"ha":896,"x_min":64,"x_max":833,"o":"m 64 0 q 118 217 86 99 q 191 463 150 335 q 278 719 232 590 q 376 969 325 849 l 521 969 q 619 719 572 849 q 706 463 665 590 q 778 217 746 335 q 833 0 811 99 l 704 0 q 657 206 686 92 q 644 249 650 226 l 247 249 q 236 206 242 226 q 188 0 207 92 l 64 0 m 276 353 l 615 353 q 590 442 603 396 q 511 689 553 565 q 446 872 479 785 q 382 689 414 785 q 303 442 340 565 q 276 353 289 396 m 397 1281 q 465 1289 431 1289 q 567 1262 531 1289 q 603 1192 603 1235 q 586 1136 603 1157 q 547 1103 569 1115 q 508 1079 525 1090 q 492 1053 492 1068 l 492 1040 l 407 1040 l 407 1060 q 422 1108 407 1092 q 455 1133 436 1124 q 488 1153 474 1143 q 503 1179 503 1163 q 449 1210 503 1210 q 394 1201 422 1210 q 336 1181 365 1193 l 336 1263 q 397 1281 364 1272 z "},"Ấ":{"ha":896,"x_min":64,"x_max":833,"o":"m 64 0 q 118 217 86 99 q 191 463 150 335 q 278 719 232 590 q 376 969 325 849 l 521 969 q 619 719 572 849 q 706 463 665 590 q 778 217 746 335 q 833 0 811 99 l 704 0 q 657 206 686 92 q 644 249 650 226 l 247 249 q 236 206 242 226 q 188 0 207 92 l 64 0 m 276 353 l 615 353 q 590 442 603 396 q 511 689 553 565 q 446 872 479 785 q 382 689 414 785 q 303 442 340 565 q 276 353 289 396 m 260 1025 l 381 1214 l 515 1214 l 633 1025 l 529 1025 l 446 1139 l 361 1025 l 260 1025 m 403 1260 l 499 1410 l 636 1410 l 514 1260 l 403 1260 z "},"Ầ":{"ha":896,"x_min":64,"x_max":833,"o":"m 64 0 q 118 217 86 99 q 191 463 150 335 q 278 719 232 590 q 376 969 325 849 l 521 969 q 619 719 572 849 q 706 463 665 590 q 778 217 746 335 q 833 0 811 99 l 704 0 q 657 206 686 92 q 644 249 650 226 l 247 249 q 236 206 242 226 q 188 0 207 92 l 64 0 m 276 353 l 615 353 q 590 442 603 396 q 511 689 553 565 q 446 872 479 785 q 382 689 414 785 q 303 442 340 565 q 276 353 289 396 m 383 1214 l 515 1214 l 636 1025 l 531 1025 l 447 1140 l 363 1025 l 261 1025 l 383 1214 m 263 1410 l 399 1410 l 497 1260 l 386 1260 l 263 1410 z "},"Ẩ":{"ha":896,"x_min":64,"x_max":833,"o":"m 64 0 q 118 217 86 99 q 191 463 150 335 q 278 719 232 590 q 376 969 325 849 l 521 969 q 619 719 572 849 q 706 463 665 590 q 778 217 746 335 q 833 0 811 99 l 704 0 q 657 206 686 92 q 644 249 650 226 l 247 249 q 236 206 242 226 q 188 0 207 92 l 64 0 m 276 353 l 615 353 q 590 442 603 396 q 511 689 553 565 q 446 872 479 785 q 382 689 414 785 q 303 442 340 565 q 276 353 289 396 m 383 1214 l 515 1214 l 636 1025 l 531 1025 l 447 1140 l 363 1025 l 261 1025 l 383 1214 m 558 1439 q 626 1446 592 1446 q 727 1419 692 1446 q 763 1349 763 1392 q 746 1293 763 1314 q 708 1260 729 1272 q 669 1237 686 1247 q 653 1211 653 1226 l 653 1199 l 565 1199 l 565 1218 q 580 1265 565 1249 q 614 1291 594 1282 q 648 1310 633 1300 q 663 1338 663 1319 q 610 1367 663 1367 q 553 1359 582 1367 q 496 1339 524 1351 l 496 1419 q 558 1439 524 1431 z "},"Ẫ":{"ha":896,"x_min":64,"x_max":833,"o":"m 64 0 q 118 217 86 99 q 191 463 150 335 q 278 719 232 590 q 376 969 325 849 l 521 969 q 619 719 572 849 q 706 463 665 590 q 778 217 746 335 q 833 0 811 99 l 704 0 q 657 206 686 92 q 644 249 650 226 l 247 249 q 236 206 242 226 q 188 0 207 92 l 64 0 m 276 353 l 615 353 q 590 442 603 396 q 511 689 553 565 q 446 872 479 785 q 382 689 414 785 q 303 442 340 565 q 276 353 289 396 m 272 1386 q 360 1428 304 1428 q 408 1418 385 1428 q 454 1393 432 1408 l 475 1379 q 503 1363 490 1369 q 528 1356 515 1356 q 556 1370 544 1356 q 568 1414 568 1385 l 660 1414 q 628 1303 660 1346 q 540 1260 596 1260 q 492 1269 515 1260 q 446 1293 469 1278 l 422 1310 q 397 1326 408 1319 q 372 1333 385 1333 q 344 1319 356 1333 q 332 1274 332 1304 l 239 1274 q 272 1386 239 1343 m 383 1214 l 515 1214 l 636 1025 l 531 1025 l 447 1140 l 363 1025 l 261 1025 l 383 1214 z "},"Ậ":{"ha":896,"x_min":64,"x_max":833,"o":"m 64 0 q 118 217 86 99 q 191 463 150 335 q 278 719 232 590 q 376 969 325 849 l 521 969 q 619 719 572 849 q 706 463 665 590 q 778 217 746 335 q 833 0 811 99 l 704 0 q 657 206 686 92 q 644 249 650 226 l 247 249 q 236 206 242 226 q 188 0 207 92 l 64 0 m 276 353 l 615 353 q 590 442 603 396 q 511 689 553 565 q 446 872 479 785 q 382 689 414 785 q 303 442 340 565 q 276 353 289 396 m 263 1043 l 386 1238 l 514 1238 l 636 1043 l 532 1043 l 447 1160 l 364 1043 l 263 1043 m 392 -126 q 450 -108 410 -108 q 510 -126 493 -108 q 528 -185 528 -144 q 510 -241 528 -224 q 450 -258 493 -258 q 392 -241 410 -258 q 374 -185 374 -224 q 392 -126 374 -144 z "},"Ắ":{"ha":896,"x_min":64,"x_max":833,"o":"m 64 0 q 118 217 86 99 q 191 463 150 335 q 278 719 232 590 q 376 969 325 849 l 521 969 q 619 719 572 849 q 706 463 665 590 q 778 217 746 335 q 833 0 811 99 l 704 0 q 657 206 686 92 q 644 249 650 226 l 247 249 q 236 206 242 226 q 188 0 207 92 l 64 0 m 276 353 l 615 353 q 590 442 603 396 q 511 689 553 565 q 446 872 479 785 q 382 689 414 785 q 303 442 340 565 q 276 353 289 396 m 254 1214 l 351 1214 q 376 1138 351 1163 q 450 1114 400 1114 q 522 1138 499 1114 q 546 1208 546 1163 q 546 1214 546 1211 l 643 1214 q 592 1073 643 1121 q 450 1025 540 1025 q 306 1073 358 1025 q 254 1214 254 1121 m 394 1260 l 490 1410 l 628 1410 l 503 1260 l 394 1260 z "},"Ằ":{"ha":896,"x_min":64,"x_max":833,"o":"m 64 0 q 118 217 86 99 q 191 463 150 335 q 278 719 232 590 q 376 969 325 849 l 521 969 q 619 719 572 849 q 706 463 665 590 q 778 217 746 335 q 833 0 811 99 l 704 0 q 657 206 686 92 q 644 249 650 226 l 247 249 q 236 206 242 226 q 188 0 207 92 l 64 0 m 276 353 l 615 353 q 590 442 603 396 q 511 689 553 565 q 446 872 479 785 q 382 689 414 785 q 303 442 340 565 q 276 353 289 396 m 254 1214 l 351 1214 q 376 1138 351 1163 q 450 1114 400 1114 q 522 1138 499 1114 q 546 1208 546 1163 q 546 1214 546 1211 l 643 1214 q 592 1073 643 1121 q 450 1025 540 1025 q 306 1073 358 1025 q 254 1214 254 1121 m 269 1410 l 408 1410 l 501 1260 l 392 1260 l 269 1410 z "},"Ẳ":{"ha":896,"x_min":64,"x_max":833,"o":"m 64 0 q 118 217 86 99 q 191 463 150 335 q 278 719 232 590 q 376 969 325 849 l 521 969 q 619 719 572 849 q 706 463 665 590 q 778 217 746 335 q 833 0 811 99 l 704 0 q 657 206 686 92 q 644 249 650 226 l 247 249 q 236 206 242 226 q 188 0 207 92 l 64 0 m 276 353 l 615 353 q 590 442 603 396 q 511 689 553 565 q 446 872 479 785 q 382 689 414 785 q 303 442 340 565 q 276 353 289 396 m 351 1214 q 376 1138 351 1163 q 450 1114 400 1114 q 522 1138 499 1114 q 546 1208 546 1161 q 546 1214 546 1211 l 643 1214 q 592 1073 643 1121 q 450 1025 540 1025 q 306 1073 358 1025 q 254 1214 254 1121 l 351 1214 m 388 1447 q 457 1454 422 1454 q 557 1428 521 1454 q 593 1357 593 1401 q 576 1303 593 1322 q 537 1272 560 1283 q 497 1252 514 1261 q 481 1228 481 1243 l 481 1226 l 401 1226 l 401 1235 q 415 1281 401 1265 q 447 1304 429 1296 q 479 1321 465 1313 q 493 1346 493 1329 q 439 1375 493 1375 q 383 1367 411 1375 q 325 1347 354 1360 l 325 1428 q 388 1447 353 1439 z "},"Ẵ":{"ha":896,"x_min":64,"x_max":833,"o":"m 64 0 q 118 217 86 99 q 191 463 150 335 q 278 719 232 590 q 376 969 325 849 l 521 969 q 619 719 572 849 q 706 463 665 590 q 778 217 746 335 q 833 0 811 99 l 704 0 q 657 206 686 92 q 644 249 650 226 l 247 249 q 236 206 242 226 q 188 0 207 92 l 64 0 m 276 353 l 615 353 q 590 442 603 396 q 511 689 553 565 q 446 872 479 785 q 382 689 414 785 q 303 442 340 565 q 276 353 289 396 m 239 1274 q 272 1385 239 1343 q 360 1428 304 1428 q 408 1418 385 1428 q 454 1393 432 1408 l 475 1379 q 503 1363 490 1369 q 528 1356 515 1356 q 556 1370 544 1356 q 568 1414 568 1385 l 660 1414 q 628 1303 660 1346 q 540 1260 596 1260 q 492 1269 515 1260 q 446 1293 469 1278 l 422 1310 q 397 1326 408 1319 q 372 1333 385 1333 q 344 1319 356 1333 q 332 1274 332 1304 l 239 1274 m 254 1214 l 351 1214 q 376 1138 351 1163 q 450 1114 400 1114 q 522 1138 499 1114 q 546 1208 546 1161 q 546 1214 546 1211 l 643 1214 q 592 1073 643 1121 q 450 1025 540 1025 q 306 1073 358 1025 q 254 1214 254 1121 z "},"Ặ":{"ha":896,"x_min":64,"x_max":833,"o":"m 64 0 q 118 217 86 99 q 191 463 150 335 q 278 719 232 590 q 376 969 325 849 l 521 969 q 619 719 572 849 q 706 463 665 590 q 778 217 746 335 q 833 0 811 99 l 704 0 q 657 206 686 92 q 644 249 650 226 l 247 249 q 236 206 242 226 q 188 0 207 92 l 64 0 m 276 353 l 615 353 q 590 442 603 396 q 511 689 553 565 q 446 872 479 785 q 382 689 414 785 q 303 442 340 565 q 276 353 289 396 m 351 1238 q 376 1158 351 1183 q 450 1133 400 1133 q 522 1158 499 1133 q 546 1228 546 1182 q 546 1238 546 1232 l 643 1238 q 592 1093 643 1143 q 450 1043 542 1043 q 308 1093 360 1043 q 256 1238 256 1143 l 351 1238 m 382 -126 q 440 -108 400 -108 q 501 -126 483 -108 q 518 -185 518 -144 q 501 -241 518 -224 q 440 -258 483 -258 q 382 -241 400 -258 q 364 -185 364 -224 q 382 -126 364 -144 z "},"Ƀ":{"ha":903,"x_min":154,"x_max":811,"o":"m 154 969 l 469 969 q 629 943 563 969 q 732 861 696 917 q 768 719 768 806 q 724 579 768 639 q 628 508 689 533 q 749 443 700 489 q 811 276 811 383 q 770 117 811 178 q 657 28 729 56 q 490 0 585 0 l 154 0 l 154 969 m 279 447 l 279 103 l 483 103 q 637 144 590 103 q 683 275 683 186 q 638 406 683 365 q 485 447 592 447 l 279 447 m 461 550 q 599 588 558 550 q 640 711 640 626 q 599 830 640 793 q 461 867 558 867 l 279 867 l 279 550 l 461 550 z "},"Ḃ":{"ha":903,"x_min":154,"x_max":811,"o":"m 154 969 l 469 969 q 629 943 563 969 q 732 861 696 917 q 768 719 768 806 q 724 579 768 639 q 628 508 689 533 q 749 443 700 489 q 811 276 811 383 q 770 117 811 178 q 657 28 729 56 q 490 0 585 0 l 154 0 l 154 969 m 279 447 l 279 103 l 483 103 q 637 144 590 103 q 683 275 683 186 q 638 406 683 365 q 485 447 592 447 l 279 447 m 461 550 q 599 588 558 550 q 640 711 640 626 q 599 830 640 793 q 461 867 558 867 l 279 867 l 279 550 l 461 550 m 390 1204 q 449 1222 408 1222 q 507 1205 489 1222 q 525 1147 525 1188 q 507 1091 525 1108 q 449 1074 489 1074 q 390 1090 408 1074 q 372 1146 372 1107 q 390 1204 372 1186 z "},"Ḅ":{"ha":903,"x_min":154,"x_max":811,"o":"m 154 969 l 469 969 q 629 943 563 969 q 732 861 696 917 q 768 719 768 806 q 724 579 768 639 q 628 508 689 533 q 749 443 700 489 q 811 276 811 383 q 770 117 811 178 q 657 28 729 56 q 490 0 585 0 l 154 0 l 154 969 m 279 447 l 279 103 l 483 103 q 637 144 590 103 q 683 275 683 186 q 638 406 683 365 q 485 447 592 447 l 279 447 m 461 550 q 599 588 558 550 q 640 711 640 626 q 599 830 640 793 q 461 867 558 867 l 279 867 l 279 550 l 461 550 m 401 -131 q 460 -112 419 -112 q 520 -131 503 -112 q 538 -189 538 -149 q 520 -245 538 -228 q 460 -262 503 -262 q 401 -245 419 -262 q 383 -189 383 -228 q 401 -131 383 -149 z "},"B":{"ha":903,"x_min":154,"x_max":811,"o":"m 154 969 l 469 969 q 629 943 563 969 q 732 861 696 917 q 768 719 768 806 q 724 579 768 639 q 628 508 689 533 q 749 443 700 489 q 811 276 811 383 q 770 117 811 178 q 657 28 729 56 q 490 0 585 0 l 154 0 l 154 969 m 279 447 l 279 103 l 483 103 q 637 144 590 103 q 683 275 683 186 q 638 406 683 365 q 485 447 592 447 l 279 447 m 461 550 q 599 588 558 550 q 640 711 640 626 q 599 830 640 793 q 461 867 558 867 l 279 867 l 279 550 l 461 550 z "},"Ḇ":{"ha":903,"x_min":154,"x_max":811,"o":"m 154 969 l 469 969 q 629 943 563 969 q 732 861 696 917 q 768 719 768 806 q 724 579 768 639 q 628 508 689 533 q 749 443 700 489 q 811 276 811 383 q 770 117 811 178 q 657 28 729 56 q 490 0 585 0 l 154 0 l 154 969 m 279 447 l 279 103 l 483 103 q 637 144 590 103 q 683 275 683 186 q 638 406 683 365 q 485 447 592 447 l 279 447 m 461 550 q 599 588 558 550 q 640 711 640 626 q 599 830 640 793 q 461 867 558 867 l 279 867 l 279 550 l 461 550 z "},"Ç":{"ha":776,"x_min":106,"x_max":707,"o":"m 156 779 q 297 936 206 888 q 513 985 388 985 q 620 976 569 985 q 707 954 671 968 l 707 847 q 612 869 656 863 q 514 876 568 876 q 363 840 426 876 q 267 719 300 804 q 233 489 233 635 q 268 258 233 344 q 369 132 303 171 q 531 93 436 93 q 622 98 585 93 q 707 117 660 103 l 707 10 q 625 -7 668 -1 q 551 -14 590 -12 l 568 -35 q 613 -105 596 -69 q 631 -176 631 -140 q 585 -267 631 -235 q 461 -300 540 -300 q 394 -295 426 -300 q 335 -282 361 -290 l 335 -196 q 391 -210 361 -206 q 446 -215 421 -215 q 506 -200 489 -215 q 524 -158 524 -185 q 510 -109 524 -132 q 475 -60 496 -86 l 435 -7 q 300 38 358 6 q 155 198 204 88 q 106 489 106 308 q 156 779 106 671 z "},"C":{"ha":776,"x_min":106,"x_max":707,"o":"m 106 489 q 156 780 106 671 q 297 937 206 889 q 513 985 388 985 q 619 977 569 985 q 707 956 669 969 l 707 844 q 611 868 660 860 q 514 876 563 876 q 363 840 426 876 q 267 720 300 804 q 233 489 233 636 q 268 256 233 343 q 369 131 303 169 q 532 93 436 93 q 622 100 578 93 q 707 121 665 107 l 707 8 q 624 -8 668 -3 q 528 -14 581 -14 q 300 37 394 -14 q 156 198 206 88 q 106 489 106 308 z "},"Ć":{"ha":776,"x_min":106,"x_max":707,"o":"m 106 489 q 156 780 106 671 q 297 937 206 889 q 513 985 388 985 q 619 977 569 985 q 707 956 669 969 l 707 844 q 611 868 660 860 q 514 876 563 876 q 363 840 426 876 q 267 720 300 804 q 233 489 233 636 q 268 256 233 343 q 369 131 303 169 q 532 93 436 93 q 622 100 578 93 q 707 121 665 107 l 707 8 q 624 -8 668 -3 q 528 -14 581 -14 q 300 37 394 -14 q 156 198 206 88 q 106 489 106 308 z "},"Ĉ":{"ha":776,"x_min":106,"x_max":707,"o":"m 106 489 q 156 780 106 671 q 297 937 206 889 q 513 985 388 985 q 619 977 569 985 q 707 956 669 969 l 707 844 q 611 868 660 860 q 514 876 563 876 q 363 840 426 876 q 267 720 300 804 q 233 489 233 636 q 268 256 233 343 q 369 131 303 169 q 532 93 436 93 q 622 100 578 93 q 707 121 665 107 l 707 8 q 624 -8 668 -3 q 528 -14 581 -14 q 300 37 394 -14 q 156 198 206 88 q 106 489 106 308 z "},"Ċ":{"ha":776,"x_min":106,"x_max":707,"o":"m 106 489 q 156 780 106 671 q 297 937 206 889 q 513 985 388 985 q 619 977 569 985 q 707 956 669 969 l 707 844 q 611 868 660 860 q 514 876 563 876 q 363 840 426 876 q 267 720 300 804 q 233 489 233 636 q 268 256 233 343 q 369 131 303 169 q 532 93 436 93 q 622 100 578 93 q 707 121 665 107 l 707 8 q 624 -8 668 -3 q 528 -14 581 -14 q 300 37 394 -14 q 156 198 206 88 q 106 489 106 308 m 421 1199 q 479 1217 439 1217 q 538 1199 519 1217 q 556 1142 556 1182 q 538 1085 556 1103 q 479 1068 519 1068 q 421 1085 439 1068 q 403 1140 403 1101 q 421 1199 403 1181 z "},"Č":{"ha":776,"x_min":106,"x_max":707,"o":"m 106 489 q 156 780 106 671 q 297 937 206 889 q 513 985 388 985 q 619 977 569 985 q 707 956 669 969 l 707 844 q 611 868 660 860 q 514 876 563 876 q 363 840 426 876 q 267 720 300 804 q 233 489 233 636 q 268 256 233 343 q 369 131 303 169 q 532 93 436 93 q 622 100 578 93 q 707 121 665 107 l 707 8 q 624 -8 668 -3 q 528 -14 581 -14 q 300 37 394 -14 q 156 198 206 88 q 106 489 106 308 m 293 1238 l 399 1238 l 482 1121 l 565 1238 l 667 1238 l 544 1043 l 417 1043 l 293 1238 z "},"Ȼ":{"ha":776,"x_min":106,"x_max":707,"o":"m 156 779 q 297 936 206 888 q 507 985 385 983 l 542 1135 l 631 1135 l 594 981 q 621 976 608 979 q 707 954 672 968 l 707 847 q 613 869 656 863 q 569 875 592 872 l 394 119 q 531 93 453 93 q 622 98 585 93 q 707 117 660 103 l 707 10 q 624 -8 668 -3 q 531 -14 581 -14 q 368 8 440 -14 l 325 -176 l 236 -176 l 288 43 q 156 199 201 94 q 106 489 106 310 q 156 779 106 671 m 268 258 q 318 174 288 208 l 481 875 q 364 840 414 869 q 267 719 301 804 q 233 489 233 635 q 268 258 233 344 z "},"Ḉ":{"ha":776,"x_min":106,"x_max":707,"o":"m 539 1238 l 676 1238 l 533 1043 l 424 1043 l 539 1238 m 156 779 q 297 936 206 888 q 513 985 388 985 q 620 976 569 985 q 707 954 671 968 l 707 847 q 612 869 656 863 q 514 876 568 876 q 363 840 426 876 q 267 719 300 804 q 233 489 233 635 q 268 258 233 344 q 369 132 303 171 q 531 93 436 93 q 622 98 585 93 q 707 117 660 103 l 707 10 q 625 -7 668 -1 q 551 -14 590 -12 l 568 -35 q 613 -105 596 -69 q 631 -176 631 -140 q 585 -267 631 -235 q 461 -300 540 -300 q 394 -295 426 -300 q 335 -282 361 -290 l 335 -196 q 391 -210 361 -206 q 446 -215 421 -215 q 506 -200 489 -215 q 524 -158 524 -185 q 510 -109 524 -132 q 475 -60 496 -86 l 435 -7 q 300 38 358 6 q 155 198 204 88 q 106 489 106 308 q 156 779 106 671 z "},"D":{"ha":950,"x_min":154,"x_max":843,"o":"m 438 969 q 606 943 531 969 q 733 860 681 917 q 815 710 786 803 q 843 483 843 617 q 814 256 843 349 q 731 106 785 163 q 602 25 676 50 q 438 0 528 0 l 154 0 l 154 969 l 438 969 m 279 867 l 279 104 l 440 104 q 585 140 522 104 q 682 258 647 175 q 717 483 717 342 q 682 710 717 626 q 585 830 647 793 q 440 867 524 867 l 279 867 z "},"Ď":{"ha":950,"x_min":154,"x_max":843,"o":"m 438 969 q 606 943 531 969 q 733 860 681 917 q 815 710 786 803 q 843 483 843 617 q 814 256 843 349 q 731 106 785 163 q 602 25 676 50 q 438 0 528 0 l 154 0 l 154 969 l 438 969 m 279 867 l 279 104 l 440 104 q 585 140 522 104 q 682 258 647 175 q 717 483 717 342 q 682 710 717 626 q 585 830 647 793 q 440 867 524 867 l 279 867 z "},"Đ":{"ha":983,"x_min":63,"x_max":878,"o":"m 63 451 l 63 550 l 188 550 l 188 969 l 472 969 q 638 943 564 969 q 767 860 713 917 q 849 710 821 803 q 878 483 878 617 q 848 256 878 349 q 764 106 818 163 q 635 25 710 50 q 472 0 561 0 l 188 0 l 188 451 l 63 451 m 313 104 l 475 104 q 617 140 556 104 q 715 258 679 175 q 750 483 750 342 q 715 710 750 626 q 617 830 679 793 q 475 867 556 867 l 313 867 l 313 550 l 514 550 l 514 451 l 313 451 l 313 104 z "},"Ḋ":{"ha":950,"x_min":154,"x_max":843,"o":"m 438 969 q 606 943 531 969 q 733 860 681 917 q 815 710 786 803 q 843 483 843 617 q 814 256 843 349 q 731 106 785 163 q 602 25 676 50 q 438 0 528 0 l 154 0 l 154 969 l 438 969 m 279 867 l 279 104 l 440 104 q 585 140 522 104 q 682 258 647 175 q 717 483 717 342 q 682 710 717 626 q 585 830 647 793 q 440 867 524 867 l 279 867 m 389 1200 q 447 1218 407 1218 q 506 1201 488 1218 q 524 1143 524 1183 q 506 1087 524 1104 q 447 1069 488 1069 q 389 1086 407 1069 q 371 1142 371 1103 q 389 1200 371 1182 z "},"Ḍ":{"ha":950,"x_min":154,"x_max":843,"o":"m 438 969 q 606 943 531 969 q 733 860 681 917 q 815 710 786 803 q 843 483 843 617 q 814 256 843 349 q 731 106 785 163 q 602 25 676 50 q 438 0 528 0 l 154 0 l 154 969 l 438 969 m 279 867 l 279 104 l 440 104 q 585 140 522 104 q 682 258 647 175 q 717 483 717 342 q 682 710 717 626 q 585 830 647 793 q 440 867 524 867 l 279 867 m 407 -131 q 465 -112 425 -112 q 526 -131 508 -112 q 543 -189 543 -149 q 526 -245 543 -228 q 465 -262 508 -262 q 407 -245 425 -262 q 389 -189 389 -228 q 407 -131 389 -149 z "},"Ḏ":{"ha":950,"x_min":154,"x_max":843,"o":"m 438 969 q 606 943 531 969 q 733 860 681 917 q 815 710 786 803 q 843 483 843 617 q 814 256 843 349 q 731 106 785 163 q 602 25 676 50 q 438 0 528 0 l 154 0 l 154 969 l 438 969 m 279 867 l 279 104 l 440 104 q 585 140 522 104 q 682 258 647 175 q 717 483 717 342 q 682 710 717 626 q 585 830 647 793 q 440 867 524 867 l 279 867 m 669 -131 l 669 -217 l 271 -217 l 271 -131 l 669 -131 z "},"Ḑ":{"ha":950,"x_min":154,"x_max":843,"o":"m 154 969 l 438 969 q 606 943 531 969 q 733 860 681 917 q 815 710 786 803 q 843 483 843 617 q 814 256 843 349 q 731 106 785 163 q 603 25 676 50 q 483 1 547 7 l 511 -35 q 556 -105 539 -69 q 574 -176 574 -140 q 528 -267 574 -235 q 403 -300 482 -300 q 337 -295 369 -300 q 276 -282 304 -290 l 276 -196 q 334 -210 304 -206 q 389 -215 364 -215 q 449 -200 431 -215 q 467 -158 467 -185 q 453 -109 467 -132 q 418 -60 439 -86 l 372 0 l 154 0 l 154 969 m 279 104 l 440 104 q 585 140 522 104 q 682 258 647 175 q 717 483 717 342 q 682 710 717 626 q 585 830 647 793 q 440 867 524 867 l 279 867 l 279 104 z "},"Ḓ":{"ha":950,"x_min":154,"x_max":843,"o":"m 438 969 q 606 943 531 969 q 733 860 681 917 q 815 710 786 803 q 843 483 843 617 q 814 256 843 349 q 731 106 785 163 q 602 25 676 50 q 438 0 528 0 l 154 0 l 154 969 l 438 969 m 279 867 l 279 104 l 440 104 q 585 140 522 104 q 682 258 647 175 q 717 483 717 342 q 682 710 717 626 q 585 830 647 793 q 440 867 524 867 l 279 867 m 278 -294 l 400 -100 l 528 -100 l 653 -294 l 547 -294 l 465 -179 l 382 -294 l 278 -294 z "},"È":{"ha":811,"x_min":154,"x_max":711,"o":"m 154 969 l 706 969 l 706 867 l 279 867 l 279 554 l 676 554 l 676 447 l 279 447 l 279 104 l 711 104 l 711 0 l 154 0 l 154 969 m 374 1238 l 489 1043 l 381 1043 l 238 1238 l 374 1238 z "},"É":{"ha":811,"x_min":154,"x_max":711,"o":"m 154 969 l 706 969 l 706 867 l 279 867 l 279 554 l 676 554 l 676 447 l 279 447 l 279 104 l 711 104 l 711 0 l 154 0 l 154 969 m 494 1238 l 632 1238 l 489 1043 l 379 1043 l 494 1238 z "},"Ê":{"ha":811,"x_min":154,"x_max":711,"o":"m 154 969 l 706 969 l 706 867 l 279 867 l 279 554 l 676 554 l 676 447 l 279 447 l 279 104 l 711 104 l 711 0 l 154 0 l 154 969 m 249 1043 l 372 1238 l 500 1238 l 622 1043 l 518 1043 l 433 1160 l 350 1043 l 249 1043 z "},"Ë":{"ha":811,"x_min":154,"x_max":711,"o":"m 154 969 l 706 969 l 706 867 l 279 867 l 279 554 l 676 554 l 676 447 l 279 447 l 279 104 l 711 104 l 711 0 l 154 0 l 154 969 m 513 1192 q 565 1208 528 1208 q 619 1192 603 1208 q 636 1139 636 1175 q 619 1090 636 1106 q 565 1074 603 1074 q 512 1090 528 1074 q 496 1139 496 1106 q 513 1192 496 1175 m 251 1192 q 304 1208 267 1208 q 357 1192 340 1208 q 374 1139 374 1175 q 357 1090 374 1106 q 304 1074 340 1074 q 251 1090 267 1074 q 236 1139 236 1106 q 251 1192 236 1175 z "},"Ē":{"ha":811,"x_min":154,"x_max":711,"o":"m 154 969 l 706 969 l 706 867 l 279 867 l 279 554 l 676 554 l 676 447 l 279 447 l 279 104 l 711 104 l 711 0 l 154 0 l 154 969 m 635 1168 l 635 1082 l 236 1082 l 236 1168 l 635 1168 z "},"Ĕ":{"ha":811,"x_min":154,"x_max":711,"o":"m 154 969 l 706 969 l 706 867 l 279 867 l 279 554 l 676 554 l 676 447 l 279 447 l 279 104 l 711 104 l 711 0 l 154 0 l 154 969 m 338 1238 q 362 1158 338 1183 q 436 1133 386 1133 q 508 1158 485 1133 q 532 1228 532 1182 q 532 1238 532 1232 l 629 1238 q 578 1093 629 1143 q 436 1043 528 1043 q 294 1093 346 1043 q 242 1238 242 1143 l 338 1238 z "},"Ė":{"ha":811,"x_min":154,"x_max":711,"o":"m 154 969 l 706 969 l 706 867 l 279 867 l 279 554 l 676 554 l 676 447 l 279 447 l 279 104 l 711 104 l 711 0 l 154 0 l 154 969 m 376 1199 q 435 1217 394 1217 q 493 1199 475 1217 q 511 1142 511 1182 q 493 1085 511 1103 q 435 1068 475 1068 q 376 1085 394 1068 q 358 1140 358 1101 q 376 1199 358 1181 z "},"Ę":{"ha":811,"x_min":154,"x_max":711,"o":"m 154 969 l 706 969 l 706 867 l 279 867 l 279 554 l 676 554 l 676 447 l 279 447 l 279 104 l 711 104 l 711 0 l 624 -68 q 564 -125 579 -103 q 549 -165 549 -147 q 560 -193 549 -182 q 604 -204 572 -204 q 649 -200 621 -204 q 710 -186 676 -196 l 710 -282 q 649 -294 682 -289 q 581 -300 615 -300 q 473 -269 507 -300 q 439 -186 439 -237 q 458 -116 439 -150 q 531 -42 478 -82 l 585 0 l 154 0 l 154 969 z "},"Ě":{"ha":811,"x_min":154,"x_max":711,"o":"m 154 969 l 706 969 l 706 867 l 279 867 l 279 554 l 676 554 l 676 447 l 279 447 l 279 104 l 711 104 l 711 0 l 154 0 l 154 969 m 249 1238 l 354 1238 l 438 1121 l 521 1238 l 622 1238 l 500 1043 l 372 1043 l 249 1238 z "},"Ȅ":{"ha":811,"x_min":154,"x_max":711,"o":"m 154 969 l 706 969 l 706 867 l 279 867 l 279 554 l 676 554 l 676 447 l 279 447 l 279 104 l 711 104 l 711 0 l 154 0 l 154 969 m 306 1238 l 386 1043 l 292 1043 l 183 1238 l 306 1238 m 381 1238 l 500 1238 l 579 1043 l 486 1043 l 381 1238 z "},"Ȇ":{"ha":811,"x_min":154,"x_max":711,"o":"m 154 969 l 706 969 l 706 867 l 279 867 l 279 554 l 676 554 l 676 447 l 279 447 l 279 104 l 711 104 l 711 0 l 154 0 l 154 969 m 240 1044 q 292 1190 240 1140 q 438 1239 344 1239 q 578 1190 528 1239 q 629 1044 629 1140 l 532 1044 q 508 1124 532 1099 q 438 1149 483 1149 q 363 1123 388 1149 q 338 1044 338 1097 l 240 1044 z "},"Ȩ":{"ha":811,"x_min":154,"x_max":711,"o":"m 154 969 l 706 969 l 706 867 l 279 867 l 279 551 l 676 551 l 676 449 l 279 449 l 279 103 l 711 103 l 711 0 l 503 0 l 529 -35 q 574 -105 557 -69 q 592 -176 592 -140 q 547 -267 592 -235 q 422 -300 501 -300 q 355 -295 388 -300 q 296 -282 322 -290 l 296 -196 q 352 -210 322 -206 q 407 -215 382 -215 q 467 -200 450 -215 q 485 -158 485 -185 q 471 -109 485 -132 q 436 -60 457 -86 l 390 0 l 154 0 l 154 969 z "},"Ḕ":{"ha":811,"x_min":154,"x_max":711,"o":"m 154 969 l 706 969 l 706 867 l 279 867 l 279 554 l 676 554 l 676 447 l 279 447 l 279 104 l 711 104 l 711 0 l 154 0 l 154 969 m 635 1118 l 635 1032 l 236 1032 l 236 1118 l 635 1118 m 371 1358 l 488 1164 l 379 1164 l 236 1358 l 371 1358 z "},"Ḗ":{"ha":811,"x_min":154,"x_max":711,"o":"m 154 969 l 706 969 l 706 867 l 279 867 l 279 554 l 676 554 l 676 447 l 279 447 l 279 104 l 711 104 l 711 0 l 154 0 l 154 969 m 635 1118 l 635 1032 l 236 1032 l 236 1118 l 635 1118 m 496 1358 l 635 1358 l 489 1164 l 381 1164 l 496 1358 z "},"Ḙ":{"ha":811,"x_min":154,"x_max":711,"o":"m 154 969 l 706 969 l 706 867 l 279 867 l 279 554 l 676 554 l 676 447 l 279 447 l 279 104 l 711 104 l 711 0 l 154 0 l 154 969 z "},"Ḛ":{"ha":811,"x_min":154,"x_max":711,"o":"m 154 969 l 706 969 l 706 867 l 279 867 l 279 554 l 676 554 l 676 447 l 279 447 l 279 104 l 711 104 l 711 0 l 154 0 l 154 969 m 258 -151 q 346 -108 290 -108 q 394 -118 371 -108 q 440 -143 418 -128 l 461 -157 q 489 -174 476 -167 q 514 -182 501 -182 q 542 -167 531 -182 q 554 -122 554 -151 l 646 -122 q 614 -233 646 -190 q 526 -276 582 -276 q 478 -267 501 -276 q 432 -243 456 -258 l 408 -226 q 383 -210 394 -217 q 358 -203 371 -203 q 330 -217 342 -203 q 318 -262 318 -232 l 225 -262 q 258 -151 225 -193 z "},"Ḝ":{"ha":811,"x_min":154,"x_max":711,"o":"m 339 1238 q 363 1158 339 1183 q 438 1133 388 1133 q 510 1158 486 1133 q 533 1228 533 1182 q 533 1238 533 1232 l 631 1238 q 580 1093 631 1143 q 438 1043 529 1043 q 295 1093 347 1043 q 243 1238 243 1143 l 339 1238 m 154 969 l 706 969 l 706 867 l 279 867 l 279 551 l 676 551 l 676 449 l 279 449 l 279 103 l 711 103 l 711 0 l 503 0 l 529 -35 q 574 -105 557 -69 q 592 -176 592 -140 q 547 -267 592 -235 q 422 -300 501 -300 q 355 -295 388 -300 q 296 -282 322 -290 l 296 -196 q 352 -210 322 -206 q 407 -215 382 -215 q 467 -200 450 -215 q 485 -158 485 -185 q 471 -109 485 -132 q 436 -60 457 -86 l 390 0 l 154 0 l 154 969 z "},"Ẹ":{"ha":811,"x_min":154,"x_max":711,"o":"m 154 969 l 706 969 l 706 867 l 279 867 l 279 554 l 676 554 l 676 447 l 279 447 l 279 104 l 711 104 l 711 0 l 154 0 l 154 969 m 383 -131 q 442 -112 401 -112 q 502 -131 485 -112 q 519 -189 519 -149 q 502 -245 519 -228 q 442 -262 485 -262 q 383 -245 401 -262 q 365 -189 365 -228 q 383 -131 365 -149 z "},"Ẻ":{"ha":811,"x_min":154,"x_max":711,"o":"m 154 969 l 706 969 l 706 867 l 279 867 l 279 554 l 676 554 l 676 447 l 279 447 l 279 104 l 711 104 l 711 0 l 154 0 l 154 969 m 381 1281 q 449 1289 414 1289 q 550 1262 514 1289 q 586 1192 586 1235 q 569 1136 586 1157 q 531 1103 553 1115 q 492 1079 508 1090 q 475 1053 475 1068 l 475 1040 l 390 1040 l 390 1060 q 405 1108 390 1092 q 438 1133 419 1124 q 472 1153 457 1143 q 486 1179 486 1163 q 432 1210 486 1210 q 377 1201 406 1210 q 319 1181 349 1193 l 319 1263 q 381 1281 347 1272 z "},"Ẽ":{"ha":811,"x_min":154,"x_max":711,"o":"m 154 969 l 706 969 l 706 867 l 279 867 l 279 554 l 676 554 l 676 447 l 279 447 l 279 104 l 711 104 l 711 0 l 154 0 l 154 969 m 267 1183 q 354 1226 299 1226 q 403 1217 379 1226 q 449 1192 426 1207 l 469 1178 q 497 1160 485 1168 q 522 1153 510 1153 q 551 1167 539 1153 q 563 1211 563 1182 l 654 1211 q 622 1101 654 1143 q 535 1058 590 1058 q 487 1067 510 1058 q 440 1092 464 1076 l 417 1107 q 391 1124 403 1117 q 367 1131 379 1131 q 338 1116 350 1131 q 326 1071 326 1101 l 233 1071 q 267 1183 233 1140 z "},"Ế":{"ha":811,"x_min":154,"x_max":711,"o":"m 154 969 l 706 969 l 706 867 l 279 867 l 279 554 l 676 554 l 676 447 l 279 447 l 279 104 l 711 104 l 711 0 l 154 0 l 154 969 m 246 1025 l 367 1214 l 501 1214 l 619 1025 l 515 1025 l 432 1139 l 347 1025 l 246 1025 m 389 1260 l 485 1410 l 622 1410 l 500 1260 l 389 1260 z "},"Ề":{"ha":811,"x_min":154,"x_max":711,"o":"m 154 969 l 706 969 l 706 867 l 279 867 l 279 554 l 676 554 l 676 447 l 279 447 l 279 104 l 711 104 l 711 0 l 154 0 l 154 969 m 369 1214 l 501 1214 l 622 1025 l 517 1025 l 433 1140 l 349 1025 l 247 1025 l 369 1214 m 249 1410 l 385 1410 l 483 1260 l 372 1260 l 249 1410 z "},"Ể":{"ha":811,"x_min":154,"x_max":749,"o":"m 154 969 l 706 969 l 706 867 l 279 867 l 279 554 l 676 554 l 676 447 l 279 447 l 279 104 l 711 104 l 711 0 l 154 0 l 154 969 m 369 1214 l 501 1214 l 622 1025 l 517 1025 l 433 1140 l 349 1025 l 247 1025 l 369 1214 m 544 1439 q 613 1446 578 1446 q 713 1419 678 1446 q 749 1349 749 1392 q 732 1293 749 1314 q 694 1260 715 1272 q 656 1237 672 1247 q 639 1211 639 1226 l 639 1199 l 551 1199 l 551 1218 q 566 1265 551 1249 q 600 1291 581 1282 q 634 1310 619 1300 q 649 1338 649 1319 q 596 1367 649 1367 q 539 1359 568 1367 q 482 1339 510 1351 l 482 1419 q 544 1439 510 1431 z "},"Ễ":{"ha":811,"x_min":154,"x_max":711,"o":"m 154 969 l 706 969 l 706 867 l 279 867 l 279 554 l 676 554 l 676 447 l 279 447 l 279 104 l 711 104 l 711 0 l 154 0 l 154 969 m 258 1386 q 346 1428 290 1428 q 394 1418 371 1428 q 440 1393 418 1408 l 461 1379 q 489 1363 476 1369 q 514 1356 501 1356 q 542 1370 531 1356 q 554 1414 554 1385 l 646 1414 q 614 1303 646 1346 q 526 1260 582 1260 q 478 1269 501 1260 q 432 1293 456 1278 l 408 1310 q 383 1326 394 1319 q 358 1333 371 1333 q 330 1319 342 1333 q 318 1274 318 1304 l 225 1274 q 258 1386 225 1343 m 369 1214 l 501 1214 l 622 1025 l 517 1025 l 433 1140 l 349 1025 l 247 1025 l 369 1214 z "},"Ệ":{"ha":811,"x_min":154,"x_max":711,"o":"m 154 969 l 706 969 l 706 867 l 279 867 l 279 554 l 676 554 l 676 447 l 279 447 l 279 104 l 711 104 l 711 0 l 154 0 l 154 969 m 249 1043 l 372 1238 l 500 1238 l 622 1043 l 518 1043 l 433 1160 l 350 1043 l 249 1043 m 388 -126 q 446 -108 406 -108 q 506 -126 489 -108 q 524 -185 524 -144 q 506 -241 524 -224 q 446 -258 489 -258 q 388 -241 406 -258 q 369 -185 369 -224 q 388 -126 369 -144 z "},"Ɇ":{"ha":811,"x_min":154,"x_max":711,"o":"m 154 969 l 535 969 l 578 1135 l 667 1135 l 624 969 l 706 969 l 706 868 l 599 868 l 517 551 l 675 551 l 675 450 l 490 450 l 400 101 l 711 101 l 711 0 l 375 0 l 329 -176 l 242 -176 l 288 0 l 154 0 l 154 969 m 428 551 l 510 868 l 278 868 l 278 551 l 428 551 m 278 450 l 278 101 l 313 101 l 403 450 l 278 450 z "},"Ḟ":{"ha":788,"x_min":154,"x_max":706,"o":"m 154 969 l 706 969 l 706 867 l 279 867 l 279 528 l 676 528 l 676 421 l 279 421 l 279 0 l 154 0 l 154 969 m 388 1199 q 446 1217 406 1217 q 504 1199 486 1217 q 522 1142 522 1182 q 504 1085 522 1103 q 446 1068 486 1068 q 388 1085 406 1068 q 369 1140 369 1101 q 388 1199 369 1181 z "},"G":{"ha":921,"x_min":106,"x_max":807,"o":"m 157 775 q 301 935 207 885 q 525 985 396 985 q 660 974 596 985 q 769 947 725 963 l 769 836 q 650 866 713 856 q 529 876 588 876 q 366 840 432 876 q 267 718 300 803 q 233 489 233 633 q 269 259 233 346 q 376 133 304 172 q 557 94 447 94 q 688 107 622 94 l 690 107 l 690 394 l 501 394 l 501 500 l 807 500 l 807 22 q 680 -5 751 4 q 539 -14 608 -14 q 353 15 435 -14 q 217 105 272 44 q 134 260 163 165 q 106 488 106 356 q 157 775 106 665 z "},"Ĝ":{"ha":921,"x_min":106,"x_max":807,"o":"m 157 775 q 301 935 207 885 q 525 985 396 985 q 660 974 596 985 q 769 947 725 963 l 769 836 q 650 866 713 856 q 529 876 588 876 q 366 840 432 876 q 267 718 300 803 q 233 489 233 633 q 269 259 233 346 q 376 133 304 172 q 557 94 447 94 q 688 107 622 94 l 690 107 l 690 394 l 501 394 l 501 500 l 807 500 l 807 22 q 680 -5 751 4 q 539 -14 608 -14 q 353 15 435 -14 q 217 105 272 44 q 134 260 163 165 q 106 488 106 356 q 157 775 106 665 z "},"Ğ":{"ha":921,"x_min":106,"x_max":807,"o":"m 157 775 q 301 935 207 885 q 525 985 396 985 q 660 974 596 985 q 769 947 725 963 l 769 836 q 650 866 713 856 q 529 876 588 876 q 366 840 432 876 q 267 718 300 803 q 233 489 233 633 q 269 259 233 346 q 376 133 304 172 q 557 94 447 94 q 688 107 622 94 l 690 107 l 690 394 l 501 394 l 501 500 l 807 500 l 807 22 q 680 -5 751 4 q 539 -14 608 -14 q 353 15 435 -14 q 217 105 272 44 q 134 260 163 165 q 106 488 106 356 q 157 775 106 665 m 414 1238 q 438 1158 414 1183 q 513 1133 463 1133 q 585 1158 561 1133 q 608 1228 608 1182 q 608 1238 608 1232 l 706 1238 q 655 1093 706 1143 q 513 1043 604 1043 q 370 1093 422 1043 q 318 1238 318 1143 l 414 1238 z "},"Ġ":{"ha":921,"x_min":106,"x_max":807,"o":"m 157 775 q 301 935 207 885 q 525 985 396 985 q 660 974 596 985 q 769 947 725 963 l 769 836 q 650 866 713 856 q 529 876 588 876 q 366 840 432 876 q 267 718 300 803 q 233 489 233 633 q 269 259 233 346 q 376 133 304 172 q 557 94 447 94 q 688 107 622 94 l 690 107 l 690 394 l 501 394 l 501 500 l 807 500 l 807 22 q 680 -5 751 4 q 539 -14 608 -14 q 353 15 435 -14 q 217 105 272 44 q 134 260 163 165 q 106 488 106 356 q 157 775 106 665 m 453 1199 q 511 1217 471 1217 q 569 1199 551 1217 q 588 1142 588 1182 q 569 1085 588 1103 q 511 1068 551 1068 q 453 1085 471 1068 q 435 1140 435 1101 q 453 1199 435 1181 z "},"Ģ":{"ha":921,"x_min":106,"x_max":807,"o":"m 157 775 q 301 935 207 885 q 525 985 396 985 q 660 974 596 985 q 769 947 725 963 l 769 836 q 650 866 713 856 q 529 876 588 876 q 366 840 432 876 q 267 718 300 803 q 233 489 233 633 q 269 259 233 346 q 376 133 304 172 q 557 94 447 94 q 688 107 622 94 l 690 107 l 690 394 l 501 394 l 501 500 l 807 500 l 807 22 q 680 -5 751 4 q 539 -14 608 -14 q 353 15 435 -14 q 217 105 272 44 q 134 260 163 165 q 106 488 106 356 q 157 775 106 665 m 453 -210 q 464 -100 460 -153 l 581 -100 q 553 -217 569 -160 q 517 -326 538 -275 l 433 -326 q 453 -210 444 -265 z "},"Ǥ":{"ha":946,"x_min":106,"x_max":933,"o":"m 157 775 q 301 934 207 883 q 525 985 396 985 q 663 974 599 985 q 769 946 726 963 l 769 839 q 652 867 714 857 q 529 876 590 876 q 366 840 432 876 q 267 718 300 803 q 233 489 233 633 q 269 258 233 346 q 375 131 304 171 q 554 92 446 92 q 643 96 603 92 q 690 101 667 97 l 690 214 l 503 214 l 503 303 l 690 303 l 690 408 l 501 408 l 501 500 l 807 500 l 807 303 l 933 303 l 933 214 l 807 214 l 807 22 q 680 -5 751 4 q 539 -14 608 -14 q 353 15 435 -14 q 217 105 272 44 q 134 260 163 165 q 106 488 106 356 q 157 775 106 665 z "},"Ǧ":{"ha":921,"x_min":106,"x_max":807,"o":"m 157 775 q 301 935 207 885 q 525 985 396 985 q 660 974 596 985 q 769 947 725 963 l 769 836 q 650 866 713 856 q 529 876 588 876 q 366 840 432 876 q 267 718 300 803 q 233 489 233 633 q 269 259 233 346 q 376 133 304 172 q 557 94 447 94 q 688 107 622 94 l 690 107 l 690 394 l 501 394 l 501 500 l 807 500 l 807 22 q 680 -5 751 4 q 539 -14 608 -14 q 353 15 435 -14 q 217 105 272 44 q 134 260 163 165 q 106 488 106 356 q 157 775 106 665 m 325 1238 l 431 1238 l 514 1121 l 597 1238 l 699 1238 l 576 1043 l 449 1043 l 325 1238 z "},"Ǵ":{"ha":921,"x_min":106,"x_max":807,"o":"m 157 775 q 301 935 207 885 q 525 985 396 985 q 660 974 596 985 q 769 947 725 963 l 769 836 q 650 866 713 856 q 529 876 588 876 q 366 840 432 876 q 267 718 300 803 q 233 489 233 633 q 269 259 233 346 q 376 133 304 172 q 557 94 447 94 q 688 107 622 94 l 690 107 l 690 394 l 501 394 l 501 500 l 807 500 l 807 22 q 680 -5 751 4 q 539 -14 608 -14 q 353 15 435 -14 q 217 105 272 44 q 134 260 163 165 q 106 488 106 356 q 157 775 106 665 m 571 1238 l 708 1238 l 565 1043 l 456 1043 l 571 1238 z "},"Ḡ":{"ha":921,"x_min":106,"x_max":807,"o":"m 157 775 q 301 935 207 885 q 525 985 396 985 q 660 974 596 985 q 769 947 725 963 l 769 836 q 650 866 713 856 q 529 876 588 876 q 366 840 432 876 q 267 718 300 803 q 233 489 233 633 q 269 259 233 346 q 376 133 304 172 q 557 94 447 94 q 688 107 622 94 l 690 107 l 690 394 l 501 394 l 501 500 l 807 500 l 807 22 q 680 -5 751 4 q 539 -14 608 -14 q 353 15 435 -14 q 217 105 272 44 q 134 260 163 165 q 106 488 106 356 q 157 775 106 665 m 711 1168 l 711 1082 l 313 1082 l 313 1168 l 711 1168 z "},"H":{"ha":1022,"x_min":154,"x_max":867,"o":"m 154 969 l 279 969 l 279 549 l 743 549 l 743 969 l 867 969 l 867 0 l 743 0 l 743 440 l 279 440 l 279 0 l 154 0 l 154 969 z "},"Ĥ":{"ha":1022,"x_min":154,"x_max":867,"o":"m 154 969 l 279 969 l 279 549 l 743 549 l 743 969 l 867 969 l 867 0 l 743 0 l 743 440 l 279 440 l 279 0 l 154 0 l 154 969 z "},"Ħ":{"ha":1022,"x_min":154,"x_max":867,"o":"m 154 969 l 279 969 l 279 549 l 743 549 l 743 969 l 867 969 l 867 0 l 743 0 l 743 440 l 279 440 l 279 0 l 154 0 l 154 969 z "},"Ḣ":{"ha":1022,"x_min":154,"x_max":867,"o":"m 154 969 l 279 969 l 279 549 l 743 549 l 743 969 l 867 969 l 867 0 l 743 0 l 743 440 l 279 440 l 279 0 l 154 0 l 154 969 m 451 1199 q 510 1217 469 1217 q 568 1199 550 1217 q 586 1142 586 1182 q 568 1085 586 1103 q 510 1068 550 1068 q 451 1085 469 1068 q 433 1140 433 1101 q 451 1199 433 1181 z "},"Ḥ":{"ha":1022,"x_min":154,"x_max":867,"o":"m 154 969 l 279 969 l 279 549 l 743 549 l 743 969 l 867 969 l 867 0 l 743 0 l 743 440 l 279 440 l 279 0 l 154 0 l 154 969 m 454 -131 q 513 -112 472 -112 q 573 -131 556 -112 q 590 -189 590 -149 q 573 -245 590 -228 q 513 -262 556 -262 q 454 -245 472 -262 q 436 -189 436 -228 q 454 -131 436 -149 z "},"Ḧ":{"ha":1022,"x_min":154,"x_max":867,"o":"m 154 969 l 279 969 l 279 549 l 743 549 l 743 969 l 867 969 l 867 0 l 743 0 l 743 440 l 279 440 l 279 0 l 154 0 l 154 969 m 582 1192 q 635 1208 597 1208 q 689 1192 672 1208 q 706 1139 706 1175 q 689 1090 706 1106 q 635 1074 672 1074 q 581 1090 597 1074 q 565 1139 565 1106 q 582 1192 565 1175 m 321 1192 q 374 1208 336 1208 q 426 1192 410 1208 q 443 1139 443 1175 q 426 1090 443 1106 q 374 1074 410 1074 q 321 1090 336 1074 q 306 1139 306 1106 q 321 1192 306 1175 z "},"Ḩ":{"ha":1022,"x_min":67,"x_max":867,"o":"m 67 -282 l 67 -196 q 124 -210 94 -206 q 179 -215 154 -215 q 239 -200 221 -215 q 257 -158 257 -185 q 243 -109 257 -132 q 208 -60 229 -86 l 163 0 l 154 0 l 154 969 l 279 969 l 279 549 l 743 549 l 743 969 l 867 969 l 867 0 l 743 0 l 743 440 l 279 440 l 279 0 l 275 0 l 301 -35 q 347 -105 329 -69 q 364 -176 364 -140 q 318 -267 364 -235 q 193 -300 272 -300 q 127 -295 160 -300 q 67 -282 94 -290 z "},"Ḫ":{"ha":1022,"x_min":154,"x_max":867,"o":"m 154 969 l 279 969 l 279 549 l 743 549 l 743 969 l 867 969 l 867 0 l 743 0 l 743 440 l 279 440 l 279 0 l 154 0 l 154 969 m 413 -100 q 437 -178 413 -154 q 511 -203 461 -203 q 583 -178 560 -203 q 607 -106 607 -154 q 607 -100 607 -103 l 704 -100 q 653 -244 704 -194 q 511 -294 601 -294 q 367 -244 419 -294 q 315 -100 315 -194 l 413 -100 z "},"Ȟ":{"ha":1022,"x_min":154,"x_max":867,"o":"m 154 969 l 279 969 l 279 549 l 743 549 l 743 969 l 867 969 l 867 0 l 743 0 l 743 440 l 279 440 l 279 0 l 154 0 l 154 969 m 324 1238 l 429 1238 l 513 1121 l 596 1238 l 697 1238 l 575 1043 l 447 1043 l 324 1238 z "},"Ì":{"ha":433,"x_min":25,"x_max":279,"o":"m 279 0 l 154 0 l 154 969 l 279 969 l 279 0 m 161 1238 l 276 1043 l 168 1043 l 25 1238 l 161 1238 z "},"Í":{"ha":433,"x_min":154,"x_max":419,"o":"m 279 0 l 154 0 l 154 969 l 279 969 l 279 0 m 282 1238 l 419 1238 l 276 1043 l 167 1043 l 282 1238 z "},"Î":{"ha":433,"x_min":36,"x_max":410,"o":"m 279 0 l 154 0 l 154 969 l 279 969 l 279 0 m 36 1043 l 160 1238 l 288 1238 l 410 1043 l 306 1043 l 221 1160 l 138 1043 l 36 1043 z "},"Ï":{"ha":433,"x_min":18,"x_max":418,"o":"m 279 0 l 154 0 l 154 969 l 279 969 l 279 0 m 294 1192 q 347 1208 310 1208 q 401 1192 385 1208 q 418 1139 418 1175 q 401 1090 418 1106 q 347 1074 385 1074 q 294 1090 310 1074 q 278 1139 278 1106 q 294 1192 278 1175 m 33 1192 q 86 1208 49 1208 q 139 1192 122 1208 q 156 1139 156 1175 q 139 1090 156 1106 q 86 1074 122 1074 q 33 1090 49 1074 q 18 1139 18 1106 q 33 1192 18 1175 z "},"Ĩ":{"ha":433,"x_min":10,"x_max":431,"o":"m 279 0 l 154 0 l 154 969 l 279 969 l 279 0 m 43 1183 q 131 1226 75 1226 q 179 1217 156 1226 q 225 1192 203 1207 l 246 1178 q 274 1160 261 1168 q 299 1153 286 1153 q 327 1167 315 1153 q 339 1211 339 1182 l 431 1211 q 399 1101 431 1143 q 311 1058 367 1058 q 263 1067 286 1058 q 217 1092 240 1076 l 193 1107 q 167 1124 179 1117 q 143 1131 156 1131 q 115 1116 126 1131 q 103 1071 103 1101 l 10 1071 q 43 1183 10 1140 z "},"Ī":{"ha":433,"x_min":18,"x_max":417,"o":"m 279 0 l 154 0 l 154 969 l 279 969 l 279 0 m 417 1168 l 417 1082 l 18 1082 l 18 1168 l 417 1168 z "},"Ĭ":{"ha":433,"x_min":24,"x_max":411,"o":"m 279 0 l 154 0 l 154 969 l 279 969 l 279 0 m 119 1238 q 144 1158 119 1183 q 218 1133 168 1133 q 290 1158 267 1133 q 314 1228 314 1182 q 314 1238 314 1232 l 411 1238 q 360 1093 411 1143 q 218 1043 310 1043 q 76 1093 128 1043 q 24 1238 24 1143 l 119 1238 z "},"Į":{"ha":433,"x_min":43,"x_max":331,"o":"m 43 -183 q 63 -112 43 -146 q 124 -40 83 -79 l 167 0 l 154 0 l 154 969 l 279 969 l 279 0 l 214 -64 q 166 -120 179 -97 q 153 -162 153 -143 q 168 -194 153 -185 q 217 -204 183 -204 q 267 -200 239 -204 q 331 -186 296 -196 l 331 -282 q 269 -294 303 -289 q 200 -300 235 -300 q 83 -270 124 -300 q 43 -183 43 -240 z "},"İ":{"ha":433,"x_min":140,"x_max":293,"o":"m 279 0 l 154 0 l 154 969 l 279 969 l 279 0 m 158 1199 q 217 1217 176 1217 q 275 1199 257 1217 q 293 1142 293 1182 q 275 1085 293 1103 q 217 1068 257 1068 q 158 1085 176 1068 q 140 1140 140 1101 q 158 1199 140 1181 z "},"Ǐ":{"ha":433,"x_min":154,"x_max":279,"o":"m 279 0 l 154 0 l 154 969 l 279 969 l 279 0 z "},"Ȉ":{"ha":433,"x_min":-29,"x_max":367,"o":"m 279 0 l 154 0 l 154 969 l 279 969 l 279 0 m 93 1238 l 174 1043 l 79 1043 l -29 1238 l 93 1238 m 168 1238 l 288 1238 l 367 1043 l 274 1043 l 168 1238 z "},"Ȋ":{"ha":433,"x_min":22,"x_max":411,"o":"m 279 0 l 154 0 l 154 969 l 279 969 l 279 0 m 22 1044 q 74 1190 22 1140 q 219 1239 126 1239 q 360 1190 310 1239 q 411 1044 411 1140 l 314 1044 q 290 1124 314 1099 q 219 1149 265 1149 q 144 1123 169 1149 q 119 1044 119 1097 l 22 1044 z "},"Ḭ":{"ha":433,"x_min":13,"x_max":433,"o":"m 279 0 l 154 0 l 154 969 l 279 969 l 279 0 m 46 -151 q 133 -108 78 -108 q 182 -118 158 -108 q 228 -143 206 -128 l 249 -157 q 276 -174 264 -167 q 301 -182 289 -182 q 330 -167 318 -182 q 342 -122 342 -151 l 433 -122 q 401 -233 433 -190 q 314 -276 369 -276 q 266 -267 289 -276 q 219 -243 243 -258 l 196 -226 q 170 -210 182 -217 q 146 -203 158 -203 q 117 -217 129 -203 q 106 -262 106 -232 l 13 -262 q 46 -151 13 -193 z "},"Ḯ":{"ha":433,"x_min":18,"x_max":417,"o":"m 279 0 l 154 0 l 154 969 l 279 969 l 279 0 m 158 1225 l 275 1410 l 411 1410 l 268 1225 l 158 1225 m 276 1107 q 292 1159 276 1143 q 346 1175 307 1175 q 399 1159 382 1175 q 417 1107 417 1143 q 399 1057 417 1072 q 346 1042 382 1042 q 292 1057 307 1042 q 276 1107 276 1072 m 35 1160 q 85 1175 50 1175 q 139 1159 122 1175 q 156 1107 156 1143 q 139 1057 156 1072 q 85 1042 122 1042 q 34 1057 50 1042 q 18 1107 18 1072 q 35 1160 18 1143 z "},"Ỉ":{"ha":433,"x_min":103,"x_max":369,"o":"m 279 0 l 154 0 l 154 969 l 279 969 l 279 0 m 164 1281 q 232 1289 197 1289 q 333 1262 297 1289 q 369 1192 369 1235 q 353 1136 369 1157 q 314 1103 336 1115 q 275 1079 292 1090 q 258 1053 258 1068 l 258 1040 l 174 1040 l 174 1060 q 188 1108 174 1092 q 222 1133 203 1124 q 255 1153 240 1143 q 269 1179 269 1163 q 215 1210 269 1210 q 160 1201 189 1210 q 103 1181 132 1193 l 103 1263 q 164 1281 131 1272 z "},"Ị":{"ha":433,"x_min":140,"x_max":294,"o":"m 279 0 l 154 0 l 154 969 l 279 969 l 279 0 m 158 -131 q 217 -112 176 -112 q 277 -131 260 -112 q 294 -189 294 -149 q 277 -245 294 -228 q 217 -262 260 -262 q 158 -245 176 -262 q 140 -189 140 -228 q 158 -131 140 -149 z "},"Ĵ":{"ha":543,"x_min":44,"x_max":526,"o":"m 44 103 q 175 90 115 90 q 246 108 224 90 q 268 176 268 125 l 268 969 l 392 969 l 392 171 q 338 26 392 65 q 186 -14 285 -14 q 110 -10 147 -14 q 44 0 72 -6 l 44 103 m 153 1043 l 276 1238 l 404 1238 l 526 1043 l 422 1043 l 338 1160 l 254 1043 l 153 1043 z "},"Ɉ":{"ha":581,"x_min":44,"x_max":531,"o":"m 175 90 q 246 108 224 90 q 268 176 268 125 l 268 472 l 114 472 l 114 567 l 268 567 l 268 969 l 392 969 l 392 567 l 531 567 l 531 472 l 392 472 l 392 171 q 338 26 392 65 q 186 -14 285 -14 q 110 -10 147 -14 q 44 0 72 -6 l 44 103 q 175 90 115 90 z "},"Ķ":{"ha":906,"x_min":154,"x_max":881,"o":"m 154 969 l 279 969 l 279 463 l 699 969 l 836 969 l 507 563 q 688 306 603 435 q 881 0 785 157 l 736 0 q 568 264 651 136 q 417 474 497 369 l 279 307 l 279 0 l 154 0 l 154 969 m 436 -210 q 447 -100 443 -153 l 564 -100 q 537 -217 553 -160 q 500 -326 521 -275 l 417 -326 q 436 -210 428 -265 z "},"Ḱ":{"ha":906,"x_min":154,"x_max":881,"o":"m 154 969 l 279 969 l 279 463 l 699 969 l 836 969 l 507 563 q 688 306 603 435 q 881 0 785 157 l 736 0 q 568 264 651 136 q 417 474 497 369 l 279 307 l 279 0 l 154 0 l 154 969 m 515 1238 l 653 1238 l 510 1043 l 400 1043 l 515 1238 z "},"Ḳ":{"ha":906,"x_min":154,"x_max":881,"o":"m 154 969 l 279 969 l 279 463 l 699 969 l 836 969 l 507 563 q 688 306 603 435 q 881 0 785 157 l 736 0 q 568 264 651 136 q 417 474 497 369 l 279 307 l 279 0 l 154 0 l 154 969 m 443 -131 q 501 -112 461 -112 q 562 -131 544 -112 q 579 -189 579 -149 q 562 -245 579 -228 q 501 -262 544 -262 q 443 -245 461 -262 q 425 -189 425 -228 q 443 -131 425 -149 z "},"Ḵ":{"ha":906,"x_min":154,"x_max":881,"o":"m 154 969 l 279 969 l 279 463 l 699 969 l 836 969 l 507 563 q 688 306 603 435 q 881 0 785 157 l 736 0 q 568 264 651 136 q 417 474 497 369 l 279 307 l 279 0 l 154 0 l 154 969 m 713 -131 l 713 -217 l 314 -217 l 314 -131 l 713 -131 z "},"K":{"ha":906,"x_min":154,"x_max":881,"o":"m 154 969 l 279 969 l 279 463 l 699 969 l 836 969 l 507 563 q 688 306 603 435 q 881 0 785 157 l 736 0 q 568 264 651 136 q 417 474 497 369 l 279 307 l 279 0 l 154 0 l 154 969 z "},"Ǩ":{"ha":906,"x_min":154,"x_max":881,"o":"m 154 969 l 279 969 l 279 463 l 699 969 l 836 969 l 507 563 q 688 306 603 435 q 881 0 785 157 l 736 0 q 568 264 651 136 q 417 474 497 369 l 279 307 l 279 0 l 154 0 l 154 969 z "},"L":{"ha":761,"x_min":154,"x_max":711,"o":"m 711 0 l 154 0 l 154 969 l 279 969 l 279 104 l 711 104 l 711 0 z "},"Ĺ":{"ha":761,"x_min":154,"x_max":711,"o":"m 711 0 l 154 0 l 154 969 l 279 969 l 279 104 l 711 104 l 711 0 z "},"Ļ":{"ha":761,"x_min":154,"x_max":711,"o":"m 711 0 l 154 0 l 154 969 l 279 969 l 279 104 l 711 104 l 711 0 m 372 -210 q 383 -100 379 -153 l 500 -100 q 473 -217 489 -160 q 436 -326 457 -275 l 353 -326 q 372 -210 364 -265 z "},"Ľ":{"ha":761,"x_min":154,"x_max":711,"o":"m 711 0 l 154 0 l 154 969 l 279 969 l 279 104 l 711 104 l 711 0 m 583 969 l 563 756 l 464 756 l 464 969 l 583 969 z "},"Ŀ":{"ha":761,"x_min":154,"x_max":711,"o":"m 711 0 l 154 0 l 154 969 l 279 969 l 279 104 l 711 104 l 711 0 m 539 563 q 599 581 557 581 q 660 563 643 581 q 678 501 678 544 q 660 445 678 463 q 599 428 643 428 q 538 445 557 428 q 519 501 519 463 q 539 563 519 544 z "},"Ł":{"ha":794,"x_min":63,"x_max":744,"o":"m 63 386 l 63 490 l 188 531 l 188 969 l 313 969 l 313 569 l 517 635 l 517 533 l 313 467 l 313 104 l 744 104 l 744 0 l 188 0 l 188 426 l 63 386 z "},"Ḷ":{"ha":761,"x_min":154,"x_max":711,"o":"m 711 0 l 154 0 l 154 969 l 279 969 l 279 104 l 711 104 l 711 0 m 386 -131 q 444 -112 404 -112 q 505 -131 488 -112 q 522 -189 522 -149 q 505 -245 522 -228 q 444 -262 488 -262 q 386 -245 404 -262 q 368 -189 368 -228 q 386 -131 368 -149 z "},"Ḹ":{"ha":761,"x_min":21,"x_max":711,"o":"m 711 0 l 154 0 l 154 969 l 279 969 l 279 104 l 711 104 l 711 0 m 419 1168 l 419 1082 l 21 1082 l 21 1168 l 419 1168 z "},"Ḻ":{"ha":761,"x_min":154,"x_max":711,"o":"m 711 0 l 154 0 l 154 969 l 279 969 l 279 104 l 711 104 l 711 0 m 644 -131 l 644 -217 l 246 -217 l 246 -131 l 644 -131 z "},"Ḽ":{"ha":761,"x_min":154,"x_max":711,"o":"m 711 0 l 154 0 l 154 969 l 279 969 l 279 104 l 711 104 l 711 0 m 251 -294 l 374 -100 l 501 -100 l 626 -294 l 521 -294 l 439 -179 l 356 -294 l 251 -294 z "},"M":{"ha":1197,"x_min":154,"x_max":1043,"o":"m 154 0 l 154 969 l 290 969 l 599 418 l 901 969 l 1043 969 l 1043 0 l 925 0 l 925 803 l 653 301 l 546 301 l 272 800 l 272 0 l 154 0 z "},"Ḿ":{"ha":1197,"x_min":154,"x_max":1043,"o":"m 154 0 l 154 969 l 290 969 l 599 418 l 901 969 l 1043 969 l 1043 0 l 925 0 l 925 803 l 653 301 l 546 301 l 272 800 l 272 0 l 154 0 z "},"Ṁ":{"ha":1197,"x_min":154,"x_max":1043,"o":"m 154 0 l 154 969 l 290 969 l 599 418 l 901 969 l 1043 969 l 1043 0 l 925 0 l 925 803 l 653 301 l 546 301 l 272 800 l 272 0 l 154 0 m 536 1199 q 594 1217 554 1217 q 653 1199 635 1217 q 671 1142 671 1182 q 653 1085 671 1103 q 594 1068 635 1068 q 536 1085 554 1068 q 518 1140 518 1101 q 536 1199 518 1181 z "},"Ṃ":{"ha":1197,"x_min":154,"x_max":1043,"o":"m 154 0 l 154 969 l 290 969 l 599 418 l 901 969 l 1043 969 l 1043 0 l 925 0 l 925 803 l 653 301 l 546 301 l 272 800 l 272 0 l 154 0 m 542 -131 q 600 -112 560 -112 q 660 -131 643 -112 q 678 -189 678 -149 q 660 -245 678 -228 q 600 -262 643 -262 q 542 -245 560 -262 q 524 -189 524 -228 q 542 -131 524 -149 z "},"Ñ":{"ha":1013,"x_min":154,"x_max":858,"o":"m 154 969 l 303 969 l 744 160 l 744 969 l 858 969 l 858 0 l 710 0 l 269 807 l 269 0 l 154 0 l 154 969 m 333 1183 q 421 1226 365 1226 q 469 1217 446 1226 q 515 1192 493 1207 l 536 1178 q 564 1160 551 1168 q 589 1153 576 1153 q 617 1167 606 1153 q 629 1211 629 1182 l 721 1211 q 689 1101 721 1143 q 601 1058 657 1058 q 553 1067 576 1058 q 507 1092 531 1076 l 483 1107 q 458 1124 469 1117 q 433 1131 446 1131 q 405 1116 417 1131 q 393 1071 393 1101 l 300 1071 q 333 1183 300 1140 z "},"Ń":{"ha":1013,"x_min":154,"x_max":858,"o":"m 154 969 l 303 969 l 744 160 l 744 969 l 858 969 l 858 0 l 710 0 l 269 807 l 269 0 l 154 0 l 154 969 m 558 1238 l 696 1238 l 553 1043 l 443 1043 l 558 1238 z "},"Ņ":{"ha":1013,"x_min":154,"x_max":858,"o":"m 154 969 l 303 969 l 744 160 l 744 969 l 858 969 l 858 0 l 710 0 l 269 807 l 269 0 l 154 0 l 154 969 m 433 -210 q 444 -100 440 -153 l 561 -100 q 534 -217 550 -160 q 497 -326 518 -275 l 414 -326 q 433 -210 425 -265 z "},"N":{"ha":1013,"x_min":154,"x_max":858,"o":"m 154 969 l 303 969 l 744 160 l 744 969 l 858 969 l 858 0 l 710 0 l 269 807 l 269 0 l 154 0 l 154 969 z "},"Ň":{"ha":1013,"x_min":154,"x_max":858,"o":"m 154 969 l 303 969 l 744 160 l 744 969 l 858 969 l 858 0 l 710 0 l 269 807 l 269 0 l 154 0 l 154 969 z "},"Ṅ":{"ha":1013,"x_min":154,"x_max":858,"o":"m 154 969 l 303 969 l 744 160 l 744 969 l 858 969 l 858 0 l 710 0 l 269 807 l 269 0 l 154 0 l 154 969 m 443 1199 q 501 1217 461 1217 q 560 1199 542 1217 q 578 1142 578 1182 q 560 1085 578 1103 q 501 1068 542 1068 q 443 1085 461 1068 q 425 1140 425 1101 q 443 1199 425 1181 z "},"Ṇ":{"ha":1013,"x_min":154,"x_max":858,"o":"m 154 969 l 303 969 l 744 160 l 744 969 l 858 969 l 858 0 l 710 0 l 269 807 l 269 0 l 154 0 l 154 969 m 451 -131 q 510 -112 469 -112 q 570 -131 553 -112 q 588 -189 588 -149 q 570 -245 588 -228 q 510 -262 553 -262 q 451 -245 469 -262 q 433 -189 433 -228 q 451 -131 433 -149 z "},"Ṉ":{"ha":1013,"x_min":154,"x_max":858,"o":"m 154 969 l 303 969 l 744 160 l 744 969 l 858 969 l 858 0 l 710 0 l 269 807 l 269 0 l 154 0 l 154 969 m 710 -131 l 710 -217 l 311 -217 l 311 -131 l 710 -131 z "},"Ṋ":{"ha":1013,"x_min":154,"x_max":858,"o":"m 154 969 l 303 969 l 744 160 l 744 969 l 858 969 l 858 0 l 710 0 l 269 807 l 269 0 l 154 0 l 154 969 m 322 -294 l 444 -100 l 572 -100 l 697 -294 l 592 -294 l 510 -179 l 426 -294 l 322 -294 z "},"Ǹ":{"ha":1013,"x_min":154,"x_max":858,"o":"m 154 969 l 303 969 l 744 160 l 744 969 l 858 969 l 858 0 l 710 0 l 269 807 l 269 0 l 154 0 l 154 969 m 449 1238 l 564 1043 l 456 1043 l 313 1238 l 449 1238 z "},"Ò":{"ha":979,"x_min":106,"x_max":874,"o":"m 106 486 q 132 717 106 622 q 208 872 158 813 q 330 958 258 931 q 490 985 401 985 q 650 958 579 985 q 771 872 721 931 q 847 718 821 814 q 874 485 874 622 q 847 253 874 349 q 771 99 821 158 q 650 13 721 40 q 490 -14 579 -14 q 330 13 401 -14 q 208 99 258 40 q 132 253 158 157 q 106 486 106 349 m 261 260 q 346 133 289 172 q 490 93 403 93 q 635 133 578 93 q 719 259 692 172 q 746 485 746 346 q 719 711 746 625 q 635 837 692 797 q 490 876 578 876 q 346 837 403 876 q 261 711 289 797 q 233 486 233 625 q 261 260 233 346 m 429 1238 l 544 1043 l 436 1043 l 293 1238 l 429 1238 z "},"Ó":{"ha":979,"x_min":106,"x_max":874,"o":"m 106 486 q 132 717 106 622 q 208 872 158 813 q 330 958 258 931 q 490 985 401 985 q 650 958 579 985 q 771 872 721 931 q 847 718 821 814 q 874 485 874 622 q 847 253 874 349 q 771 99 821 158 q 650 13 721 40 q 490 -14 579 -14 q 330 13 401 -14 q 208 99 258 40 q 132 253 158 157 q 106 486 106 349 m 261 260 q 346 133 289 172 q 490 93 403 93 q 635 133 578 93 q 719 259 692 172 q 746 485 746 346 q 719 711 746 625 q 635 837 692 797 q 490 876 578 876 q 346 837 403 876 q 261 711 289 797 q 233 486 233 625 q 261 260 233 346 m 540 1238 l 678 1238 l 535 1043 l 425 1043 l 540 1238 z "},"Ô":{"ha":979,"x_min":106,"x_max":874,"o":"m 106 486 q 132 717 106 622 q 208 872 158 813 q 330 958 258 931 q 490 985 401 985 q 650 958 579 985 q 771 872 721 931 q 847 718 821 814 q 874 485 874 622 q 847 253 874 349 q 771 99 821 158 q 650 13 721 40 q 490 -14 579 -14 q 330 13 401 -14 q 208 99 258 40 q 132 253 158 157 q 106 486 106 349 m 261 260 q 346 133 289 172 q 490 93 403 93 q 635 133 578 93 q 719 259 692 172 q 746 485 746 346 q 719 711 746 625 q 635 837 692 797 q 490 876 578 876 q 346 837 403 876 q 261 711 289 797 q 233 486 233 625 q 261 260 233 346 m 294 1043 l 418 1238 l 546 1238 l 668 1043 l 564 1043 l 479 1160 l 396 1043 l 294 1043 z "},"Õ":{"ha":979,"x_min":106,"x_max":874,"o":"m 106 486 q 132 717 106 622 q 208 872 158 813 q 330 958 258 931 q 490 985 401 985 q 650 958 579 985 q 771 872 721 931 q 847 718 821 814 q 874 485 874 622 q 847 253 874 349 q 771 99 821 158 q 650 13 721 40 q 490 -14 579 -14 q 330 13 401 -14 q 208 99 258 40 q 132 253 158 157 q 106 486 106 349 m 261 260 q 346 133 289 172 q 490 93 403 93 q 635 133 578 93 q 719 259 692 172 q 746 485 746 346 q 719 711 746 625 q 635 837 692 797 q 490 876 578 876 q 346 837 403 876 q 261 711 289 797 q 233 486 233 625 q 261 260 233 346 m 304 1183 q 392 1226 336 1226 q 440 1217 417 1226 q 486 1192 464 1207 l 507 1178 q 535 1160 522 1168 q 560 1153 547 1153 q 588 1167 576 1153 q 600 1211 600 1182 l 692 1211 q 660 1101 692 1143 q 572 1058 628 1058 q 524 1067 547 1058 q 478 1092 501 1076 l 454 1107 q 428 1124 440 1117 q 404 1131 417 1131 q 376 1116 388 1131 q 364 1071 364 1101 l 271 1071 q 304 1183 271 1140 z "},"Ö":{"ha":979,"x_min":106,"x_max":874,"o":"m 106 486 q 132 717 106 622 q 208 872 158 813 q 330 958 258 931 q 490 985 401 985 q 650 958 579 985 q 771 872 721 931 q 847 718 821 814 q 874 485 874 622 q 847 253 874 349 q 771 99 821 158 q 650 13 721 40 q 490 -14 579 -14 q 330 13 401 -14 q 208 99 258 40 q 132 253 158 157 q 106 486 106 349 m 261 260 q 346 133 289 172 q 490 93 403 93 q 635 133 578 93 q 719 259 692 172 q 746 485 746 346 q 719 711 746 625 q 635 837 692 797 q 490 876 578 876 q 346 837 403 876 q 261 711 289 797 q 233 486 233 625 q 261 260 233 346 m 558 1192 q 611 1208 574 1208 q 665 1192 649 1208 q 682 1139 682 1175 q 665 1090 682 1106 q 611 1074 649 1074 q 558 1090 574 1074 q 542 1139 542 1106 q 558 1192 542 1175 m 297 1192 q 350 1208 313 1208 q 403 1192 386 1208 q 419 1139 419 1175 q 403 1090 419 1106 q 350 1074 386 1074 q 297 1090 313 1074 q 282 1139 282 1106 q 297 1192 282 1175 z "},"Ø":{"ha":979,"x_min":106,"x_max":874,"o":"m 132 718 q 208 872 158 813 q 330 958 258 931 q 490 985 401 985 q 650 958 579 985 q 693 938 672 949 l 754 1043 l 869 1043 l 771 872 q 847 718 821 814 q 874 485 874 622 q 847 253 874 349 q 771 99 821 158 q 650 13 721 40 q 490 -14 579 -14 q 331 14 401 -14 q 290 32 310 21 l 224 -85 l 108 -85 l 211 96 l 208 99 q 132 253 158 157 q 106 486 106 349 q 132 718 106 622 m 260 260 q 278 213 268 233 l 636 836 l 636 838 q 490 876 579 876 q 344 837 401 876 q 260 711 288 797 q 232 486 232 625 q 260 260 232 346 m 490 93 q 635 133 579 93 q 719 259 692 172 q 747 485 747 346 q 719 711 747 625 q 703 753 713 733 l 347 131 q 490 93 403 93 z "},"Ō":{"ha":979,"x_min":106,"x_max":874,"o":"m 106 486 q 132 717 106 622 q 208 872 158 813 q 330 958 258 931 q 490 985 401 985 q 650 958 579 985 q 771 872 721 931 q 847 718 821 814 q 874 485 874 622 q 847 253 874 349 q 771 99 821 158 q 650 13 721 40 q 490 -14 579 -14 q 330 13 401 -14 q 208 99 258 40 q 132 253 158 157 q 106 486 106 349 m 261 260 q 346 133 289 172 q 490 93 403 93 q 635 133 578 93 q 719 259 692 172 q 746 485 746 346 q 719 711 746 625 q 635 837 692 797 q 490 876 578 876 q 346 837 403 876 q 261 711 289 797 q 233 486 233 625 q 261 260 233 346 z "},"Ŏ":{"ha":979,"x_min":106,"x_max":874,"o":"m 106 486 q 132 717 106 622 q 208 872 158 813 q 330 958 258 931 q 490 985 401 985 q 650 958 579 985 q 771 872 721 931 q 847 718 821 814 q 874 485 874 622 q 847 253 874 349 q 771 99 821 158 q 650 13 721 40 q 490 -14 579 -14 q 330 13 401 -14 q 208 99 258 40 q 132 253 158 157 q 106 486 106 349 m 261 260 q 346 133 289 172 q 490 93 403 93 q 635 133 578 93 q 719 259 692 172 q 746 485 746 346 q 719 711 746 625 q 635 837 692 797 q 490 876 578 876 q 346 837 403 876 q 261 711 289 797 q 233 486 233 625 q 261 260 233 346 m 383 1238 q 408 1158 383 1183 q 482 1133 432 1133 q 554 1158 531 1133 q 578 1228 578 1182 q 578 1238 578 1232 l 675 1238 q 624 1093 675 1143 q 482 1043 574 1043 q 340 1093 392 1043 q 288 1238 288 1143 l 383 1238 z "},"Ő":{"ha":979,"x_min":106,"x_max":874,"o":"m 106 486 q 132 717 106 622 q 208 872 158 813 q 330 958 258 931 q 490 985 401 985 q 650 958 579 985 q 771 872 721 931 q 847 718 821 814 q 874 485 874 622 q 847 253 874 349 q 771 99 821 158 q 650 13 721 40 q 490 -14 579 -14 q 330 13 401 -14 q 208 99 258 40 q 132 253 158 157 q 106 486 106 349 m 261 260 q 346 133 289 172 q 490 93 403 93 q 635 133 578 93 q 719 259 692 172 q 746 485 746 346 q 719 711 746 625 q 635 837 692 797 q 490 876 578 876 q 346 837 403 876 q 261 711 289 797 q 233 486 233 625 q 261 260 233 346 m 610 1238 l 732 1238 l 624 1043 l 528 1043 l 610 1238 m 335 1043 l 417 1238 l 538 1238 l 429 1043 l 335 1043 z "},"Ǒ":{"ha":979,"x_min":106,"x_max":874,"o":"m 106 486 q 132 717 106 622 q 208 872 158 813 q 330 958 258 931 q 490 985 401 985 q 650 958 579 985 q 771 872 721 931 q 847 718 821 814 q 874 485 874 622 q 847 253 874 349 q 771 99 821 158 q 650 13 721 40 q 490 -14 579 -14 q 330 13 401 -14 q 208 99 258 40 q 132 253 158 157 q 106 486 106 349 m 261 260 q 346 133 289 172 q 490 93 403 93 q 635 133 578 93 q 719 259 692 172 q 746 485 746 346 q 719 711 746 625 q 635 837 692 797 q 490 876 578 876 q 346 837 403 876 q 261 711 289 797 q 233 486 233 625 q 261 260 233 346 m 294 1238 l 400 1238 l 483 1121 l 567 1238 l 668 1238 l 546 1043 l 418 1043 l 294 1238 z "},"Ǫ":{"ha":979,"x_min":106,"x_max":874,"o":"m 106 486 q 132 717 106 622 q 208 872 158 813 q 330 958 258 931 q 490 985 401 985 q 650 958 579 985 q 771 872 721 931 q 847 718 821 814 q 874 485 874 622 q 836 218 874 321 q 725 54 799 115 l 583 -68 q 524 -126 540 -106 q 508 -165 508 -147 q 521 -193 508 -182 q 564 -204 533 -204 q 610 -200 582 -204 q 672 -186 638 -196 l 672 -282 q 610 -294 643 -289 q 542 -300 576 -300 q 433 -269 468 -300 q 399 -186 399 -237 q 419 -117 399 -149 q 492 -40 440 -85 l 525 -12 q 490 -14 506 -14 q 330 13 401 -14 q 208 99 258 40 q 132 253 158 157 q 106 486 106 349 m 233 486 q 261 260 233 346 q 346 134 289 174 q 490 94 403 94 q 635 134 578 94 q 719 260 692 174 q 746 485 746 346 q 719 711 746 625 q 635 837 692 797 q 490 876 578 876 q 346 837 403 876 q 261 711 289 797 q 233 486 233 625 z "},"Ǭ":{"ha":979,"x_min":106,"x_max":874,"o":"m 106 486 q 132 717 106 622 q 208 872 158 813 q 330 958 258 931 q 490 985 401 985 q 650 958 579 985 q 771 872 721 931 q 847 718 821 814 q 874 485 874 622 q 836 218 874 321 q 725 54 799 115 l 583 -68 q 524 -126 540 -106 q 508 -165 508 -147 q 521 -193 508 -182 q 564 -204 533 -204 q 610 -200 582 -204 q 672 -186 638 -196 l 672 -282 q 610 -294 643 -289 q 542 -300 576 -300 q 433 -269 468 -300 q 399 -186 399 -237 q 419 -117 399 -149 q 492 -40 440 -85 l 525 -12 q 490 -14 506 -14 q 330 13 401 -14 q 208 99 258 40 q 132 253 158 157 q 106 486 106 349 m 233 486 q 261 260 233 346 q 346 134 289 174 q 490 94 403 94 q 635 134 578 94 q 719 260 692 174 q 746 485 746 346 q 719 711 746 625 q 635 837 692 797 q 490 876 578 876 q 346 837 403 876 q 261 711 289 797 q 233 486 233 625 m 681 1168 l 681 1082 l 282 1082 l 282 1168 l 681 1168 z "},"Ǿ":{"ha":979,"x_min":106,"x_max":874,"o":"m 132 718 q 208 872 158 813 q 330 958 258 931 q 490 985 401 985 q 650 958 579 985 q 693 938 672 949 l 754 1043 l 869 1043 l 771 872 q 847 718 821 814 q 874 485 874 622 q 847 253 874 349 q 771 99 821 158 q 650 13 721 40 q 490 -14 579 -14 q 331 14 401 -14 q 290 32 310 21 l 224 -85 l 108 -85 l 211 96 l 208 99 q 132 253 158 157 q 106 486 106 349 q 132 718 106 622 m 260 260 q 278 213 268 233 l 636 836 l 636 838 q 490 876 579 876 q 344 837 401 876 q 260 711 288 797 q 232 486 232 625 q 260 260 232 346 m 490 93 q 635 133 579 93 q 719 259 692 172 q 747 485 747 346 q 719 711 747 625 q 703 753 713 733 l 347 131 q 490 93 403 93 m 538 1238 l 675 1238 l 532 1043 l 422 1043 l 538 1238 z "},"Ȍ":{"ha":979,"x_min":106,"x_max":874,"o":"m 106 486 q 132 717 106 622 q 208 872 158 813 q 330 958 258 931 q 490 985 401 985 q 650 958 579 985 q 771 872 721 931 q 847 718 821 814 q 874 485 874 622 q 847 253 874 349 q 771 99 821 158 q 650 13 721 40 q 490 -14 579 -14 q 330 13 401 -14 q 208 99 258 40 q 132 253 158 157 q 106 486 106 349 m 261 260 q 346 133 289 172 q 490 93 403 93 q 635 133 578 93 q 719 259 692 172 q 746 485 746 346 q 719 711 746 625 q 635 837 692 797 q 490 876 578 876 q 346 837 403 876 q 261 711 289 797 q 233 486 233 625 q 261 260 233 346 m 351 1238 l 432 1043 l 338 1043 l 229 1238 l 351 1238 m 426 1238 l 546 1238 l 625 1043 l 532 1043 l 426 1238 z "},"Ȏ":{"ha":979,"x_min":106,"x_max":874,"o":"m 106 486 q 132 717 106 622 q 208 872 158 813 q 330 958 258 931 q 490 985 401 985 q 650 958 579 985 q 771 872 721 931 q 847 718 821 814 q 874 485 874 622 q 847 253 874 349 q 771 99 821 158 q 650 13 721 40 q 490 -14 579 -14 q 330 13 401 -14 q 208 99 258 40 q 132 253 158 157 q 106 486 106 349 m 261 260 q 346 133 289 172 q 490 93 403 93 q 635 133 578 93 q 719 259 692 172 q 746 485 746 346 q 719 711 746 625 q 635 837 692 797 q 490 876 578 876 q 346 837 403 876 q 261 711 289 797 q 233 486 233 625 q 261 260 233 346 m 286 1044 q 338 1190 286 1140 q 483 1239 390 1239 q 624 1190 574 1239 q 675 1044 675 1140 l 578 1044 q 553 1124 578 1099 q 483 1149 529 1149 q 408 1123 433 1149 q 383 1044 383 1097 l 286 1044 z "},"Ȫ":{"ha":979,"x_min":106,"x_max":874,"o":"m 106 486 q 132 717 106 622 q 208 872 158 813 q 330 958 258 931 q 490 985 401 985 q 650 958 579 985 q 771 872 721 931 q 847 718 821 814 q 874 485 874 622 q 847 253 874 349 q 771 99 821 158 q 650 13 721 40 q 490 -14 579 -14 q 330 13 401 -14 q 208 99 258 40 q 132 253 158 157 q 106 486 106 349 m 261 260 q 346 133 289 172 q 490 93 403 93 q 635 133 578 93 q 719 259 692 172 q 746 485 746 346 q 719 711 746 625 q 635 837 692 797 q 490 876 578 876 q 346 837 403 876 q 261 711 289 797 q 233 486 233 625 q 261 260 233 346 m 282 1328 l 681 1328 l 681 1242 l 282 1242 l 282 1328 m 540 1107 q 557 1159 540 1143 q 611 1175 574 1175 q 664 1159 647 1175 q 681 1107 681 1143 q 664 1057 681 1072 q 611 1042 647 1042 q 557 1057 574 1042 q 540 1107 540 1072 m 299 1160 q 349 1175 314 1175 q 403 1159 386 1175 q 419 1107 419 1143 q 403 1057 419 1072 q 349 1042 386 1042 q 298 1057 314 1042 q 282 1107 282 1072 q 299 1160 282 1143 z "},"Ȭ":{"ha":979,"x_min":106,"x_max":874,"o":"m 106 486 q 132 717 106 622 q 208 872 158 813 q 330 958 258 931 q 490 985 401 985 q 650 958 579 985 q 771 872 721 931 q 847 718 821 814 q 874 485 874 622 q 847 253 874 349 q 771 99 821 158 q 650 13 721 40 q 490 -14 579 -14 q 330 13 401 -14 q 208 99 258 40 q 132 253 158 157 q 106 486 106 349 m 261 260 q 346 133 289 172 q 490 93 403 93 q 635 133 578 93 q 719 259 692 172 q 746 485 746 346 q 719 711 746 625 q 635 837 692 797 q 490 876 578 876 q 346 837 403 876 q 261 711 289 797 q 233 486 233 625 q 261 260 233 346 m 304 1154 q 392 1197 336 1197 q 440 1188 417 1197 q 486 1163 464 1178 l 507 1149 q 535 1131 522 1139 q 560 1124 547 1124 q 588 1138 576 1124 q 600 1183 600 1153 l 692 1183 q 660 1072 692 1115 q 572 1029 628 1029 q 524 1038 547 1029 q 478 1063 501 1047 l 454 1079 q 428 1095 440 1088 q 404 1103 417 1103 q 376 1088 388 1103 q 364 1042 364 1072 l 271 1042 q 304 1154 271 1111 m 283 1332 l 682 1332 l 682 1247 l 283 1247 l 283 1332 z "},"Ȯ":{"ha":979,"x_min":106,"x_max":874,"o":"m 106 486 q 132 717 106 622 q 208 872 158 813 q 330 958 258 931 q 490 985 401 985 q 650 958 579 985 q 771 872 721 931 q 847 718 821 814 q 874 485 874 622 q 847 253 874 349 q 771 99 821 158 q 650 13 721 40 q 490 -14 579 -14 q 330 13 401 -14 q 208 99 258 40 q 132 253 158 157 q 106 486 106 349 m 261 260 q 346 133 289 172 q 490 93 403 93 q 635 133 578 93 q 719 259 692 172 q 746 485 746 346 q 719 711 746 625 q 635 837 692 797 q 490 876 578 876 q 346 837 403 876 q 261 711 289 797 q 233 486 233 625 q 261 260 233 346 m 422 1199 q 481 1217 440 1217 q 539 1199 521 1217 q 557 1142 557 1182 q 539 1085 557 1103 q 481 1068 521 1068 q 422 1085 440 1068 q 404 1140 404 1101 q 422 1199 404 1181 z "},"Ȱ":{"ha":979,"x_min":106,"x_max":874,"o":"m 106 486 q 132 717 106 622 q 208 872 158 813 q 330 958 258 931 q 490 985 401 985 q 650 958 579 985 q 771 872 721 931 q 847 718 821 814 q 874 485 874 622 q 847 253 874 349 q 771 99 821 158 q 650 13 721 40 q 490 -14 579 -14 q 330 13 401 -14 q 208 99 258 40 q 132 253 158 157 q 106 486 106 349 m 261 260 q 346 133 289 172 q 490 93 403 93 q 635 133 578 93 q 719 259 692 172 q 746 485 746 346 q 719 711 746 625 q 635 837 692 797 q 490 876 578 876 q 346 837 403 876 q 261 711 289 797 q 233 486 233 625 q 261 260 233 346 m 282 1336 l 681 1336 l 681 1250 l 282 1250 l 282 1336 m 424 1171 q 481 1188 442 1188 q 539 1170 521 1188 q 557 1113 557 1153 q 539 1056 557 1074 q 481 1039 521 1039 q 423 1056 442 1039 q 404 1113 404 1074 q 424 1171 404 1153 z "},"Ṍ":{"ha":979,"x_min":106,"x_max":874,"o":"m 106 486 q 132 717 106 622 q 208 872 158 813 q 330 958 258 931 q 490 985 401 985 q 650 958 579 985 q 771 872 721 931 q 847 718 821 814 q 874 485 874 622 q 847 253 874 349 q 771 99 821 158 q 650 13 721 40 q 490 -14 579 -14 q 330 13 401 -14 q 208 99 258 40 q 132 253 158 157 q 106 486 106 349 m 261 260 q 346 133 289 172 q 490 93 403 93 q 635 133 578 93 q 719 259 692 172 q 746 485 746 346 q 719 711 746 625 q 635 837 692 797 q 490 876 578 876 q 346 837 403 876 q 261 711 289 797 q 233 486 233 625 q 261 260 233 346 m 304 1154 q 392 1197 336 1197 q 440 1188 417 1197 q 486 1163 464 1178 l 507 1149 q 535 1131 522 1139 q 560 1124 547 1124 q 588 1138 576 1124 q 600 1183 600 1153 l 692 1183 q 660 1072 692 1115 q 572 1029 628 1029 q 524 1038 547 1029 q 478 1063 501 1047 l 454 1079 q 428 1095 440 1088 q 404 1103 417 1103 q 376 1088 388 1103 q 364 1042 364 1072 l 271 1042 q 304 1154 271 1111 m 542 1410 l 681 1410 l 533 1226 l 422 1226 l 542 1410 z "},"Ṏ":{"ha":979,"x_min":106,"x_max":874,"o":"m 106 486 q 132 717 106 622 q 208 872 158 813 q 330 958 258 931 q 490 985 401 985 q 650 958 579 985 q 771 872 721 931 q 847 718 821 814 q 874 485 874 622 q 847 253 874 349 q 771 99 821 158 q 650 13 721 40 q 490 -14 579 -14 q 330 13 401 -14 q 208 99 258 40 q 132 253 158 157 q 106 486 106 349 m 261 260 q 346 133 289 172 q 490 93 403 93 q 635 133 578 93 q 719 259 692 172 q 746 485 746 346 q 719 711 746 625 q 635 837 692 797 q 490 876 578 876 q 346 837 403 876 q 261 711 289 797 q 233 486 233 625 q 261 260 233 346 m 304 1154 q 392 1197 336 1197 q 440 1188 417 1197 q 486 1163 464 1178 l 507 1149 q 535 1131 522 1139 q 560 1124 547 1124 q 588 1138 576 1124 q 600 1183 600 1153 l 692 1183 q 660 1072 692 1115 q 572 1029 628 1029 q 524 1038 547 1029 q 478 1063 501 1047 l 454 1079 q 428 1095 440 1088 q 404 1103 417 1103 q 376 1088 388 1103 q 364 1042 364 1072 l 271 1042 q 304 1154 271 1111 m 299 1365 q 351 1381 315 1381 q 406 1365 389 1381 q 422 1315 422 1349 q 406 1263 422 1281 q 351 1246 389 1246 q 299 1263 315 1246 q 282 1315 282 1281 q 299 1365 282 1349 m 560 1365 q 613 1381 575 1381 q 665 1365 649 1381 q 682 1315 682 1349 q 665 1263 682 1281 q 613 1246 649 1246 q 559 1263 575 1246 q 543 1315 543 1281 q 560 1365 543 1349 z "},"Ṑ":{"ha":979,"x_min":106,"x_max":874,"o":"m 106 486 q 132 717 106 622 q 208 872 158 813 q 330 958 258 931 q 490 985 401 985 q 650 958 579 985 q 771 872 721 931 q 847 718 821 814 q 874 485 874 622 q 847 253 874 349 q 771 99 821 158 q 650 13 721 40 q 490 -14 579 -14 q 330 13 401 -14 q 208 99 258 40 q 132 253 158 157 q 106 486 106 349 m 261 260 q 346 133 289 172 q 490 93 403 93 q 635 133 578 93 q 719 259 692 172 q 746 485 746 346 q 719 711 746 625 q 635 837 692 797 q 490 876 578 876 q 346 837 403 876 q 261 711 289 797 q 233 486 233 625 q 261 260 233 346 m 681 1125 l 681 1039 l 282 1039 l 282 1125 l 681 1125 m 417 1365 l 533 1171 l 425 1171 l 282 1365 l 417 1365 z "},"Ṓ":{"ha":979,"x_min":106,"x_max":874,"o":"m 106 486 q 132 717 106 622 q 208 872 158 813 q 330 958 258 931 q 490 985 401 985 q 650 958 579 985 q 771 872 721 931 q 847 718 821 814 q 874 485 874 622 q 847 253 874 349 q 771 99 821 158 q 650 13 721 40 q 490 -14 579 -14 q 330 13 401 -14 q 208 99 258 40 q 132 253 158 157 q 106 486 106 349 m 261 260 q 346 133 289 172 q 490 93 403 93 q 635 133 578 93 q 719 259 692 172 q 746 485 746 346 q 719 711 746 625 q 635 837 692 797 q 490 876 578 876 q 346 837 403 876 q 261 711 289 797 q 233 486 233 625 q 261 260 233 346 m 681 1125 l 681 1039 l 282 1039 l 282 1125 l 681 1125 m 542 1365 l 681 1365 l 535 1171 l 426 1171 l 542 1365 z "},"Ọ":{"ha":979,"x_min":106,"x_max":874,"o":"m 106 486 q 132 717 106 622 q 208 872 158 813 q 330 958 258 931 q 490 985 401 985 q 650 958 579 985 q 771 872 721 931 q 847 718 821 814 q 874 485 874 622 q 847 253 874 349 q 771 99 821 158 q 650 13 721 40 q 490 -14 579 -14 q 330 13 401 -14 q 208 99 258 40 q 132 253 158 157 q 106 486 106 349 m 261 260 q 346 133 289 172 q 490 93 403 93 q 635 133 578 93 q 719 259 692 172 q 746 485 746 346 q 719 711 746 625 q 635 837 692 797 q 490 876 578 876 q 346 837 403 876 q 261 711 289 797 q 233 486 233 625 q 261 260 233 346 m 426 -131 q 485 -112 444 -112 q 545 -131 528 -112 q 563 -189 563 -149 q 545 -245 563 -228 q 485 -262 528 -262 q 426 -245 444 -262 q 408 -189 408 -228 q 426 -131 408 -149 z "},"Ỏ":{"ha":979,"x_min":106,"x_max":874,"o":"m 106 486 q 132 717 106 622 q 208 872 158 813 q 330 958 258 931 q 490 985 401 985 q 650 958 579 985 q 771 872 721 931 q 847 718 821 814 q 874 485 874 622 q 847 253 874 349 q 771 99 821 158 q 650 13 721 40 q 490 -14 579 -14 q 330 13 401 -14 q 208 99 258 40 q 132 253 158 157 q 106 486 106 349 m 261 260 q 346 133 289 172 q 490 93 403 93 q 635 133 578 93 q 719 259 692 172 q 746 485 746 346 q 719 711 746 625 q 635 837 692 797 q 490 876 578 876 q 346 837 403 876 q 261 711 289 797 q 233 486 233 625 q 261 260 233 346 m 419 1281 q 488 1289 453 1289 q 589 1262 553 1289 q 625 1192 625 1235 q 608 1136 625 1157 q 569 1103 592 1115 q 531 1079 547 1090 q 514 1053 514 1068 l 514 1040 l 429 1040 l 429 1060 q 444 1108 429 1092 q 477 1133 458 1124 q 510 1153 496 1143 q 525 1179 525 1163 q 471 1210 525 1210 q 416 1201 444 1210 q 358 1181 388 1193 l 358 1263 q 419 1281 386 1272 z "},"Ố":{"ha":979,"x_min":106,"x_max":874,"o":"m 106 486 q 132 717 106 622 q 208 872 158 813 q 330 958 258 931 q 490 985 401 985 q 650 958 579 985 q 771 872 721 931 q 847 718 821 814 q 874 485 874 622 q 847 253 874 349 q 771 99 821 158 q 650 13 721 40 q 490 -14 579 -14 q 330 13 401 -14 q 208 99 258 40 q 132 253 158 157 q 106 486 106 349 m 261 260 q 346 133 289 172 q 490 93 403 93 q 635 133 578 93 q 719 259 692 172 q 746 485 746 346 q 719 711 746 625 q 635 837 692 797 q 490 876 578 876 q 346 837 403 876 q 261 711 289 797 q 233 486 233 625 q 261 260 233 346 m 292 1025 l 413 1214 l 547 1214 l 665 1025 l 561 1025 l 478 1139 l 393 1025 l 292 1025 m 435 1260 l 531 1410 l 668 1410 l 546 1260 l 435 1260 z "},"Ồ":{"ha":979,"x_min":106,"x_max":874,"o":"m 106 486 q 132 717 106 622 q 208 872 158 813 q 330 958 258 931 q 490 985 401 985 q 650 958 579 985 q 771 872 721 931 q 847 718 821 814 q 874 485 874 622 q 847 253 874 349 q 771 99 821 158 q 650 13 721 40 q 490 -14 579 -14 q 330 13 401 -14 q 208 99 258 40 q 132 253 158 157 q 106 486 106 349 m 261 260 q 346 133 289 172 q 490 93 403 93 q 635 133 578 93 q 719 259 692 172 q 746 485 746 346 q 719 711 746 625 q 635 837 692 797 q 490 876 578 876 q 346 837 403 876 q 261 711 289 797 q 233 486 233 625 q 261 260 233 346 m 415 1214 l 547 1214 l 668 1025 l 563 1025 l 479 1140 l 394 1025 l 293 1025 l 415 1214 m 294 1410 l 431 1410 l 529 1260 l 418 1260 l 294 1410 z "},"Ổ":{"ha":979,"x_min":106,"x_max":874,"o":"m 106 486 q 132 717 106 622 q 208 872 158 813 q 330 958 258 931 q 490 985 401 985 q 650 958 579 985 q 771 872 721 931 q 847 718 821 814 q 874 485 874 622 q 847 253 874 349 q 771 99 821 158 q 650 13 721 40 q 490 -14 579 -14 q 330 13 401 -14 q 208 99 258 40 q 132 253 158 157 q 106 486 106 349 m 261 260 q 346 133 289 172 q 490 93 403 93 q 635 133 578 93 q 719 259 692 172 q 746 485 746 346 q 719 711 746 625 q 635 837 692 797 q 490 876 578 876 q 346 837 403 876 q 261 711 289 797 q 233 486 233 625 q 261 260 233 346 m 415 1214 l 547 1214 l 668 1025 l 563 1025 l 479 1140 l 394 1025 l 293 1025 l 415 1214 m 590 1439 q 658 1446 624 1446 q 759 1419 724 1446 q 794 1349 794 1392 q 778 1293 794 1314 q 740 1260 761 1272 q 701 1237 718 1247 q 685 1211 685 1226 l 685 1199 l 597 1199 l 597 1218 q 612 1265 597 1249 q 646 1291 626 1282 q 680 1310 665 1300 q 694 1338 694 1319 q 642 1367 694 1367 q 585 1359 614 1367 q 528 1339 556 1351 l 528 1419 q 590 1439 556 1431 z "},"Ỗ":{"ha":979,"x_min":106,"x_max":874,"o":"m 106 486 q 132 717 106 622 q 208 872 158 813 q 330 958 258 931 q 490 985 401 985 q 650 958 579 985 q 771 872 721 931 q 847 718 821 814 q 874 485 874 622 q 847 253 874 349 q 771 99 821 158 q 650 13 721 40 q 490 -14 579 -14 q 330 13 401 -14 q 208 99 258 40 q 132 253 158 157 q 106 486 106 349 m 261 260 q 346 133 289 172 q 490 93 403 93 q 635 133 578 93 q 719 259 692 172 q 746 485 746 346 q 719 711 746 625 q 635 837 692 797 q 490 876 578 876 q 346 837 403 876 q 261 711 289 797 q 233 486 233 625 q 261 260 233 346 m 304 1386 q 392 1428 336 1428 q 440 1418 417 1428 q 486 1393 464 1408 l 507 1379 q 535 1363 522 1369 q 560 1356 547 1356 q 588 1370 576 1356 q 600 1414 600 1385 l 692 1414 q 660 1303 692 1346 q 572 1260 628 1260 q 524 1269 547 1260 q 478 1293 501 1278 l 454 1310 q 428 1326 440 1319 q 404 1333 417 1333 q 376 1319 388 1333 q 364 1274 364 1304 l 271 1274 q 304 1386 271 1343 m 415 1214 l 547 1214 l 668 1025 l 563 1025 l 479 1140 l 394 1025 l 293 1025 l 415 1214 z "},"Ộ":{"ha":979,"x_min":106,"x_max":874,"o":"m 106 486 q 132 717 106 622 q 208 872 158 813 q 330 958 258 931 q 490 985 401 985 q 650 958 579 985 q 771 872 721 931 q 847 718 821 814 q 874 485 874 622 q 847 253 874 349 q 771 99 821 158 q 650 13 721 40 q 490 -14 579 -14 q 330 13 401 -14 q 208 99 258 40 q 132 253 158 157 q 106 486 106 349 m 261 260 q 346 133 289 172 q 490 93 403 93 q 635 133 578 93 q 719 259 692 172 q 746 485 746 346 q 719 711 746 625 q 635 837 692 797 q 490 876 578 876 q 346 837 403 876 q 261 711 289 797 q 233 486 233 625 q 261 260 233 346 m 294 1043 l 418 1238 l 546 1238 l 668 1043 l 564 1043 l 479 1160 l 396 1043 l 294 1043 m 432 -131 q 490 -112 450 -112 q 551 -131 533 -112 q 568 -189 568 -149 q 551 -245 568 -228 q 490 -262 533 -262 q 432 -245 450 -262 q 414 -189 414 -228 q 432 -131 414 -149 z "},"P":{"ha":872,"x_min":154,"x_max":793,"o":"m 154 969 l 475 969 q 640 938 568 969 q 752 838 711 906 q 793 664 793 771 q 752 490 793 557 q 640 390 711 422 q 475 358 568 358 l 279 358 l 279 0 l 154 0 l 154 969 m 279 867 l 279 461 l 468 461 q 611 512 557 461 q 665 664 665 563 q 611 815 665 764 q 468 867 557 867 l 279 867 z "},"Ṕ":{"ha":872,"x_min":154,"x_max":793,"o":"m 154 969 l 475 969 q 640 938 568 969 q 752 838 711 906 q 793 664 793 771 q 752 490 793 557 q 640 390 711 422 q 475 358 568 358 l 279 358 l 279 0 l 154 0 l 154 969 m 279 867 l 279 461 l 468 461 q 611 512 557 461 q 665 664 665 563 q 611 815 665 764 q 468 867 557 867 l 279 867 z "},"Ṗ":{"ha":872,"x_min":154,"x_max":793,"o":"m 154 969 l 475 969 q 640 938 568 969 q 752 838 711 906 q 793 664 793 771 q 752 490 793 557 q 640 390 711 422 q 475 358 568 358 l 279 358 l 279 0 l 154 0 l 154 969 m 279 867 l 279 461 l 468 461 q 611 512 557 461 q 665 664 665 563 q 611 815 665 764 q 468 867 557 867 l 279 867 m 376 1199 q 435 1217 394 1217 q 493 1199 475 1217 q 511 1142 511 1182 q 493 1085 511 1103 q 435 1068 475 1068 q 376 1085 394 1068 q 358 1140 358 1101 q 376 1199 358 1181 z "},"R":{"ha":911,"x_min":154,"x_max":833,"o":"m 154 0 l 154 969 l 469 969 q 635 940 564 969 q 747 849 707 910 q 788 692 788 788 q 744 535 788 599 q 632 442 701 472 q 578 422 606 429 q 701 232 642 331 q 833 0 769 117 l 688 0 q 564 225 631 110 q 451 404 510 315 l 451 403 l 279 403 l 279 0 l 154 0 m 279 867 l 279 507 l 467 507 q 562 526 518 507 q 633 585 606 544 q 661 690 661 625 q 607 822 661 778 q 463 867 553 867 l 279 867 z "},"Ŕ":{"ha":911,"x_min":154,"x_max":833,"o":"m 154 0 l 154 969 l 469 969 q 635 940 564 969 q 747 849 707 910 q 788 692 788 788 q 744 535 788 599 q 632 442 701 472 q 578 422 606 429 q 701 232 642 331 q 833 0 769 117 l 688 0 q 564 225 631 110 q 451 404 510 315 l 451 403 l 279 403 l 279 0 l 154 0 m 279 867 l 279 507 l 467 507 q 562 526 518 507 q 633 585 606 544 q 661 690 661 625 q 607 822 661 778 q 463 867 553 867 l 279 867 z "},"Ř":{"ha":911,"x_min":154,"x_max":833,"o":"m 154 0 l 154 969 l 469 969 q 635 940 564 969 q 747 849 707 910 q 788 692 788 788 q 744 535 788 599 q 632 442 701 472 q 578 422 606 429 q 701 232 642 331 q 833 0 769 117 l 688 0 q 564 225 631 110 q 451 404 510 315 l 451 403 l 279 403 l 279 0 l 154 0 m 279 867 l 279 507 l 467 507 q 562 526 518 507 q 633 585 606 544 q 661 690 661 625 q 607 822 661 778 q 463 867 553 867 l 279 867 z "},"Ŗ":{"ha":911,"x_min":154,"x_max":833,"o":"m 154 0 l 154 969 l 469 969 q 635 940 564 969 q 747 849 707 910 q 788 692 788 788 q 744 535 788 599 q 632 442 701 472 q 578 422 606 429 q 701 232 642 331 q 833 0 769 117 l 688 0 q 564 225 631 110 q 451 404 510 315 l 451 403 l 279 403 l 279 0 l 154 0 m 279 867 l 279 507 l 467 507 q 562 526 518 507 q 633 585 606 544 q 661 690 661 625 q 607 822 661 778 q 463 867 553 867 l 279 867 m 413 -210 q 424 -100 419 -153 l 540 -100 q 513 -217 529 -160 q 476 -326 497 -275 l 393 -326 q 413 -210 404 -265 z "},"Ȑ":{"ha":911,"x_min":154,"x_max":833,"o":"m 154 0 l 154 969 l 469 969 q 635 940 564 969 q 747 849 707 910 q 788 692 788 788 q 744 535 788 599 q 632 442 701 472 q 578 422 606 429 q 701 232 642 331 q 833 0 769 117 l 688 0 q 564 225 631 110 q 451 404 510 315 l 451 403 l 279 403 l 279 0 l 154 0 m 279 867 l 279 507 l 467 507 q 562 526 518 507 q 633 585 606 544 q 661 690 661 625 q 607 822 661 778 q 463 867 553 867 l 279 867 m 322 1238 l 403 1043 l 308 1043 l 200 1238 l 322 1238 m 397 1238 l 517 1238 l 596 1043 l 503 1043 l 397 1238 z "},"Ȓ":{"ha":911,"x_min":154,"x_max":833,"o":"m 154 0 l 154 969 l 469 969 q 635 940 564 969 q 747 849 707 910 q 788 692 788 788 q 744 535 788 599 q 632 442 701 472 q 578 422 606 429 q 701 232 642 331 q 833 0 769 117 l 688 0 q 564 225 631 110 q 451 404 510 315 l 451 403 l 279 403 l 279 0 l 154 0 m 279 867 l 279 507 l 467 507 q 562 526 518 507 q 633 585 606 544 q 661 690 661 625 q 607 822 661 778 q 463 867 553 867 l 279 867 m 257 1044 q 309 1190 257 1140 q 454 1239 361 1239 q 595 1190 544 1239 q 646 1044 646 1140 l 549 1044 q 524 1124 549 1099 q 454 1149 500 1149 q 379 1123 404 1149 q 354 1044 354 1097 l 257 1044 z "},"Ɍ":{"ha":944,"x_min":63,"x_max":867,"o":"m 313 0 l 188 0 l 188 407 l 63 407 l 63 507 l 188 507 l 188 969 l 492 969 q 665 940 590 969 q 781 849 739 910 q 822 692 822 788 q 778 535 822 599 q 661 442 733 472 q 611 424 636 431 q 733 232 674 331 q 867 0 801 117 l 724 0 q 600 225 667 110 q 485 407 546 317 l 313 407 l 313 0 m 313 507 l 490 507 q 590 526 543 507 q 665 587 636 546 q 694 690 694 628 q 638 822 694 776 q 486 867 581 867 l 313 867 l 313 507 z "},"Ṙ":{"ha":911,"x_min":154,"x_max":833,"o":"m 154 0 l 154 969 l 469 969 q 635 940 564 969 q 747 849 707 910 q 788 692 788 788 q 744 535 788 599 q 632 442 701 472 q 578 422 606 429 q 701 232 642 331 q 833 0 769 117 l 688 0 q 564 225 631 110 q 451 404 510 315 l 451 403 l 279 403 l 279 0 l 154 0 m 279 867 l 279 507 l 467 507 q 562 526 518 507 q 633 585 606 544 q 661 690 661 625 q 607 822 661 778 q 463 867 553 867 l 279 867 m 393 1199 q 451 1217 411 1217 q 510 1199 492 1217 q 528 1142 528 1182 q 510 1085 528 1103 q 451 1068 492 1068 q 393 1085 411 1068 q 375 1140 375 1101 q 393 1199 375 1181 z "},"Ṛ":{"ha":911,"x_min":154,"x_max":833,"o":"m 154 0 l 154 969 l 469 969 q 635 940 564 969 q 747 849 707 910 q 788 692 788 788 q 744 535 788 599 q 632 442 701 472 q 578 422 606 429 q 701 232 642 331 q 833 0 769 117 l 688 0 q 564 225 631 110 q 451 404 510 315 l 451 403 l 279 403 l 279 0 l 154 0 m 279 867 l 279 507 l 467 507 q 562 526 518 507 q 633 585 606 544 q 661 690 661 625 q 607 822 661 778 q 463 867 553 867 l 279 867 m 421 -126 q 479 -108 439 -108 q 540 -126 522 -108 q 557 -185 557 -144 q 540 -241 557 -224 q 479 -258 522 -258 q 421 -241 439 -258 q 403 -185 403 -224 q 421 -126 403 -144 z "},"Ṝ":{"ha":911,"x_min":154,"x_max":833,"o":"m 154 0 l 154 969 l 469 969 q 635 940 564 969 q 747 849 707 910 q 788 692 788 788 q 744 535 788 599 q 632 442 701 472 q 578 422 606 429 q 701 232 642 331 q 833 0 769 117 l 688 0 q 564 225 631 110 q 451 404 510 315 l 451 403 l 279 403 l 279 0 l 154 0 m 279 867 l 279 507 l 467 507 q 562 526 518 507 q 633 585 606 544 q 661 690 661 625 q 607 822 661 778 q 463 867 553 867 l 279 867 m 651 1168 l 651 1082 l 253 1082 l 253 1168 l 651 1168 m 421 -126 q 479 -108 439 -108 q 540 -126 522 -108 q 557 -185 557 -144 q 540 -241 557 -224 q 479 -258 522 -258 q 421 -241 439 -258 q 403 -185 403 -224 q 421 -126 403 -144 z "},"Ṟ":{"ha":911,"x_min":154,"x_max":833,"o":"m 154 0 l 154 969 l 469 969 q 635 940 564 969 q 747 849 707 910 q 788 692 788 788 q 744 535 788 599 q 632 442 701 472 q 578 422 606 429 q 701 232 642 331 q 833 0 769 117 l 688 0 q 564 225 631 110 q 451 404 510 315 l 451 403 l 279 403 l 279 0 l 154 0 m 279 867 l 279 507 l 467 507 q 562 526 518 507 q 633 585 606 544 q 661 690 661 625 q 607 822 661 778 q 463 867 553 867 l 279 867 m 689 -131 l 689 -217 l 290 -217 l 290 -131 l 689 -131 z "},"S":{"ha":768,"x_min":93,"x_max":685,"o":"m 178 919 q 414 985 263 985 q 534 976 475 985 q 651 949 593 967 l 651 835 q 527 867 588 857 q 414 878 467 878 q 265 842 314 878 q 215 733 215 806 q 241 653 215 685 q 308 599 267 621 q 400 558 350 576 q 500 517 450 539 q 592 463 550 494 q 659 384 633 432 q 685 265 685 336 q 600 56 685 126 q 349 -14 515 -14 q 226 -4 289 -14 q 103 24 164 6 l 103 138 q 232 103 167 115 q 353 92 297 92 q 506 129 449 92 q 563 249 563 167 q 537 331 563 299 q 469 387 511 364 q 378 429 428 410 q 278 470 328 449 q 186 523 228 492 q 119 601 144 554 q 93 715 93 647 q 178 919 93 854 z "},"Ś":{"ha":768,"x_min":93,"x_max":685,"o":"m 178 919 q 414 985 263 985 q 534 976 475 985 q 651 949 593 967 l 651 835 q 527 867 588 857 q 414 878 467 878 q 265 842 314 878 q 215 733 215 806 q 241 653 215 685 q 308 599 267 621 q 400 558 350 576 q 500 517 450 539 q 592 463 550 494 q 659 384 633 432 q 685 265 685 336 q 600 56 685 126 q 349 -14 515 -14 q 226 -4 289 -14 q 103 24 164 6 l 103 138 q 232 103 167 115 q 353 92 297 92 q 506 129 449 92 q 563 249 563 167 q 537 331 563 299 q 469 387 511 364 q 378 429 428 410 q 278 470 328 449 q 186 523 228 492 q 119 601 144 554 q 93 715 93 647 q 178 919 93 854 z "},"Ŝ":{"ha":768,"x_min":93,"x_max":685,"o":"m 178 919 q 414 985 263 985 q 534 976 475 985 q 651 949 593 967 l 651 835 q 527 867 588 857 q 414 878 467 878 q 265 842 314 878 q 215 733 215 806 q 241 653 215 685 q 308 599 267 621 q 400 558 350 576 q 500 517 450 539 q 592 463 550 494 q 659 384 633 432 q 685 265 685 336 q 600 56 685 126 q 349 -14 515 -14 q 226 -4 289 -14 q 103 24 164 6 l 103 138 q 232 103 167 115 q 353 92 297 92 q 506 129 449 92 q 563 249 563 167 q 537 331 563 299 q 469 387 511 364 q 378 429 428 410 q 278 470 328 449 q 186 523 228 492 q 119 601 144 554 q 93 715 93 647 q 178 919 93 854 z "},"Ş":{"ha":768,"x_min":93,"x_max":685,"o":"m 93 715 q 178 919 93 854 q 414 985 263 985 q 534 976 475 985 q 651 949 593 967 l 651 835 q 527 867 588 857 q 414 878 467 878 q 265 842 314 878 q 215 733 215 806 q 241 653 215 685 q 308 599 267 621 q 400 558 350 576 q 500 517 450 539 q 592 463 550 494 q 659 384 633 432 q 685 265 685 336 q 600 57 685 126 q 433 -8 539 6 l 453 -35 q 498 -105 481 -69 q 515 -176 515 -140 q 469 -267 515 -235 q 344 -300 424 -300 q 278 -295 311 -300 q 218 -282 246 -290 l 218 -196 q 276 -210 246 -206 q 331 -215 306 -215 q 390 -200 372 -215 q 408 -158 408 -185 q 394 -109 408 -132 q 360 -60 381 -86 l 324 -14 q 226 -4 276 -12 q 103 24 164 6 l 103 138 q 232 103 167 115 q 353 92 297 92 q 506 129 449 92 q 563 249 563 167 q 537 331 563 299 q 469 387 511 364 q 378 429 428 410 q 278 470 328 449 q 186 523 228 492 q 119 601 144 554 q 93 715 93 647 z "},"Š":{"ha":768,"x_min":93,"x_max":685,"o":"m 178 919 q 414 985 263 985 q 534 976 475 985 q 651 949 593 967 l 651 835 q 527 867 588 857 q 414 878 467 878 q 265 842 314 878 q 215 733 215 806 q 241 653 215 685 q 308 599 267 621 q 400 558 350 576 q 500 517 450 539 q 592 463 550 494 q 659 384 633 432 q 685 265 685 336 q 600 56 685 126 q 349 -14 515 -14 q 226 -4 289 -14 q 103 24 164 6 l 103 138 q 232 103 167 115 q 353 92 297 92 q 506 129 449 92 q 563 249 563 167 q 537 331 563 299 q 469 387 511 364 q 378 429 428 410 q 278 470 328 449 q 186 523 228 492 q 119 601 144 554 q 93 715 93 647 q 178 919 93 854 m 214 1238 l 319 1238 l 403 1121 l 486 1238 l 588 1238 l 465 1043 l 338 1043 l 214 1238 z "},"Ș":{"ha":768,"x_min":93,"x_max":685,"o":"m 178 919 q 414 985 263 985 q 534 976 475 985 q 651 949 593 967 l 651 835 q 527 867 588 857 q 414 878 467 878 q 265 842 314 878 q 215 733 215 806 q 241 653 215 685 q 308 599 267 621 q 400 558 350 576 q 500 517 450 539 q 592 463 550 494 q 659 384 633 432 q 685 265 685 336 q 600 56 685 126 q 349 -14 515 -14 q 226 -4 289 -14 q 103 24 164 6 l 103 138 q 232 103 167 115 q 353 92 297 92 q 506 129 449 92 q 563 249 563 167 q 537 331 563 299 q 469 387 511 364 q 378 429 428 410 q 278 470 328 449 q 186 523 228 492 q 119 601 144 554 q 93 715 93 647 q 178 919 93 854 m 307 -210 q 318 -100 314 -153 l 435 -100 q 408 -217 424 -160 q 371 -326 392 -275 l 288 -326 q 307 -210 299 -265 z "},"Ṡ":{"ha":768,"x_min":93,"x_max":685,"o":"m 178 919 q 414 985 263 985 q 534 976 475 985 q 651 949 593 967 l 651 835 q 527 867 588 857 q 414 878 467 878 q 265 842 314 878 q 215 733 215 806 q 241 653 215 685 q 308 599 267 621 q 400 558 350 576 q 500 517 450 539 q 592 463 550 494 q 659 384 633 432 q 685 265 685 336 q 600 56 685 126 q 349 -14 515 -14 q 226 -4 289 -14 q 103 24 164 6 l 103 138 q 232 103 167 115 q 353 92 297 92 q 506 129 449 92 q 563 249 563 167 q 537 331 563 299 q 469 387 511 364 q 378 429 428 410 q 278 470 328 449 q 186 523 228 492 q 119 601 144 554 q 93 715 93 647 q 178 919 93 854 m 342 1199 q 400 1217 360 1217 q 458 1199 440 1217 q 476 1142 476 1182 q 458 1085 476 1103 q 400 1068 440 1068 q 342 1085 360 1068 q 324 1140 324 1101 q 342 1199 324 1181 z "},"Ṣ":{"ha":768,"x_min":93,"x_max":685,"o":"m 178 919 q 414 985 263 985 q 534 976 475 985 q 651 949 593 967 l 651 835 q 527 867 588 857 q 414 878 467 878 q 265 842 314 878 q 215 733 215 806 q 241 653 215 685 q 308 599 267 621 q 400 558 350 576 q 500 517 450 539 q 592 463 550 494 q 659 384 633 432 q 685 265 685 336 q 600 56 685 126 q 349 -14 515 -14 q 226 -4 289 -14 q 103 24 164 6 l 103 138 q 232 103 167 115 q 353 92 297 92 q 506 129 449 92 q 563 249 563 167 q 537 331 563 299 q 469 387 511 364 q 378 429 428 410 q 278 470 328 449 q 186 523 228 492 q 119 601 144 554 q 93 715 93 647 q 178 919 93 854 m 325 -131 q 383 -112 343 -112 q 444 -131 426 -112 q 461 -189 461 -149 q 444 -245 461 -228 q 383 -262 426 -262 q 325 -245 343 -262 q 307 -189 307 -228 q 325 -131 307 -149 z "},"Ṥ":{"ha":768,"x_min":93,"x_max":685,"o":"m 178 919 q 414 985 263 985 q 534 976 475 985 q 651 949 593 967 l 651 835 q 527 867 588 857 q 414 878 467 878 q 265 842 314 878 q 215 733 215 806 q 241 653 215 685 q 308 599 267 621 q 400 558 350 576 q 500 517 450 539 q 592 463 550 494 q 659 384 633 432 q 685 265 685 336 q 600 56 685 126 q 349 -14 515 -14 q 226 -4 289 -14 q 103 24 164 6 l 103 138 q 232 103 167 115 q 353 92 297 92 q 506 129 449 92 q 563 249 563 167 q 537 331 563 299 q 469 387 511 364 q 378 429 428 410 q 278 470 328 449 q 186 523 228 492 q 119 601 144 554 q 93 715 93 647 q 178 919 93 854 m 347 1025 l 463 1218 l 601 1218 l 457 1025 l 347 1025 m 318 1374 q 372 1390 335 1390 q 430 1374 413 1390 q 447 1319 447 1357 q 430 1267 447 1283 q 372 1250 413 1250 q 317 1267 335 1250 q 300 1319 300 1283 q 318 1374 300 1357 z "},"Ṧ":{"ha":768,"x_min":93,"x_max":685,"o":"m 178 919 q 414 985 263 985 q 534 976 475 985 q 651 949 593 967 l 651 835 q 527 867 588 857 q 414 878 467 878 q 265 842 314 878 q 215 733 215 806 q 241 653 215 685 q 308 599 267 621 q 400 558 350 576 q 500 517 450 539 q 592 463 550 494 q 659 384 633 432 q 685 265 685 336 q 600 56 685 126 q 349 -14 515 -14 q 226 -4 289 -14 q 103 24 164 6 l 103 138 q 232 103 167 115 q 353 92 297 92 q 506 129 449 92 q 563 249 563 167 q 537 331 563 299 q 469 387 511 364 q 378 429 428 410 q 278 470 328 449 q 186 523 228 492 q 119 601 144 554 q 93 715 93 647 q 178 919 93 854 m 213 1214 l 318 1214 l 401 1101 l 485 1214 l 588 1214 l 467 1025 l 335 1025 l 213 1214 m 344 1374 q 401 1390 363 1390 q 457 1374 440 1390 q 474 1319 474 1357 q 457 1267 474 1283 q 401 1250 440 1250 q 344 1267 363 1250 q 326 1319 326 1283 q 344 1374 326 1357 z "},"Ṩ":{"ha":768,"x_min":93,"x_max":685,"o":"m 178 919 q 414 985 263 985 q 534 976 475 985 q 651 949 593 967 l 651 835 q 527 867 588 857 q 414 878 467 878 q 265 842 314 878 q 215 733 215 806 q 241 653 215 685 q 308 599 267 621 q 400 558 350 576 q 500 517 450 539 q 592 463 550 494 q 659 384 633 432 q 685 265 685 336 q 600 56 685 126 q 349 -14 515 -14 q 226 -4 289 -14 q 103 24 164 6 l 103 138 q 232 103 167 115 q 353 92 297 92 q 506 129 449 92 q 563 249 563 167 q 537 331 563 299 q 469 387 511 364 q 378 429 428 410 q 278 470 328 449 q 186 523 228 492 q 119 601 144 554 q 93 715 93 647 q 178 919 93 854 m 342 1199 q 400 1217 360 1217 q 458 1199 440 1217 q 476 1142 476 1182 q 458 1085 476 1103 q 400 1068 440 1068 q 342 1085 360 1068 q 324 1140 324 1101 q 342 1199 324 1181 m 346 -131 q 404 -112 364 -112 q 465 -131 447 -112 q 482 -189 482 -149 q 465 -245 482 -228 q 404 -262 447 -262 q 346 -245 364 -262 q 328 -189 328 -228 q 346 -131 328 -149 z "},"Ț":{"ha":801,"x_min":46,"x_max":756,"o":"m 46 969 l 756 969 l 756 867 l 463 867 l 463 0 l 339 0 l 339 867 l 46 867 l 46 969 m 329 -210 q 340 -100 336 -153 l 457 -100 q 430 -217 446 -160 q 393 -326 414 -275 l 310 -326 q 329 -210 321 -265 z "},"Ţ":{"ha":801,"x_min":46,"x_max":756,"o":"m 46 969 l 756 969 l 756 867 l 463 867 l 463 0 l 339 0 l 339 867 l 46 867 l 46 969 m 329 -210 q 340 -100 336 -153 l 457 -100 q 430 -217 446 -160 q 393 -326 414 -275 l 310 -326 q 329 -210 321 -265 z "},"T":{"ha":801,"x_min":46,"x_max":756,"o":"m 46 969 l 756 969 l 756 867 l 463 867 l 463 0 l 339 0 l 339 867 l 46 867 l 46 969 z "},"Ť":{"ha":801,"x_min":46,"x_max":756,"o":"m 46 969 l 756 969 l 756 867 l 463 867 l 463 0 l 339 0 l 339 867 l 46 867 l 46 969 z "},"Ŧ":{"ha":801,"x_min":46,"x_max":756,"o":"m 46 867 l 46 969 l 756 969 l 756 867 l 463 867 l 463 514 l 674 514 l 674 425 l 463 425 l 463 0 l 339 0 l 339 425 l 128 425 l 128 514 l 339 514 l 339 867 l 46 867 z "},"Ṫ":{"ha":801,"x_min":46,"x_max":756,"o":"m 46 969 l 756 969 l 756 867 l 463 867 l 463 0 l 339 0 l 339 867 l 46 867 l 46 969 z "},"Ṭ":{"ha":801,"x_min":46,"x_max":756,"o":"m 46 969 l 756 969 l 756 867 l 463 867 l 463 0 l 339 0 l 339 867 l 46 867 l 46 969 m 346 -131 q 404 -112 364 -112 q 465 -131 447 -112 q 482 -189 482 -149 q 465 -245 482 -228 q 404 -262 447 -262 q 346 -245 364 -262 q 328 -189 328 -228 q 346 -131 328 -149 z "},"Ṯ":{"ha":801,"x_min":46,"x_max":756,"o":"m 46 969 l 756 969 l 756 867 l 463 867 l 463 0 l 339 0 l 339 867 l 46 867 l 46 969 z "},"Ṱ":{"ha":801,"x_min":46,"x_max":756,"o":"m 46 969 l 756 969 l 756 867 l 463 867 l 463 0 l 339 0 l 339 867 l 46 867 l 46 969 z "},"Ù":{"ha":969,"x_min":140,"x_max":829,"o":"m 264 969 l 264 318 q 290 189 264 239 q 366 116 317 139 q 483 93 415 93 q 603 116 553 93 q 679 189 653 139 q 706 318 706 239 l 706 969 l 829 969 l 829 314 q 786 128 829 200 q 666 21 743 56 q 483 -14 589 -14 q 303 21 381 -14 q 183 128 225 56 q 140 314 140 200 l 140 969 l 264 969 m 425 1238 l 540 1043 l 432 1043 l 289 1238 l 425 1238 z "},"Ú":{"ha":969,"x_min":140,"x_max":829,"o":"m 264 969 l 264 318 q 290 189 264 239 q 366 116 317 139 q 483 93 415 93 q 603 116 553 93 q 679 189 653 139 q 706 318 706 239 l 706 969 l 829 969 l 829 314 q 786 128 829 200 q 666 21 743 56 q 483 -14 589 -14 q 303 21 381 -14 q 183 128 225 56 q 140 314 140 200 l 140 969 l 264 969 m 546 1238 l 683 1238 l 540 1043 l 431 1043 l 546 1238 z "},"Û":{"ha":969,"x_min":140,"x_max":829,"o":"m 264 969 l 264 318 q 290 189 264 239 q 366 116 317 139 q 483 93 415 93 q 603 116 553 93 q 679 189 653 139 q 706 318 706 239 l 706 969 l 829 969 l 829 314 q 786 128 829 200 q 666 21 743 56 q 483 -14 589 -14 q 303 21 381 -14 q 183 128 225 56 q 140 314 140 200 l 140 969 l 264 969 m 290 1043 l 414 1238 l 542 1238 l 664 1043 l 560 1043 l 475 1160 l 392 1043 l 290 1043 z "},"Ü":{"ha":969,"x_min":140,"x_max":829,"o":"m 264 969 l 264 318 q 290 189 264 239 q 366 116 317 139 q 483 93 415 93 q 603 116 553 93 q 679 189 653 139 q 706 318 706 239 l 706 969 l 829 969 l 829 314 q 786 128 829 200 q 666 21 743 56 q 483 -14 589 -14 q 303 21 381 -14 q 183 128 225 56 q 140 314 140 200 l 140 969 l 264 969 m 554 1192 q 607 1208 569 1208 q 661 1192 644 1208 q 678 1139 678 1175 q 661 1090 678 1106 q 607 1074 644 1074 q 553 1090 569 1074 q 538 1139 538 1106 q 554 1192 538 1175 m 293 1192 q 346 1208 308 1208 q 399 1192 382 1208 q 415 1139 415 1175 q 399 1090 415 1106 q 346 1074 382 1074 q 293 1090 308 1074 q 278 1139 278 1106 q 293 1192 278 1175 z "},"Ũ":{"ha":969,"x_min":140,"x_max":829,"o":"m 264 969 l 264 318 q 290 189 264 239 q 366 116 317 139 q 483 93 415 93 q 603 116 553 93 q 679 189 653 139 q 706 318 706 239 l 706 969 l 829 969 l 829 314 q 786 128 829 200 q 666 21 743 56 q 483 -14 589 -14 q 303 21 381 -14 q 183 128 225 56 q 140 314 140 200 l 140 969 l 264 969 m 300 1183 q 388 1226 332 1226 q 436 1217 413 1226 q 482 1192 460 1207 l 503 1178 q 531 1160 518 1168 q 556 1153 543 1153 q 584 1167 572 1153 q 596 1211 596 1182 l 688 1211 q 656 1101 688 1143 q 568 1058 624 1058 q 520 1067 543 1058 q 474 1092 497 1076 l 450 1107 q 424 1124 436 1117 q 400 1131 413 1131 q 372 1116 383 1131 q 360 1071 360 1101 l 267 1071 q 300 1183 267 1140 z "},"Ū":{"ha":969,"x_min":140,"x_max":829,"o":"m 264 969 l 264 318 q 290 189 264 239 q 366 116 317 139 q 483 93 415 93 q 603 116 553 93 q 679 189 653 139 q 706 318 706 239 l 706 969 l 829 969 l 829 314 q 786 128 829 200 q 666 21 743 56 q 483 -14 589 -14 q 303 21 381 -14 q 183 128 225 56 q 140 314 140 200 l 140 969 l 264 969 m 676 1168 l 676 1082 l 278 1082 l 278 1168 l 676 1168 z "},"Ŭ":{"ha":969,"x_min":140,"x_max":829,"o":"m 264 969 l 264 318 q 290 189 264 239 q 366 116 317 139 q 483 93 415 93 q 603 116 553 93 q 679 189 653 139 q 706 318 706 239 l 706 969 l 829 969 l 829 314 q 786 128 829 200 q 666 21 743 56 q 483 -14 589 -14 q 303 21 381 -14 q 183 128 225 56 q 140 314 140 200 l 140 969 l 264 969 m 379 1238 q 403 1158 379 1183 q 478 1133 428 1133 q 550 1158 526 1133 q 574 1228 574 1182 q 574 1238 574 1232 l 671 1238 q 620 1093 671 1143 q 478 1043 569 1043 q 335 1093 388 1043 q 283 1238 283 1143 l 379 1238 z "},"Ů":{"ha":969,"x_min":140,"x_max":829,"o":"m 264 969 l 264 318 q 290 189 264 239 q 366 116 317 139 q 483 93 415 93 q 603 116 553 93 q 679 189 653 139 q 706 318 706 239 l 706 969 l 829 969 l 829 314 q 786 128 829 200 q 666 21 743 56 q 483 -14 589 -14 q 303 21 381 -14 q 183 128 225 56 q 140 314 140 200 l 140 969 l 264 969 m 365 1257 q 478 1292 406 1292 q 590 1257 551 1292 q 628 1154 628 1222 q 590 1052 628 1089 q 478 1015 551 1015 q 365 1052 406 1015 q 325 1156 325 1089 q 365 1257 325 1221 m 426 1104 q 478 1089 443 1089 q 544 1154 544 1089 q 529 1203 544 1188 q 478 1219 514 1219 q 408 1156 408 1219 q 426 1104 408 1119 z "},"Ű":{"ha":969,"x_min":140,"x_max":829,"o":"m 264 969 l 264 318 q 290 189 264 239 q 366 116 317 139 q 483 93 415 93 q 603 116 553 93 q 679 189 653 139 q 706 318 706 239 l 706 969 l 829 969 l 829 314 q 786 128 829 200 q 666 21 743 56 q 483 -14 589 -14 q 303 21 381 -14 q 183 128 225 56 q 140 314 140 200 l 140 969 l 264 969 m 606 1238 l 728 1238 l 619 1043 l 524 1043 l 606 1238 m 331 1043 l 413 1238 l 533 1238 l 425 1043 l 331 1043 z "},"Ų":{"ha":969,"x_min":140,"x_max":829,"o":"m 140 969 l 264 969 l 264 301 q 323 144 264 194 q 483 93 382 93 q 647 144 588 93 q 706 301 706 194 l 706 969 l 829 969 l 829 301 q 804 154 829 215 q 731 53 779 93 l 588 -67 q 529 -126 544 -104 q 514 -165 514 -147 q 526 -193 514 -182 q 569 -204 539 -204 q 615 -200 588 -204 q 676 -186 643 -196 l 676 -282 q 615 -294 649 -289 q 547 -300 581 -300 q 439 -269 474 -300 q 404 -186 404 -237 q 424 -116 404 -149 q 497 -40 444 -83 l 532 -12 l 526 -12 q 483 -14 497 -14 q 303 21 381 -14 q 183 126 225 56 q 140 301 140 196 l 140 969 z "},"Ǔ":{"ha":969,"x_min":140,"x_max":829,"o":"m 264 969 l 264 318 q 290 189 264 239 q 366 116 317 139 q 483 93 415 93 q 603 116 553 93 q 679 189 653 139 q 706 318 706 239 l 706 969 l 829 969 l 829 314 q 786 128 829 200 q 666 21 743 56 q 483 -14 589 -14 q 303 21 381 -14 q 183 128 225 56 q 140 314 140 200 l 140 969 l 264 969 z "},"Ǖ":{"ha":969,"x_min":140,"x_max":829,"o":"m 264 969 l 264 318 q 290 189 264 239 q 366 116 317 139 q 483 93 415 93 q 603 116 553 93 q 679 189 653 139 q 706 318 706 239 l 706 969 l 829 969 l 829 314 q 786 128 829 200 q 666 21 743 56 q 483 -14 589 -14 q 303 21 381 -14 q 183 128 225 56 q 140 314 140 200 l 140 969 l 264 969 m 278 1328 l 676 1328 l 676 1242 l 278 1242 l 278 1328 m 536 1107 q 553 1159 536 1143 q 607 1175 569 1175 q 660 1159 643 1175 q 676 1107 676 1143 q 660 1057 676 1072 q 607 1042 643 1042 q 553 1057 569 1042 q 536 1107 536 1072 m 294 1160 q 344 1175 310 1175 q 399 1159 382 1175 q 415 1107 415 1143 q 399 1057 415 1072 q 344 1042 382 1042 q 294 1057 310 1042 q 278 1107 278 1072 q 294 1160 278 1143 z "},"Ǘ":{"ha":969,"x_min":140,"x_max":829,"o":"m 264 969 l 264 318 q 290 189 264 239 q 366 116 317 139 q 483 93 415 93 q 603 116 553 93 q 679 189 653 139 q 706 318 706 239 l 706 969 l 829 969 l 829 314 q 786 128 829 200 q 666 21 743 56 q 483 -14 589 -14 q 303 21 381 -14 q 183 128 225 56 q 140 314 140 200 l 140 969 l 264 969 m 418 1225 l 535 1410 l 671 1410 l 528 1225 l 418 1225 m 536 1107 q 551 1159 536 1143 q 606 1175 567 1175 q 659 1159 642 1175 q 676 1107 676 1143 q 659 1057 676 1072 q 606 1042 642 1042 q 551 1057 567 1042 q 536 1107 536 1072 m 294 1160 q 344 1175 310 1175 q 399 1159 382 1175 q 415 1107 415 1143 q 399 1057 415 1072 q 344 1042 382 1042 q 294 1057 310 1042 q 278 1107 278 1072 q 294 1160 278 1143 z "},"Ǚ":{"ha":969,"x_min":140,"x_max":829,"o":"m 264 969 l 264 318 q 290 189 264 239 q 366 116 317 139 q 483 93 415 93 q 603 116 553 93 q 679 189 653 139 q 706 318 706 239 l 706 969 l 829 969 l 829 314 q 786 128 829 200 q 666 21 743 56 q 483 -14 589 -14 q 303 21 381 -14 q 183 128 225 56 q 140 314 140 200 l 140 969 l 264 969 m 289 1410 l 394 1410 l 478 1300 l 561 1410 l 664 1410 l 543 1225 l 411 1225 l 289 1410 m 536 1107 q 553 1159 536 1143 q 607 1175 569 1175 q 660 1159 643 1175 q 676 1107 676 1143 q 660 1057 676 1072 q 607 1042 643 1042 q 553 1057 569 1042 q 536 1107 536 1072 m 294 1160 q 344 1175 310 1175 q 399 1159 382 1175 q 415 1107 415 1143 q 399 1057 415 1072 q 344 1042 382 1042 q 294 1057 310 1042 q 278 1107 278 1072 q 294 1160 278 1143 z "},"Ǜ":{"ha":969,"x_min":140,"x_max":829,"o":"m 264 969 l 264 318 q 290 189 264 239 q 366 116 317 139 q 483 93 415 93 q 603 116 553 93 q 679 189 653 139 q 706 318 706 239 l 706 969 l 829 969 l 829 314 q 786 128 829 200 q 666 21 743 56 q 483 -14 589 -14 q 303 21 381 -14 q 183 128 225 56 q 140 314 140 200 l 140 969 l 264 969 m 275 1410 l 411 1410 l 529 1225 l 418 1225 l 275 1410 m 536 1107 q 553 1159 536 1143 q 607 1175 569 1175 q 660 1159 643 1175 q 676 1107 676 1143 q 660 1057 676 1072 q 607 1042 643 1042 q 553 1057 569 1042 q 536 1107 536 1072 m 294 1160 q 344 1175 310 1175 q 399 1159 382 1175 q 415 1107 415 1143 q 399 1057 415 1072 q 344 1042 382 1042 q 294 1057 310 1042 q 278 1107 278 1072 q 294 1160 278 1143 z "},"Ȕ":{"ha":969,"x_min":140,"x_max":829,"o":"m 264 969 l 264 318 q 290 189 264 239 q 366 116 317 139 q 483 93 415 93 q 603 116 553 93 q 679 189 653 139 q 706 318 706 239 l 706 969 l 829 969 l 829 314 q 786 128 829 200 q 666 21 743 56 q 483 -14 589 -14 q 303 21 381 -14 q 183 128 225 56 q 140 314 140 200 l 140 969 l 264 969 z "},"Ȗ":{"ha":969,"x_min":140,"x_max":829,"o":"m 264 969 l 264 318 q 290 189 264 239 q 366 116 317 139 q 483 93 415 93 q 603 116 553 93 q 679 189 653 139 q 706 318 706 239 l 706 969 l 829 969 l 829 314 q 786 128 829 200 q 666 21 743 56 q 483 -14 589 -14 q 303 21 381 -14 q 183 128 225 56 q 140 314 140 200 l 140 969 l 264 969 m 282 1044 q 334 1190 282 1140 q 479 1239 386 1239 q 620 1190 569 1239 q 671 1044 671 1140 l 574 1044 q 549 1124 574 1099 q 479 1149 525 1149 q 404 1123 429 1149 q 379 1044 379 1097 l 282 1044 z "},"Ṳ":{"ha":969,"x_min":140,"x_max":829,"o":"m 264 969 l 264 318 q 290 189 264 239 q 366 116 317 139 q 483 93 415 93 q 603 116 553 93 q 679 189 653 139 q 706 318 706 239 l 706 969 l 829 969 l 829 314 q 786 128 829 200 q 666 21 743 56 q 483 -14 589 -14 q 303 21 381 -14 q 183 128 225 56 q 140 314 140 200 l 140 969 l 264 969 m 554 -132 q 607 -115 569 -115 q 661 -131 644 -115 q 678 -183 678 -147 q 661 -233 678 -217 q 607 -249 644 -249 q 553 -233 569 -249 q 538 -183 538 -217 q 554 -132 538 -147 m 293 -132 q 346 -115 308 -115 q 399 -131 382 -115 q 415 -183 415 -147 q 399 -233 415 -217 q 346 -249 382 -249 q 293 -233 308 -249 q 278 -183 278 -217 q 293 -132 278 -147 z "},"Ṵ":{"ha":969,"x_min":140,"x_max":829,"o":"m 264 969 l 264 318 q 290 189 264 239 q 366 116 317 139 q 483 93 415 93 q 603 116 553 93 q 679 189 653 139 q 706 318 706 239 l 706 969 l 829 969 l 829 314 q 786 128 829 200 q 666 21 743 56 q 483 -14 589 -14 q 303 21 381 -14 q 183 128 225 56 q 140 314 140 200 l 140 969 l 264 969 m 300 -151 q 388 -108 332 -108 q 436 -118 413 -108 q 482 -143 460 -128 l 503 -157 q 531 -174 518 -167 q 556 -182 543 -182 q 584 -167 572 -182 q 596 -122 596 -151 l 688 -122 q 656 -233 688 -190 q 568 -276 624 -276 q 520 -267 543 -276 q 474 -243 497 -258 l 450 -226 q 424 -210 436 -217 q 400 -203 413 -203 q 372 -217 383 -203 q 360 -262 360 -232 l 267 -262 q 300 -151 267 -193 z "},"Ṷ":{"ha":969,"x_min":140,"x_max":829,"o":"m 264 969 l 264 318 q 290 189 264 239 q 366 116 317 139 q 483 93 415 93 q 603 116 553 93 q 679 189 653 139 q 706 318 706 239 l 706 969 l 829 969 l 829 314 q 786 128 829 200 q 666 21 743 56 q 483 -14 589 -14 q 303 21 381 -14 q 183 128 225 56 q 140 314 140 200 l 140 969 l 264 969 m 289 -294 l 411 -100 l 539 -100 l 664 -294 l 558 -294 l 476 -179 l 393 -294 l 289 -294 z "},"Ṹ":{"ha":969,"x_min":140,"x_max":829,"o":"m 264 969 l 264 318 q 290 189 264 239 q 366 116 317 139 q 483 93 415 93 q 603 116 553 93 q 679 189 653 139 q 706 318 706 239 l 706 969 l 829 969 l 829 314 q 786 128 829 200 q 666 21 743 56 q 483 -14 589 -14 q 303 21 381 -14 q 183 128 225 56 q 140 314 140 200 l 140 969 l 264 969 m 300 1154 q 388 1197 332 1197 q 436 1188 413 1197 q 482 1163 460 1178 l 503 1149 q 531 1131 518 1139 q 556 1124 543 1124 q 584 1138 572 1124 q 596 1183 596 1153 l 688 1183 q 656 1072 688 1115 q 568 1029 624 1029 q 520 1038 543 1029 q 474 1063 497 1047 l 450 1079 q 424 1095 436 1088 q 400 1103 413 1103 q 372 1088 383 1103 q 360 1042 360 1072 l 267 1042 q 300 1154 267 1111 m 538 1410 l 676 1410 l 529 1226 l 418 1226 l 538 1410 z "},"Ṻ":{"ha":969,"x_min":140,"x_max":829,"o":"m 264 969 l 264 318 q 290 189 264 239 q 366 116 317 139 q 483 93 415 93 q 603 116 553 93 q 679 189 653 139 q 706 318 706 239 l 706 969 l 829 969 l 829 314 q 786 128 829 200 q 666 21 743 56 q 483 -14 589 -14 q 303 21 381 -14 q 183 128 225 56 q 140 314 140 200 l 140 969 l 264 969 m 278 1139 l 676 1139 l 676 1054 l 278 1054 l 278 1139 m 536 1261 q 553 1313 536 1297 q 607 1328 569 1328 q 660 1313 643 1328 q 676 1261 676 1297 q 660 1210 676 1226 q 607 1194 643 1194 q 553 1210 569 1194 q 536 1261 536 1226 m 278 1261 q 294 1313 278 1297 q 344 1328 310 1328 q 399 1313 382 1328 q 415 1261 415 1297 q 399 1210 415 1226 q 344 1194 382 1194 q 294 1210 310 1194 q 278 1261 278 1226 z "},"Ụ":{"ha":969,"x_min":140,"x_max":829,"o":"m 264 969 l 264 318 q 290 189 264 239 q 366 116 317 139 q 483 93 415 93 q 603 116 553 93 q 679 189 653 139 q 706 318 706 239 l 706 969 l 829 969 l 829 314 q 786 128 829 200 q 666 21 743 56 q 483 -14 589 -14 q 303 21 381 -14 q 183 128 225 56 q 140 314 140 200 l 140 969 l 264 969 m 418 -131 q 476 -112 436 -112 q 537 -131 519 -112 q 554 -189 554 -149 q 537 -245 554 -228 q 476 -262 519 -262 q 418 -245 436 -262 q 400 -189 400 -228 q 418 -131 400 -149 z "},"Ủ":{"ha":969,"x_min":140,"x_max":829,"o":"m 264 969 l 264 318 q 290 189 264 239 q 366 116 317 139 q 483 93 415 93 q 603 116 553 93 q 679 189 653 139 q 706 318 706 239 l 706 969 l 829 969 l 829 314 q 786 128 829 200 q 666 21 743 56 q 483 -14 589 -14 q 303 21 381 -14 q 183 128 225 56 q 140 314 140 200 l 140 969 l 264 969 m 415 1281 q 483 1289 449 1289 q 585 1262 549 1289 q 621 1192 621 1235 q 604 1136 621 1157 q 565 1103 588 1115 q 526 1079 543 1090 q 510 1053 510 1068 l 510 1040 l 425 1040 l 425 1060 q 440 1108 425 1092 q 473 1133 454 1124 q 506 1153 492 1143 q 521 1179 521 1163 q 467 1210 521 1210 q 412 1201 440 1210 q 354 1181 383 1193 l 354 1263 q 415 1281 382 1272 z "},"Ṿ":{"ha":892,"x_min":49,"x_max":843,"o":"m 181 969 l 449 107 l 715 969 l 843 969 l 531 0 l 360 0 l 49 969 l 181 969 m 379 -131 q 438 -112 397 -112 q 498 -131 481 -112 q 515 -189 515 -149 q 498 -245 515 -228 q 438 -262 481 -262 q 379 -245 397 -262 q 361 -189 361 -228 q 379 -131 361 -149 z "},"Ŵ":{"ha":1304,"x_min":63,"x_max":1242,"o":"m 63 969 l 188 969 l 382 131 l 590 969 l 717 969 l 925 136 l 1118 969 l 1242 969 l 1010 0 l 846 0 l 654 781 l 463 0 l 296 0 l 63 969 m 460 1043 l 583 1238 l 711 1238 l 833 1043 l 729 1043 l 644 1160 l 561 1043 l 460 1043 z "},"Ẁ":{"ha":1304,"x_min":63,"x_max":1242,"o":"m 63 969 l 188 969 l 382 131 l 590 969 l 717 969 l 925 136 l 1118 969 l 1242 969 l 1010 0 l 846 0 l 654 781 l 463 0 l 296 0 l 63 969 m 585 1238 l 700 1043 l 592 1043 l 449 1238 l 585 1238 z "},"Ẃ":{"ha":1304,"x_min":63,"x_max":1242,"o":"m 63 969 l 188 969 l 382 131 l 590 969 l 717 969 l 925 136 l 1118 969 l 1242 969 l 1010 0 l 846 0 l 654 781 l 463 0 l 296 0 l 63 969 m 708 1238 l 846 1238 l 703 1043 l 593 1043 l 708 1238 z "},"Ẅ":{"ha":1304,"x_min":63,"x_max":1242,"o":"m 63 969 l 188 969 l 382 131 l 590 969 l 717 969 l 925 136 l 1118 969 l 1242 969 l 1010 0 l 846 0 l 654 781 l 463 0 l 296 0 l 63 969 m 724 1192 q 776 1208 739 1208 q 831 1192 814 1208 q 847 1139 847 1175 q 831 1090 847 1106 q 776 1074 814 1074 q 723 1090 739 1074 q 707 1139 707 1106 q 724 1192 707 1175 m 463 1192 q 515 1208 478 1208 q 568 1192 551 1208 q 585 1139 585 1175 q 568 1090 585 1106 q 515 1074 551 1074 q 463 1090 478 1074 q 447 1139 447 1106 q 463 1192 447 1175 z "},"Ẇ":{"ha":1304,"x_min":63,"x_max":1242,"o":"m 63 969 l 188 969 l 382 131 l 590 969 l 717 969 l 925 136 l 1118 969 l 1242 969 l 1010 0 l 846 0 l 654 781 l 463 0 l 296 0 l 63 969 m 588 1199 q 646 1217 606 1217 q 704 1199 686 1217 q 722 1142 722 1182 q 704 1085 722 1103 q 646 1068 686 1068 q 588 1085 606 1068 q 569 1140 569 1101 q 588 1199 569 1181 z "},"Ẉ":{"ha":1304,"x_min":63,"x_max":1242,"o":"m 63 969 l 188 969 l 382 131 l 590 969 l 717 969 l 925 136 l 1118 969 l 1242 969 l 1010 0 l 846 0 l 654 781 l 463 0 l 296 0 l 63 969 m 588 -131 q 646 -112 606 -112 q 706 -131 689 -112 q 724 -189 724 -149 q 706 -245 724 -228 q 646 -262 689 -262 q 588 -245 606 -262 q 569 -189 569 -228 q 588 -131 569 -149 z "},"Ẋ":{"ha":835,"x_min":44,"x_max":790,"o":"m 44 0 l 346 501 l 65 969 l 200 969 l 417 603 l 633 969 l 764 969 l 481 506 l 790 0 l 654 0 l 408 403 l 176 0 l 44 0 m 353 1199 q 411 1217 371 1217 q 469 1199 451 1217 q 488 1142 488 1182 q 469 1085 488 1103 q 411 1068 451 1068 q 353 1085 371 1068 q 335 1140 335 1101 q 353 1199 335 1181 z "},"X":{"ha":835,"x_min":44,"x_max":790,"o":"m 44 0 l 346 501 l 65 969 l 200 969 l 417 603 l 633 969 l 764 969 l 481 506 l 790 0 l 654 0 l 408 403 l 176 0 l 44 0 z "},"Ẍ":{"ha":835,"x_min":44,"x_max":790,"o":"m 44 0 l 346 501 l 65 969 l 200 969 l 417 603 l 633 969 l 764 969 l 481 506 l 790 0 l 654 0 l 408 403 l 176 0 l 44 0 z "},"Ý":{"ha":839,"x_min":36,"x_max":804,"o":"m 169 969 l 424 503 l 678 969 l 804 969 l 483 388 l 483 0 l 360 0 l 360 386 l 36 969 l 169 969 m 456 1238 l 593 1238 l 450 1043 l 340 1043 l 456 1238 z "},"Ÿ":{"ha":839,"x_min":36,"x_max":804,"o":"m 169 969 l 424 503 l 678 969 l 804 969 l 483 388 l 483 0 l 360 0 l 360 386 l 36 969 l 169 969 m 492 1192 q 544 1208 507 1208 q 599 1192 582 1208 q 615 1139 615 1175 q 599 1090 615 1106 q 544 1074 582 1074 q 491 1090 507 1074 q 475 1139 475 1106 q 492 1192 475 1175 m 231 1192 q 283 1208 246 1208 q 336 1192 319 1208 q 353 1139 353 1175 q 336 1090 353 1106 q 283 1074 319 1074 q 231 1090 246 1074 q 215 1139 215 1106 q 231 1192 215 1175 z "},"V":{"ha":892,"x_min":49,"x_max":843,"o":"m 181 969 l 449 107 l 715 969 l 843 969 l 531 0 l 360 0 l 49 969 l 181 969 z "},"Ŷ":{"ha":892,"x_min":49,"x_max":843,"o":"m 181 969 l 449 107 l 715 969 l 843 969 l 531 0 l 360 0 l 49 969 l 181 969 z "},"Ṽ":{"ha":892,"x_min":49,"x_max":843,"o":"m 181 969 l 449 107 l 715 969 l 843 969 l 531 0 l 360 0 l 49 969 l 181 969 z "},"Ỳ":{"ha":839,"x_min":36,"x_max":804,"o":"m 169 969 l 424 503 l 678 969 l 804 969 l 483 388 l 483 0 l 360 0 l 360 386 l 36 969 l 169 969 m 371 1238 l 486 1043 l 378 1043 l 235 1238 l 371 1238 z "},"Ɏ":{"ha":839,"x_min":36,"x_max":804,"o":"m 169 969 l 424 503 l 678 969 l 804 969 l 485 392 l 693 392 l 693 303 l 483 303 l 483 0 l 360 0 l 360 303 l 149 303 l 149 392 l 357 392 l 36 969 l 169 969 z "},"Ẏ":{"ha":839,"x_min":36,"x_max":804,"o":"m 169 969 l 424 503 l 678 969 l 804 969 l 483 388 l 483 0 l 360 0 l 360 386 l 36 969 l 169 969 m 356 1199 q 414 1217 374 1217 q 472 1199 454 1217 q 490 1142 490 1182 q 472 1085 490 1103 q 414 1068 454 1068 q 356 1085 374 1068 q 338 1140 338 1101 q 356 1199 338 1181 z "},"Ỵ":{"ha":839,"x_min":36,"x_max":804,"o":"m 169 969 l 424 503 l 678 969 l 804 969 l 483 388 l 483 0 l 360 0 l 360 386 l 36 969 l 169 969 m 356 -131 q 414 -112 374 -112 q 474 -131 457 -112 q 492 -189 492 -149 q 474 -245 492 -228 q 414 -262 457 -262 q 356 -245 374 -262 q 338 -189 338 -228 q 356 -131 338 -149 z "},"Ỷ":{"ha":839,"x_min":36,"x_max":804,"o":"m 169 969 l 424 503 l 678 969 l 804 969 l 483 388 l 483 0 l 360 0 l 360 386 l 36 969 l 169 969 m 353 1281 q 421 1289 386 1289 q 522 1262 486 1289 q 558 1192 558 1235 q 542 1136 558 1157 q 503 1103 525 1115 q 464 1079 481 1090 q 447 1053 447 1068 l 447 1040 l 363 1040 l 363 1060 q 377 1108 363 1092 q 410 1133 392 1124 q 444 1153 429 1143 q 458 1179 458 1163 q 404 1210 458 1210 q 349 1201 378 1210 q 292 1181 321 1193 l 292 1263 q 353 1281 319 1272 z "},"Ỹ":{"ha":839,"x_min":36,"x_max":804,"o":"m 169 969 l 424 503 l 678 969 l 804 969 l 483 388 l 483 0 l 360 0 l 360 386 l 36 969 l 169 969 m 238 1183 q 325 1226 269 1226 q 374 1217 350 1226 q 419 1192 397 1207 l 440 1178 q 468 1160 456 1168 q 493 1153 481 1153 q 522 1167 510 1153 q 533 1211 533 1182 l 625 1211 q 593 1101 625 1143 q 506 1058 561 1058 q 458 1067 481 1058 q 411 1092 435 1076 l 388 1107 q 362 1124 374 1117 q 338 1131 350 1131 q 309 1116 321 1131 q 297 1071 297 1101 l 204 1071 q 238 1183 204 1140 z "},"Ȳ":{"ha":839,"x_min":36,"x_max":804,"o":"m 169 969 l 424 503 l 678 969 l 804 969 l 483 388 l 483 0 l 360 0 l 360 386 l 36 969 l 169 969 m 614 1168 l 614 1082 l 215 1082 l 215 1168 l 614 1168 z "},"Ź":{"ha":774,"x_min":65,"x_max":710,"o":"m 710 0 l 65 0 l 65 92 l 554 867 l 76 867 l 76 969 l 700 969 l 700 878 l 213 104 l 710 104 l 710 0 m 444 1238 l 582 1238 l 439 1043 l 329 1043 l 444 1238 z "},"Ż":{"ha":772,"x_min":65,"x_max":710,"o":"m 710 0 l 65 0 l 65 92 l 554 867 l 76 867 l 76 969 l 700 969 l 700 878 l 213 104 l 710 104 l 710 0 m 326 1199 q 385 1217 344 1217 q 443 1199 425 1217 q 461 1142 461 1182 q 443 1085 461 1103 q 385 1068 425 1068 q 326 1085 344 1068 q 308 1140 308 1101 q 326 1199 308 1181 z "},"Ž":{"ha":772,"x_min":65,"x_max":710,"o":"m 710 0 l 65 0 l 65 92 l 554 867 l 76 867 l 76 969 l 700 969 l 700 878 l 213 104 l 710 104 l 710 0 m 199 1232 l 304 1232 l 388 1115 l 471 1232 l 572 1232 l 450 1038 l 322 1038 l 199 1232 z "},"Ẑ":{"ha":772,"x_min":65,"x_max":710,"o":"m 710 0 l 65 0 l 65 92 l 554 867 l 76 867 l 76 969 l 700 969 l 700 878 l 213 104 l 710 104 l 710 0 m 199 1043 l 322 1238 l 450 1238 l 572 1043 l 468 1043 l 383 1160 l 300 1043 l 199 1043 z "},"Ẓ":{"ha":772,"x_min":65,"x_max":710,"o":"m 710 0 l 65 0 l 65 92 l 554 867 l 76 867 l 76 969 l 700 969 l 700 878 l 213 104 l 710 104 l 710 0 m 326 -131 q 385 -112 344 -112 q 445 -131 428 -112 q 463 -189 463 -149 q 445 -245 463 -228 q 385 -262 428 -262 q 326 -245 344 -262 q 308 -189 308 -228 q 326 -131 308 -149 z "},"Ẕ":{"ha":772,"x_min":65,"x_max":710,"o":"m 710 0 l 65 0 l 65 92 l 554 867 l 76 867 l 76 969 l 700 969 l 700 878 l 213 104 l 710 104 l 710 0 m 585 -131 l 585 -217 l 186 -217 l 186 -131 l 585 -131 z "},"Ǣ":{"ha":1306,"x_min":44,"x_max":1206,"o":"m 44 0 q 190 320 111 160 q 362 642 268 481 q 565 969 456 804 l 1203 969 l 1203 867 l 760 867 l 760 553 l 1171 553 l 1171 449 l 760 449 l 760 104 l 1206 104 l 1206 0 l 640 0 l 640 250 l 279 250 q 169 0 219 124 l 44 0 m 640 353 l 640 867 l 619 867 q 468 614 539 740 q 328 353 393 482 l 640 353 m 1085 1168 l 1085 1082 l 686 1082 l 686 1168 l 1085 1168 z "},"Ǽ":{"ha":1306,"x_min":44,"x_max":1206,"o":"m 44 0 q 190 320 111 160 q 362 642 268 481 q 565 969 456 804 l 1203 969 l 1203 867 l 760 867 l 760 553 l 1171 553 l 1171 449 l 760 449 l 760 104 l 1206 104 l 1206 0 l 640 0 l 640 250 l 279 250 q 169 0 219 124 l 44 0 m 640 353 l 640 867 l 619 867 q 468 614 539 740 q 328 353 393 482 l 640 353 m 942 1238 l 1079 1238 l 936 1043 l 826 1043 l 942 1238 z "},"Ɓ":{"ha":1035,"x_min":24,"x_max":942,"o":"m 24 783 q 78 919 24 869 q 243 969 132 969 l 600 969 q 760 943 693 969 q 863 861 826 917 q 899 719 899 806 q 854 579 899 639 q 758 508 819 533 q 879 443 831 489 q 942 276 942 383 q 901 117 942 178 q 788 28 860 56 q 621 0 715 0 l 285 0 l 285 867 l 243 867 q 157 846 179 867 q 135 783 135 825 l 135 749 l 24 749 l 24 783 m 410 103 l 614 103 q 767 144 721 103 q 814 275 814 186 q 768 406 814 365 q 615 447 722 447 l 410 447 l 410 103 m 410 550 l 592 550 q 730 588 689 550 q 771 711 771 626 q 730 830 771 793 q 592 867 689 867 l 410 867 l 410 550 z "},"Ƃ":{"ha":893,"x_min":154,"x_max":818,"o":"m 154 969 l 669 969 l 669 867 l 279 867 l 279 550 l 481 550 q 656 522 581 550 q 775 433 732 493 q 818 275 818 372 q 775 117 818 178 q 656 28 732 56 q 481 0 581 0 l 154 0 l 154 969 m 279 103 l 475 103 q 638 144 586 103 q 690 275 690 186 q 638 406 690 364 q 475 447 586 447 l 279 447 l 279 103 z "},"Ƅ":{"ha":914,"x_min":53,"x_max":839,"o":"m 53 867 l 53 969 l 299 969 l 299 550 l 501 550 q 677 522 601 550 q 796 433 753 493 q 839 275 839 372 q 796 117 839 178 q 677 28 753 56 q 501 0 601 0 l 175 0 l 175 867 l 53 867 m 299 103 l 496 103 q 659 144 607 103 q 711 275 711 186 q 659 406 711 364 q 496 447 607 447 l 299 447 l 299 103 z "},"Ɔ":{"ha":774,"x_min":67,"x_max":668,"o":"m 67 117 q 152 98 114 103 q 243 93 190 93 q 405 132 339 93 q 506 258 471 171 q 540 489 540 344 q 507 720 540 636 q 410 840 474 804 q 258 876 347 876 q 162 869 206 876 q 67 847 118 863 l 67 954 q 154 976 103 968 q 261 985 206 985 q 478 936 386 985 q 619 779 569 888 q 668 489 668 671 q 619 198 668 308 q 474 37 569 88 q 243 -14 379 -14 q 150 -8 193 -14 q 67 10 107 -3 l 67 117 z "},"Ƈ":{"ha":767,"x_min":106,"x_max":869,"o":"m 106 489 q 156 780 106 671 q 297 937 206 889 q 513 985 388 985 q 599 979 558 985 q 622 1078 603 1038 q 691 1146 646 1124 q 801 1168 736 1168 l 869 1168 l 869 1065 l 801 1065 q 730 1043 753 1065 q 707 956 707 1021 l 707 844 q 611 868 660 860 q 514 876 563 876 q 363 840 426 876 q 267 720 300 804 q 233 489 233 636 q 268 256 233 343 q 369 131 303 169 q 532 93 436 93 q 622 100 578 93 q 707 121 665 107 l 707 8 q 624 -8 668 -3 q 528 -14 581 -14 q 300 37 394 -14 q 156 198 206 88 q 106 489 106 308 z "},"Ɖ":{"ha":983,"x_min":63,"x_max":878,"o":"m 63 451 l 63 550 l 188 550 l 188 969 l 472 969 q 638 943 564 969 q 767 860 713 917 q 849 710 821 803 q 878 483 878 617 q 848 256 878 349 q 764 106 818 163 q 635 25 710 50 q 472 0 561 0 l 188 0 l 188 451 l 63 451 m 313 104 l 475 104 q 617 140 556 104 q 715 258 679 175 q 750 483 750 342 q 715 710 750 626 q 617 830 679 793 q 475 867 556 867 l 313 867 l 313 550 l 514 550 l 514 451 l 313 451 l 313 104 z "},"Ɗ":{"ha":1083,"x_min":26,"x_max":976,"o":"m 26 783 q 81 919 26 869 q 246 969 135 969 l 571 969 q 738 943 664 969 q 866 860 813 917 q 948 710 919 803 q 976 483 976 617 q 947 256 976 349 q 864 106 918 163 q 735 25 810 50 q 571 0 661 0 l 288 0 l 288 867 l 246 867 q 160 846 182 867 q 138 783 138 825 l 138 749 l 26 749 l 26 783 m 411 104 l 572 104 q 717 140 656 104 q 814 258 779 175 q 849 483 849 342 q 814 710 849 626 q 717 830 779 793 q 572 867 656 867 l 411 867 l 411 104 z "},"Ƌ":{"ha":893,"x_min":75,"x_max":739,"o":"m 75 275 q 118 433 75 372 q 238 523 161 494 q 413 551 314 551 l 614 551 l 614 867 l 224 867 l 224 969 l 739 969 l 739 0 l 413 0 q 238 28 314 0 q 118 117 161 56 q 75 275 75 178 m 203 275 q 255 144 203 186 q 418 103 307 103 l 614 103 l 614 447 l 418 447 q 255 406 307 447 q 203 275 203 365 z "},"Ǝ":{"ha":811,"x_min":100,"x_max":657,"o":"m 532 103 l 532 449 l 138 449 l 138 551 l 532 551 l 532 867 l 106 867 l 106 969 l 657 969 l 657 0 l 100 0 l 100 103 l 532 103 z "},"Ə":{"ha":924,"x_min":101,"x_max":818,"o":"m 101 397 q 102 453 101 422 q 108 510 103 485 l 692 510 q 660 711 689 632 q 562 837 626 797 q 400 876 497 876 q 281 866 344 876 q 149 840 218 856 l 149 950 q 275 975 210 965 q 400 985 340 985 q 573 958 496 985 q 705 872 650 931 q 789 717 760 813 q 818 483 818 621 q 793 252 818 347 q 720 99 768 157 q 604 13 672 40 q 450 -14 536 -14 q 190 85 278 -14 q 101 390 101 183 q 101 397 101 394 m 244 217 q 323 122 271 151 q 453 93 375 93 q 588 132 535 93 q 667 257 640 171 q 690 410 685 318 l 218 410 l 218 388 q 244 217 218 281 z "},"Ɛ":{"ha":754,"x_min":82,"x_max":703,"o":"m 82 268 q 164 463 82 397 q 265 511 204 494 q 185 553 218 526 q 104 738 104 615 q 187 925 104 865 q 429 985 269 985 q 508 981 468 985 q 593 970 549 978 q 688 950 638 963 l 688 843 q 557 869 619 861 q 444 878 494 878 q 281 842 331 878 q 231 724 231 806 q 283 597 231 639 q 444 554 336 554 l 567 554 l 567 454 l 439 454 q 267 410 324 454 q 210 274 210 367 q 265 136 210 181 q 440 92 321 92 q 563 99 501 92 q 703 124 624 106 l 703 17 q 560 -6 624 1 q 426 -14 497 -14 q 171 56 260 -14 q 82 268 82 126 z "},"Ƒ":{"ha":786,"x_min":-68,"x_max":706,"o":"m -1 -192 q 60 -194 29 -194 q 133 -177 111 -194 q 154 -108 154 -160 l 154 969 l 706 969 l 706 867 l 279 867 l 279 526 l 675 526 l 675 424 l 279 424 l 279 -112 q 225 -259 279 -218 q 72 -300 171 -300 q -3 -295 33 -300 q -68 -285 -40 -290 l -68 -182 q -1 -192 -32 -187 z "},"Ɠ":{"ha":903,"x_min":106,"x_max":932,"o":"m 106 488 q 156 775 106 665 q 301 935 207 885 q 525 985 396 985 q 658 974 594 985 q 683 1078 661 1036 q 753 1146 707 1124 q 864 1168 799 1168 l 932 1168 l 932 1065 l 864 1065 q 792 1043 815 1065 q 769 956 769 1021 l 769 836 q 650 866 713 856 q 529 876 588 876 q 366 840 432 876 q 267 718 300 803 q 233 489 233 633 q 269 259 233 346 q 376 133 304 172 q 557 94 447 94 q 688 107 622 94 l 690 107 l 690 394 l 501 394 l 501 500 l 807 500 l 807 22 q 680 -5 751 4 q 539 -14 608 -14 q 353 15 435 -14 q 217 105 272 44 q 134 260 163 165 q 106 488 106 356 z "},"Ɣ":{"ha":839,"x_min":31,"x_max":808,"o":"m 169 969 l 422 565 l 675 969 l 808 969 l 489 464 q 556 358 529 403 q 607 252 592 297 q 622 164 622 207 q 570 31 622 75 q 424 -14 518 -14 q 276 31 329 -14 q 224 164 224 75 q 239 252 224 206 q 290 361 254 299 q 353 461 315 404 l 31 969 l 169 969 m 351 115 q 385 88 365 94 q 424 81 406 81 q 460 88 442 81 q 492 115 479 94 q 506 174 506 135 q 499 214 506 194 q 479 260 493 233 q 440 328 465 288 q 421 358 431 342 q 388 304 401 328 q 348 228 358 257 q 338 174 338 200 q 351 115 338 135 z "},"Ƕ":{"ha":1450,"x_min":154,"x_max":1346,"o":"m 154 969 l 279 969 l 279 556 l 740 556 l 740 969 l 865 969 l 865 261 q 913 135 865 175 q 1043 96 960 96 q 1174 135 1126 96 q 1221 261 1221 175 l 1221 553 l 1346 553 l 1346 260 q 1265 51 1346 117 q 1043 -14 1183 -14 q 822 51 904 -14 q 740 260 740 117 l 740 450 l 279 450 l 279 0 l 154 0 l 154 969 z "},"Ɩ":{"ha":404,"x_min":124,"x_max":375,"o":"m 124 969 l 249 969 l 249 149 q 264 101 249 114 q 308 89 279 89 q 341 92 325 89 q 375 103 357 96 l 375 0 q 331 -10 354 -6 q 283 -14 307 -14 q 196 -1 232 -14 q 142 47 160 13 q 124 140 124 81 l 124 969 z "},"Ɨ":{"ha":494,"x_min":58,"x_max":436,"o":"m 58 539 l 185 539 l 185 969 l 310 969 l 310 539 l 436 539 l 436 444 l 310 444 l 310 0 l 185 0 l 185 444 l 58 444 l 58 539 z "},"Ƙ":{"ha":918,"x_min":154,"x_max":893,"o":"m 154 0 l 154 803 q 175 912 154 872 q 238 968 196 951 q 344 985 281 985 q 397 981 372 985 q 444 971 422 978 l 444 871 q 394 880 415 878 q 354 882 372 882 q 292 865 307 882 q 278 801 278 849 l 278 460 l 713 969 l 850 969 l 518 564 q 701 306 614 435 q 893 0 799 157 l 750 0 q 582 264 665 136 q 428 478 510 371 l 279 306 l 279 0 l 154 0 z "},"Ƚ":{"ha":794,"x_min":63,"x_max":744,"o":"m 63 558 l 188 558 l 188 969 l 313 969 l 313 558 l 517 558 l 517 463 l 313 463 l 313 104 l 744 104 l 744 0 l 188 0 l 188 463 l 63 463 l 63 558 z "},"Ɯ":{"ha":1372,"x_min":151,"x_max":1217,"o":"m 275 969 l 275 226 q 310 128 275 160 q 407 96 344 96 q 525 119 464 96 q 622 161 571 136 q 621 199 621 179 l 621 969 l 746 969 l 746 226 q 780 128 746 160 q 874 96 814 96 q 996 119 935 96 q 1093 161 1042 136 l 1093 969 l 1217 969 l 1217 0 l 1099 0 l 1099 78 q 982 17 1040 40 q 829 -14 908 -14 q 676 38 732 -14 q 646 78 658 54 q 511 14 579 39 q 361 -14 435 -14 q 208 38 264 -14 q 151 199 151 89 l 151 969 l 275 969 z "},"Ɲ":{"ha":1013,"x_min":-68,"x_max":858,"o":"m -1 -194 q 61 -197 31 -197 q 133 -180 111 -197 q 154 -112 154 -162 l 154 969 l 303 969 l 744 160 l 744 969 l 858 969 l 858 0 l 710 0 l 269 807 l 269 -112 q 218 -260 269 -219 q 72 -300 167 -300 q -3 -294 35 -300 q -68 -282 -40 -289 l -68 -182 q -1 -194 -32 -190 z "},"Ƞ":{"ha":1008,"x_min":154,"x_max":857,"o":"m 154 969 l 271 969 l 271 872 q 425 950 347 921 q 610 985 515 985 q 792 933 726 985 q 857 769 857 881 l 857 -286 l 735 -286 l 735 742 q 690 840 735 808 q 567 871 644 871 q 414 844 493 871 q 279 789 350 824 l 279 0 l 154 0 l 154 969 z "},"Ɵ":{"ha":978,"x_min":106,"x_max":874,"o":"m 106 488 q 132 719 106 624 q 208 872 158 814 q 330 958 258 931 q 490 985 401 985 q 650 958 579 985 q 771 871 721 931 q 847 715 821 811 q 874 482 874 619 q 847 251 874 346 q 771 99 821 157 q 650 13 721 40 q 490 -14 579 -14 q 330 13 401 -14 q 208 99 258 40 q 132 254 158 158 q 106 488 106 350 m 235 433 q 261 260 239 329 q 346 133 289 172 q 490 93 403 93 q 634 133 578 93 q 718 258 690 172 q 744 433 740 328 l 235 433 m 235 536 l 744 536 q 718 710 740 640 q 634 836 690 796 q 490 876 578 876 q 346 837 403 876 q 261 713 289 797 q 235 536 239 642 z "},"Ơ":{"ha":976,"x_min":106,"x_max":944,"o":"m 106 486 q 132 717 106 622 q 208 872 158 813 q 330 958 258 931 q 490 985 401 985 q 614 969 557 985 l 717 969 q 808 999 786 969 q 829 1088 829 1029 l 829 1126 l 944 1126 l 944 1088 q 899 933 944 992 q 768 875 856 879 l 771 872 q 847 718 821 814 q 874 485 874 622 q 847 253 874 349 q 771 99 821 158 q 650 13 721 40 q 490 -14 579 -14 q 330 13 401 -14 q 208 99 258 40 q 132 253 158 157 q 106 486 106 349 m 233 486 q 261 259 233 346 q 346 133 289 172 q 490 93 403 93 q 635 133 578 93 q 719 259 692 172 q 746 485 746 346 q 719 711 746 625 q 635 837 692 797 q 490 876 578 876 q 346 837 403 876 q 261 711 289 797 q 233 486 233 625 z "},"Ớ":{"ha":976,"x_min":106,"x_max":944,"o":"m 558 1238 l 696 1238 l 553 1043 l 443 1043 l 558 1238 m 106 486 q 132 717 106 622 q 208 872 158 813 q 330 958 258 931 q 490 985 401 985 q 614 969 557 985 l 717 969 q 808 999 786 969 q 829 1088 829 1029 l 829 1126 l 944 1126 l 944 1088 q 899 933 944 992 q 768 875 856 879 l 771 872 q 847 718 821 814 q 874 485 874 622 q 847 253 874 349 q 771 99 821 158 q 650 13 721 40 q 490 -14 579 -14 q 330 13 401 -14 q 208 99 258 40 q 132 253 158 157 q 106 486 106 349 m 233 486 q 261 259 233 346 q 346 133 289 172 q 490 93 403 93 q 635 133 578 93 q 719 259 692 172 q 746 485 746 346 q 719 711 746 625 q 635 837 692 797 q 490 876 578 876 q 346 837 403 876 q 261 711 289 797 q 233 486 233 625 z "},"Ờ":{"ha":976,"x_min":106,"x_max":944,"o":"m 438 1238 l 553 1043 l 444 1043 l 301 1238 l 438 1238 m 106 486 q 132 717 106 622 q 208 872 158 813 q 330 958 258 931 q 490 985 401 985 q 614 969 557 985 l 717 969 q 808 999 786 969 q 829 1088 829 1029 l 829 1126 l 944 1126 l 944 1088 q 899 933 944 992 q 768 875 856 879 l 771 872 q 847 718 821 814 q 874 485 874 622 q 847 253 874 349 q 771 99 821 158 q 650 13 721 40 q 490 -14 579 -14 q 330 13 401 -14 q 208 99 258 40 q 132 253 158 157 q 106 486 106 349 m 233 486 q 261 259 233 346 q 346 133 289 172 q 490 93 403 93 q 635 133 578 93 q 719 259 692 172 q 746 485 746 346 q 719 711 746 625 q 635 837 692 797 q 490 876 578 876 q 346 837 403 876 q 261 711 289 797 q 233 486 233 625 z "},"Ở":{"ha":976,"x_min":106,"x_max":944,"o":"m 438 1281 q 506 1289 471 1289 q 607 1262 571 1289 q 643 1192 643 1235 q 626 1136 643 1157 q 588 1103 610 1115 q 549 1079 565 1090 q 532 1053 532 1068 l 532 1040 l 447 1040 l 447 1060 q 462 1108 447 1092 q 495 1133 476 1124 q 528 1153 514 1143 q 543 1179 543 1163 q 489 1210 543 1210 q 434 1201 463 1210 q 376 1181 406 1193 l 376 1263 q 438 1281 404 1272 m 106 486 q 132 717 106 622 q 208 872 158 813 q 330 958 258 931 q 490 985 401 985 q 614 969 557 985 l 717 969 q 808 999 786 969 q 829 1088 829 1029 l 829 1126 l 944 1126 l 944 1088 q 899 933 944 992 q 768 875 856 879 l 771 872 q 847 718 821 814 q 874 485 874 622 q 847 253 874 349 q 771 99 821 158 q 650 13 721 40 q 490 -14 579 -14 q 330 13 401 -14 q 208 99 258 40 q 132 253 158 157 q 106 486 106 349 m 233 486 q 261 259 233 346 q 346 133 289 172 q 490 93 403 93 q 635 133 578 93 q 719 259 692 172 q 746 485 746 346 q 719 711 746 625 q 635 837 692 797 q 490 876 578 876 q 346 837 403 876 q 261 711 289 797 q 233 486 233 625 z "},"Ỡ":{"ha":976,"x_min":106,"x_max":944,"o":"m 322 1183 q 410 1226 354 1226 q 458 1217 435 1226 q 504 1192 482 1207 l 525 1178 q 553 1160 540 1168 q 578 1153 565 1153 q 606 1167 594 1153 q 618 1211 618 1182 l 710 1211 q 678 1101 710 1143 q 590 1058 646 1058 q 542 1067 565 1058 q 496 1092 519 1076 l 472 1107 q 447 1124 458 1117 q 422 1131 435 1131 q 394 1116 406 1131 q 382 1071 382 1101 l 289 1071 q 322 1183 289 1140 m 106 486 q 132 717 106 622 q 208 872 158 813 q 330 958 258 931 q 490 985 401 985 q 614 969 557 985 l 717 969 q 808 999 786 969 q 829 1088 829 1029 l 829 1126 l 944 1126 l 944 1088 q 899 933 944 992 q 768 875 856 879 l 771 872 q 847 718 821 814 q 874 485 874 622 q 847 253 874 349 q 771 99 821 158 q 650 13 721 40 q 490 -14 579 -14 q 330 13 401 -14 q 208 99 258 40 q 132 253 158 157 q 106 486 106 349 m 233 486 q 261 259 233 346 q 346 133 289 172 q 490 93 403 93 q 635 133 578 93 q 719 259 692 172 q 746 485 746 346 q 719 711 746 625 q 635 837 692 797 q 490 876 578 876 q 346 837 403 876 q 261 711 289 797 q 233 486 233 625 z "},"Ợ":{"ha":976,"x_min":106,"x_max":944,"o":"m 422 -146 q 481 -128 440 -128 q 541 -146 524 -128 q 558 -204 558 -164 q 541 -260 558 -243 q 481 -278 524 -278 q 422 -260 440 -278 q 404 -204 404 -243 q 422 -146 404 -164 m 106 486 q 132 717 106 622 q 208 872 158 813 q 330 958 258 931 q 490 985 401 985 q 614 969 557 985 l 717 969 q 808 999 786 969 q 829 1088 829 1029 l 829 1126 l 944 1126 l 944 1088 q 899 933 944 992 q 768 875 856 879 l 771 872 q 847 718 821 814 q 874 485 874 622 q 847 253 874 349 q 771 99 821 158 q 650 13 721 40 q 490 -14 579 -14 q 330 13 401 -14 q 208 99 258 40 q 132 253 158 157 q 106 486 106 349 m 233 486 q 261 259 233 346 q 346 133 289 172 q 490 93 403 93 q 635 133 578 93 q 719 259 692 172 q 746 485 746 346 q 719 711 746 625 q 635 837 692 797 q 490 876 578 876 q 346 837 403 876 q 261 711 289 797 q 233 486 233 625 z "},"Ƣ":{"ha":1406,"x_min":106,"x_max":1254,"o":"m 106 486 q 132 717 106 622 q 208 872 158 813 q 330 958 258 931 q 490 985 401 985 q 650 958 579 985 q 744 900 703 938 q 867 954 804 933 q 1044 985 956 985 q 1199 931 1143 985 q 1254 769 1254 878 l 1254 -286 l 1131 -286 l 1131 742 q 1000 871 1131 871 q 871 847 936 871 q 807 821 840 836 q 847 718 831 776 q 874 485 874 622 q 847 253 874 349 q 771 99 821 158 q 650 13 721 40 q 490 -14 579 -14 q 330 13 401 -14 q 208 99 258 40 q 132 253 158 157 q 106 486 106 349 m 233 486 q 261 259 233 346 q 346 133 289 172 q 490 93 403 93 q 635 133 578 93 q 719 259 692 172 q 746 485 746 346 q 719 711 746 625 q 635 837 692 797 q 490 876 578 876 q 346 837 403 876 q 261 711 289 797 q 233 486 233 625 z "},"Ƥ":{"ha":1007,"x_min":26,"x_max":928,"o":"m 26 783 q 81 919 26 869 q 246 969 135 969 l 610 969 q 774 938 703 969 q 887 838 846 906 q 928 664 928 771 q 887 490 928 557 q 774 390 846 422 q 610 358 703 358 l 414 358 l 414 0 l 290 0 l 290 867 l 246 867 q 160 846 182 867 q 138 783 138 825 l 138 749 l 26 749 l 26 783 m 414 461 l 603 461 q 747 512 692 461 q 801 664 801 563 q 747 815 801 764 q 603 867 692 867 l 414 867 l 414 461 z "},"Ʀ":{"ha":879,"x_min":154,"x_max":840,"o":"m 154 969 l 279 969 l 279 804 l 469 804 q 634 775 563 804 q 747 685 706 746 q 788 529 788 624 q 744 374 788 436 q 629 282 700 313 q 578 263 604 271 q 708 22 649 149 q 840 -286 774 -119 l 696 -286 q 569 15 636 -126 q 449 244 514 132 l 279 244 l 279 0 l 154 0 l 154 969 m 279 347 l 467 347 q 560 367 515 347 q 633 426 604 386 q 661 526 661 467 q 605 657 661 614 q 463 700 549 700 l 279 700 l 279 347 z "},"Ƨ":{"ha":769,"x_min":86,"x_max":679,"o":"m 113 376 q 179 457 138 425 q 272 510 221 489 q 372 551 322 532 q 464 592 422 569 q 531 649 506 615 q 557 738 557 683 q 511 842 557 806 q 365 878 465 878 q 238 867 304 878 q 121 838 172 856 l 121 949 q 232 974 167 964 q 364 985 297 985 q 598 919 517 985 q 679 721 679 853 q 653 601 679 649 q 586 522 628 553 q 494 471 544 492 q 394 431 444 450 q 301 388 343 411 q 234 328 260 364 q 208 238 208 293 q 261 126 208 160 q 415 92 314 92 q 546 104 485 92 q 669 135 607 117 l 669 24 q 551 -3 615 8 q 415 -14 488 -14 q 167 53 247 -14 q 86 251 86 121 q 113 376 86 326 z "},"Ʃ":{"ha":731,"x_min":53,"x_max":696,"o":"m 53 0 l 53 93 q 238 317 143 208 q 396 490 314 404 q 247 658 319 572 q 74 878 158 764 l 74 969 l 676 969 l 676 867 l 222 867 q 353 703 288 781 q 518 518 431 608 l 518 456 q 342 269 425 363 q 203 104 269 189 l 696 104 l 696 0 l 53 0 z "},"Ƭ":{"ha":832,"x_min":26,"x_max":786,"o":"m 26 749 l 26 783 q 81 919 26 869 q 246 969 135 969 l 786 969 l 786 867 l 492 867 l 492 0 l 368 0 l 368 867 l 246 867 q 160 846 182 867 q 138 783 138 825 l 138 749 l 26 749 z "},"Ʈ":{"ha":804,"x_min":46,"x_max":758,"o":"m 46 969 l 758 969 l 758 867 l 464 867 l 464 -111 q 485 -179 464 -161 q 557 -197 507 -197 q 620 -194 589 -197 q 686 -185 651 -190 l 686 -285 q 622 -295 660 -290 q 546 -300 583 -300 q 433 -283 479 -300 q 363 -226 388 -267 q 339 -112 339 -185 l 339 867 l 46 867 l 46 969 z "},"Ư":{"ha":992,"x_min":140,"x_max":1019,"o":"m 140 969 l 264 969 l 264 318 q 290 188 264 238 q 366 115 317 138 q 483 93 415 93 q 603 115 553 93 q 679 188 653 138 q 706 318 706 238 l 706 969 l 792 969 q 883 999 861 969 q 904 1088 904 1029 l 904 1126 l 1019 1126 l 1019 1088 q 974 933 1019 992 q 831 875 928 875 l 829 875 l 829 314 q 786 126 829 199 q 666 20 743 54 q 483 -14 589 -14 q 303 20 381 -14 q 183 126 225 54 q 140 314 140 199 l 140 969 z "},"Ứ":{"ha":992,"x_min":140,"x_max":1019,"o":"m 544 1238 l 682 1238 l 539 1043 l 429 1043 l 544 1238 m 140 969 l 264 969 l 264 318 q 290 188 264 238 q 366 115 317 138 q 483 93 415 93 q 603 115 553 93 q 679 188 653 138 q 706 318 706 238 l 706 969 l 792 969 q 883 999 861 969 q 904 1088 904 1029 l 904 1126 l 1019 1126 l 1019 1088 q 974 933 1019 992 q 831 875 928 875 l 829 875 l 829 314 q 786 126 829 199 q 666 20 743 54 q 483 -14 589 -14 q 303 20 381 -14 q 183 126 225 54 q 140 314 140 199 l 140 969 z "},"Ừ":{"ha":992,"x_min":140,"x_max":1019,"o":"m 424 1238 l 539 1043 l 431 1043 l 288 1238 l 424 1238 m 140 969 l 264 969 l 264 318 q 290 188 264 238 q 366 115 317 138 q 483 93 415 93 q 603 115 553 93 q 679 188 653 138 q 706 318 706 238 l 706 969 l 792 969 q 883 999 861 969 q 904 1088 904 1029 l 904 1126 l 1019 1126 l 1019 1088 q 974 933 1019 992 q 831 875 928 875 l 829 875 l 829 314 q 786 126 829 199 q 666 20 743 54 q 483 -14 589 -14 q 303 20 381 -14 q 183 126 225 54 q 140 314 140 199 l 140 969 z "},"Ử":{"ha":992,"x_min":140,"x_max":1019,"o":"m 424 1281 q 492 1289 457 1289 q 593 1262 557 1289 q 629 1192 629 1235 q 613 1136 629 1157 q 574 1103 596 1115 q 535 1079 551 1090 q 518 1053 518 1068 l 518 1040 l 433 1040 l 433 1060 q 448 1108 433 1092 q 481 1133 463 1124 q 515 1153 500 1143 q 529 1179 529 1163 q 475 1210 529 1210 q 420 1201 449 1210 q 363 1181 392 1193 l 363 1263 q 424 1281 390 1272 m 140 969 l 264 969 l 264 318 q 290 188 264 238 q 366 115 317 138 q 483 93 415 93 q 603 115 553 93 q 679 188 653 138 q 706 318 706 238 l 706 969 l 792 969 q 883 999 861 969 q 904 1088 904 1029 l 904 1126 l 1019 1126 l 1019 1088 q 974 933 1019 992 q 831 875 928 875 l 829 875 l 829 314 q 786 126 829 199 q 666 20 743 54 q 483 -14 589 -14 q 303 20 381 -14 q 183 126 225 54 q 140 314 140 199 l 140 969 z "},"Ữ":{"ha":992,"x_min":140,"x_max":1019,"o":"m 308 1183 q 396 1226 340 1226 q 444 1217 421 1226 q 490 1192 468 1207 l 511 1178 q 539 1160 526 1168 q 564 1153 551 1153 q 592 1167 581 1153 q 604 1211 604 1182 l 696 1211 q 664 1101 696 1143 q 576 1058 632 1058 q 528 1067 551 1058 q 482 1092 506 1076 l 458 1107 q 433 1124 444 1117 q 408 1131 421 1131 q 380 1116 392 1131 q 368 1071 368 1101 l 275 1071 q 308 1183 275 1140 m 140 969 l 264 969 l 264 318 q 290 188 264 238 q 366 115 317 138 q 483 93 415 93 q 603 115 553 93 q 679 188 653 138 q 706 318 706 238 l 706 969 l 792 969 q 883 999 861 969 q 904 1088 904 1029 l 904 1126 l 1019 1126 l 1019 1088 q 974 933 1019 992 q 831 875 928 875 l 829 875 l 829 314 q 786 126 829 199 q 666 20 743 54 q 483 -14 589 -14 q 303 20 381 -14 q 183 126 225 54 q 140 314 140 199 l 140 969 z "},"Ự":{"ha":992,"x_min":140,"x_max":1019,"o":"m 426 -131 q 485 -112 444 -112 q 545 -131 528 -112 q 563 -189 563 -149 q 545 -245 563 -228 q 485 -262 528 -262 q 426 -245 444 -262 q 408 -189 408 -228 q 426 -131 408 -149 m 140 969 l 264 969 l 264 318 q 290 188 264 238 q 366 115 317 138 q 483 93 415 93 q 603 115 553 93 q 679 188 653 138 q 706 318 706 238 l 706 969 l 792 969 q 883 999 861 969 q 904 1088 904 1029 l 904 1126 l 1019 1126 l 1019 1088 q 974 933 1019 992 q 831 875 928 875 l 829 875 l 829 314 q 786 126 829 199 q 666 20 743 54 q 483 -14 589 -14 q 303 20 381 -14 q 183 126 225 54 q 140 314 140 199 l 140 969 z "},"Ʊ":{"ha":985,"x_min":93,"x_max":890,"o":"m 93 969 l 414 969 l 414 844 q 310 733 351 796 q 247 592 268 669 q 226 426 226 515 q 295 180 226 267 q 490 93 364 93 q 689 180 619 93 q 758 426 758 267 q 738 592 758 515 q 676 733 717 669 q 571 844 635 796 l 571 969 l 890 969 l 890 868 l 683 868 q 779 772 739 824 q 860 613 833 700 q 886 421 886 525 q 859 235 886 315 q 780 99 832 154 q 655 15 728 43 q 490 -14 582 -14 q 328 15 400 -14 q 204 99 256 43 q 126 235 153 154 q 99 421 99 315 q 125 613 99 525 q 207 774 151 700 q 300 868 246 825 l 93 868 l 93 969 z "},"Ʋ":{"ha":965,"x_min":140,"x_max":829,"o":"m 265 969 l 265 318 q 292 188 265 238 q 367 115 318 138 q 483 93 415 93 q 602 115 553 93 q 678 188 651 138 q 704 318 704 238 l 704 796 q 683 864 704 846 q 611 882 661 882 q 553 879 581 882 q 493 871 525 876 l 493 969 q 551 980 517 975 q 622 985 585 985 q 735 967 689 985 q 806 910 782 950 q 829 797 829 869 l 829 314 q 786 126 829 199 q 666 20 743 54 q 483 -14 589 -14 q 303 20 381 -14 q 183 126 225 54 q 140 314 140 199 l 140 969 l 265 969 z "},"Ƴ":{"ha":899,"x_min":36,"x_max":864,"o":"m 36 969 l 169 969 l 425 500 l 610 836 q 653 909 633 881 q 693 954 672 938 q 741 978 714 971 q 806 985 768 985 q 835 982 819 985 q 864 976 851 979 l 864 875 q 836 879 850 878 q 811 881 822 881 q 762 869 781 881 q 726 828 743 857 l 483 386 l 483 0 l 360 0 l 360 385 l 36 969 z "},"Ƶ":{"ha":774,"x_min":65,"x_max":710,"o":"m 283 439 l 83 439 l 83 533 l 343 533 l 554 867 l 76 867 l 76 969 l 700 969 l 700 878 l 483 533 l 706 533 l 706 439 l 424 439 l 213 104 l 710 104 l 710 0 l 65 0 l 65 92 l 283 439 z "},"Ʒ":{"ha":781,"x_min":67,"x_max":688,"o":"m 67 122 q 195 97 140 107 q 317 88 250 88 q 501 137 440 88 q 561 283 561 186 q 505 424 561 378 q 333 471 449 471 l 214 471 l 214 554 l 526 867 l 76 867 l 76 969 l 678 969 l 678 878 l 378 572 q 608 494 532 568 q 688 281 688 417 q 645 118 688 183 q 524 19 603 53 q 338 -14 446 -14 q 242 -10 283 -14 q 160 0 200 -7 q 67 17 119 7 l 67 122 z "},"Ƹ":{"ha":782,"x_min":93,"x_max":715,"o":"m 174 494 q 403 572 249 568 l 104 878 l 104 969 l 706 969 l 706 867 l 256 867 l 567 554 l 567 471 l 447 471 q 276 424 332 471 q 221 283 221 378 q 281 137 221 186 q 464 88 342 88 q 587 97 532 88 q 715 122 642 107 l 715 17 q 622 0 663 7 q 541 -10 582 -7 q 444 -14 500 -14 q 257 19 336 -14 q 135 118 178 53 q 93 281 93 183 q 174 494 93 417 z "},"Ƽ":{"ha":771,"x_min":53,"x_max":694,"o":"m 656 969 l 656 867 l 275 867 l 275 578 q 300 582 288 579 q 389 586 342 586 q 621 516 547 586 q 694 297 694 446 q 610 62 694 138 q 369 -14 525 -14 q 286 -11 324 -14 q 212 -3 249 -8 q 129 11 175 1 l 129 117 q 241 94 189 103 q 349 85 293 85 q 514 135 461 85 q 567 294 567 185 q 517 440 567 393 q 360 486 467 486 q 260 481 308 486 q 160 469 213 476 l 160 867 l 53 867 l 53 969 l 656 969 z "},"Ƿ":{"ha":872,"x_min":154,"x_max":793,"o":"m 154 0 l 154 969 l 479 969 q 640 937 569 969 q 752 838 711 904 q 793 667 793 771 q 768 533 793 588 q 699 442 743 478 q 600 383 656 406 q 482 344 544 360 l 279 292 l 279 0 l 154 0 m 279 867 l 279 401 l 478 453 q 565 487 522 465 q 637 551 608 508 q 665 667 665 593 q 610 816 665 765 q 471 867 554 867 l 279 867 z "},"Ǯ":{"ha":781,"x_min":67,"x_max":688,"o":"m 190 1232 l 296 1232 l 379 1115 l 463 1232 l 564 1232 l 442 1038 l 314 1038 l 190 1232 m 67 122 q 195 97 140 107 q 317 88 250 88 q 501 137 440 88 q 561 283 561 186 q 505 424 561 378 q 333 471 449 471 l 214 471 l 214 554 l 526 867 l 76 867 l 76 969 l 678 969 l 678 878 l 378 572 q 608 494 532 568 q 688 281 688 417 q 645 118 688 183 q 524 19 603 53 q 338 -14 446 -14 q 242 -10 283 -14 q 160 0 200 -7 q 67 17 119 7 l 67 122 z "},"Ȝ":{"ha":778,"x_min":67,"x_max":688,"o":"m 67 92 q 340 122 229 97 q 506 192 450 146 q 561 311 561 239 q 506 426 561 383 q 332 468 450 468 l 217 468 l 217 553 l 524 867 l 74 867 l 74 969 l 674 969 l 674 878 l 379 569 q 544 535 478 567 q 652 441 617 500 q 688 308 688 382 q 642 164 688 224 q 514 66 597 104 q 317 9 431 28 q 67 -14 203 -10 l 67 92 z "},"Ȣ":{"ha":833,"x_min":93,"x_max":739,"o":"m 178 471 q 232 506 201 492 q 196 526 213 514 q 118 679 118 578 q 186 826 118 778 q 368 874 254 874 l 368 772 q 276 751 308 772 q 243 676 243 731 q 286 585 243 614 q 410 556 329 556 q 545 595 501 556 q 589 726 589 635 q 557 844 589 807 q 457 881 525 881 l 457 985 q 648 919 579 985 q 717 728 717 853 q 639 536 717 599 q 594 508 619 519 q 656 471 629 493 q 739 272 739 401 q 657 58 739 131 q 417 -14 575 -14 q 175 58 257 -14 q 93 272 93 131 q 178 471 93 401 m 219 274 q 271 133 219 179 q 417 86 322 86 q 562 133 511 86 q 613 274 613 179 q 563 413 613 368 q 417 458 513 458 q 269 413 319 458 q 219 274 219 368 z "},"Ȥ":{"ha":782,"x_min":65,"x_max":769,"o":"m 65 92 l 558 867 l 76 867 l 76 969 l 700 969 l 700 878 l 208 103 l 568 103 q 721 48 672 103 q 769 -97 769 -7 l 769 -133 l 661 -133 l 661 -97 q 639 -24 661 -49 q 547 0 617 0 l 65 0 l 65 92 z "},"Ȿ":{"ha":768,"x_min":93,"x_max":685,"o":"m 93 715 q 178 919 93 854 q 414 985 263 985 q 534 976 475 985 q 651 949 593 967 l 651 835 q 527 867 588 857 q 414 878 467 878 q 265 842 314 878 q 215 733 215 806 q 241 653 215 685 q 308 599 267 621 q 400 558 350 576 q 500 517 450 539 q 592 463 550 494 q 659 384 633 432 q 685 265 685 336 q 600 56 685 126 q 349 -14 515 -14 q 261 -8 306 -14 l 319 -72 q 366 -119 344 -101 q 413 -145 388 -137 q 476 -153 439 -153 q 530 -149 500 -153 q 594 -139 560 -146 l 594 -240 q 538 -250 569 -246 q 471 -254 507 -254 q 364 -237 406 -254 q 288 -187 322 -221 q 208 -101 254 -153 l 101 24 l 103 24 l 103 138 q 232 103 167 115 q 353 92 297 92 q 506 129 449 92 q 563 249 563 167 q 537 331 563 299 q 469 387 511 364 q 378 429 428 410 q 278 470 328 449 q 186 523 228 492 q 119 601 144 554 q 93 715 93 647 z "},"Ɀ":{"ha":765,"x_min":65,"x_max":711,"o":"m 558 867 l 76 867 l 76 969 l 700 969 l 700 878 l 207 103 q 275 92 244 100 q 363 49 322 79 q 450 -39 403 18 l 478 -74 q 538 -136 517 -119 q 597 -153 558 -153 q 647 -149 617 -153 q 711 -139 678 -146 l 711 -240 q 654 -250 686 -246 q 586 -254 622 -254 q 492 -242 529 -254 q 424 -197 456 -229 q 346 -106 392 -164 l 317 -65 q 273 -24 294 -37 q 223 -5 251 -10 q 151 0 194 0 l 65 0 l 65 92 l 558 867 z "}}}
